<?xml version="1.0" encoding="UTF-8"?>
<!DOCTYPE svg PUBLIC "-//W3C//DTD SVG 1.1//EN" "http://www.w3.org/Graphics/SVG/1.1/DTD/svg11.dtd">
<svg version="1.2" width="25.72mm" height="28.15mm" viewBox="5176 20539 2572 2815" preserveAspectRatio="xMidYMid" fill-rule="evenodd" stroke-width="28.222" stroke-linejoin="round" xmlns="http://www.w3.org/2000/svg" xmlns:ooo="http://xml.openoffice.org/svg/export" xmlns:xlink="http://www.w3.org/1999/xlink" xmlns:presentation="http://sun.com/xmlns/staroffice/presentation" xmlns:smil="http://www.w3.org/2001/SMIL20/" xmlns:anim="urn:oasis:names:tc:opendocument:xmlns:animation:1.0" xml:space="preserve">
 <defs class="EmbeddedBulletChars">
  <g id="bullet-char-template-57356" transform="scale(0.00048828125,-0.00048828125)">
   <path d="M 580,1141 L 1163,571 580,0 -4,571 580,1141 Z"/>
  </g>
  <g id="bullet-char-template-57354" transform="scale(0.00048828125,-0.00048828125)">
   <path d="M 8,1128 L 1137,1128 1137,0 8,0 8,1128 Z"/>
  </g>
  <g id="bullet-char-template-10146" transform="scale(0.00048828125,-0.00048828125)">
   <path d="M 174,0 L 602,739 174,1481 1456,739 174,0 Z M 1358,739 L 309,1346 659,739 1358,739 Z"/>
  </g>
  <g id="bullet-char-template-10132" transform="scale(0.00048828125,-0.00048828125)">
   <path d="M 2015,739 L 1276,0 717,0 1260,543 174,543 174,936 1260,936 717,1481 1274,1481 2015,739 Z"/>
  </g>
  <g id="bullet-char-template-10007" transform="scale(0.00048828125,-0.00048828125)">
   <path d="M 0,-2 C -7,14 -16,27 -25,37 L 356,567 C 262,823 215,952 215,954 215,979 228,992 255,992 264,992 276,990 289,987 310,991 331,999 354,1012 L 381,999 492,748 772,1049 836,1024 860,1049 C 881,1039 901,1025 922,1006 886,937 835,863 770,784 769,783 710,716 594,584 L 774,223 C 774,196 753,168 711,139 L 727,119 C 717,90 699,76 672,76 641,76 570,178 457,381 L 164,-76 C 142,-110 111,-127 72,-127 30,-127 9,-110 8,-76 1,-67 -2,-52 -2,-32 -2,-23 -1,-13 0,-2 Z"/>
  </g>
  <g id="bullet-char-template-10004" transform="scale(0.00048828125,-0.00048828125)">
   <path d="M 285,-33 C 182,-33 111,30 74,156 52,228 41,333 41,471 41,549 55,616 82,672 116,743 169,778 240,778 293,778 328,747 346,684 L 369,508 C 377,444 397,411 428,410 L 1163,1116 C 1174,1127 1196,1133 1229,1133 1271,1133 1292,1118 1292,1087 L 1292,965 C 1292,929 1282,901 1262,881 L 442,47 C 390,-6 338,-33 285,-33 Z"/>
  </g>
  <g id="bullet-char-template-9679" transform="scale(0.00048828125,-0.00048828125)">
   <path d="M 813,0 C 632,0 489,54 383,161 276,268 223,411 223,592 223,773 276,916 383,1023 489,1130 632,1184 813,1184 992,1184 1136,1130 1245,1023 1353,916 1407,772 1407,592 1407,412 1353,268 1245,161 1136,54 992,0 813,0 Z"/>
  </g>
  <g id="bullet-char-template-8226" transform="scale(0.00048828125,-0.00048828125)">
   <path d="M 346,457 C 273,457 209,483 155,535 101,586 74,649 74,723 74,796 101,859 155,911 209,963 273,989 346,989 419,989 480,963 531,910 582,859 608,796 608,723 608,648 583,586 532,535 482,483 420,457 346,457 Z"/>
  </g>
  <g id="bullet-char-template-8211" transform="scale(0.00048828125,-0.00048828125)">
   <path d="M -4,459 L 1135,459 1135,606 -4,606 -4,459 Z"/>
  </g>
  <g id="bullet-char-template-61548" transform="scale(0.00048828125,-0.00048828125)">
   <path d="M 173,740 C 173,903 231,1043 346,1159 462,1274 601,1332 765,1332 928,1332 1067,1274 1183,1159 1299,1043 1357,903 1357,740 1357,577 1299,437 1183,322 1067,206 928,148 765,148 601,148 462,206 346,322 231,437 173,577 173,740 Z"/>
  </g>
 </defs>
 <g class="Page">
  <g class="Group">
   <g class="com.sun.star.drawing.CustomShape">
    <g id="id3">
     <rect class="BoundingBox" stroke="none" fill="none" x="5617" y="20539" width="1689" height="2578"/>
     <path fill="rgb(255,255,109)" stroke="none" d="M 7287,21828 C 7287,21604 7249,21385 7176,21192 7104,20999 7000,20839 6874,20727 6748,20616 6606,20557 6461,20557 6316,20557 6174,20616 6048,20727 5922,20839 5818,20999 5746,21192 5673,21385 5635,21604 5635,21828 5635,22051 5673,22270 5746,22463 5818,22656 5922,22816 6048,22928 6174,23039 6316,23098 6461,23098 6606,23098 6748,23039 6874,22928 7000,22816 7104,22656 7176,22463 7249,22270 7287,22051 7287,21828 L 7287,21828 Z"/>
     <path fill="none" stroke="rgb(0,0,0)" stroke-width="35" stroke-linejoin="round" d="M 7287,21828 C 7287,21604 7249,21385 7176,21192 7104,20999 7000,20839 6874,20727 6748,20616 6606,20557 6461,20557 6316,20557 6174,20616 6048,20727 5922,20839 5818,20999 5746,21192 5673,21385 5635,21604 5635,21828 5635,22051 5673,22270 5746,22463 5818,22656 5922,22816 6048,22928 6174,23039 6316,23098 6461,23098 6606,23098 6748,23039 6874,22928 7000,22816 7104,22656 7176,22463 7249,22270 7287,22051 7287,21828 Z"/>
    </g>
   </g>
   <g class="com.sun.star.drawing.PolyPolygonShape">
    <g id="id4">
     <rect class="BoundingBox" stroke="none" fill="none" x="5763" y="22501" width="1401" height="206"/>
     <path fill="rgb(0,0,0)" stroke="none" d="M 5764,22514 L 5845,22705 7057,22695 7162,22502 5764,22514 Z"/>
     <path fill="none" stroke="rgb(0,0,0)" d="M 5764,22514 L 5845,22705 7057,22695 7162,22502 5764,22514 Z"/>
    </g>
   </g>
   <g class="com.sun.star.drawing.PolyPolygonShape">
    <g id="id5">
     <rect class="BoundingBox" stroke="none" fill="none" x="5635" y="22081" width="3" height="3"/>
     <path fill="rgb(0,0,0)" stroke="none" d="M 5636,22082 L 5636,22082 5636,22082 5636,22082 5636,22082 Z"/>
     <path fill="none" stroke="rgb(0,0,0)" d="M 5636,22082 L 5636,22082 5636,22082 5636,22082 5636,22082 Z"/>
    </g>
   </g>
   <g class="com.sun.star.drawing.PolyPolygonShape">
    <g id="id6">
     <rect class="BoundingBox" stroke="none" fill="none" x="5762" y="20938" width="1400" height="194"/>
     <path fill="rgb(0,0,0)" stroke="none" d="M 5763,21129 L 5862,20939 7072,20939 7160,21130 5763,21129 Z"/>
     <path fill="none" stroke="rgb(0,0,0)" d="M 5763,21129 L 5862,20939 7072,20939 7160,21130 5763,21129 Z"/>
    </g>
   </g>
   <g class="com.sun.star.drawing.PolyPolygonShape">
    <g id="id7">
     <rect class="BoundingBox" stroke="none" fill="none" x="5761" y="21954" width="1401" height="206"/>
     <path fill="rgb(0,0,0)" stroke="none" d="M 5762,21967 L 5843,22158 7055,22148 7160,21955 5762,21967 Z"/>
     <path fill="none" stroke="rgb(0,0,0)" d="M 5762,21967 L 5843,22158 7055,22148 7160,21955 5762,21967 Z"/>
    </g>
   </g>
   <g class="com.sun.star.drawing.PolyPolygonShape">
    <g id="id8">
     <rect class="BoundingBox" stroke="none" fill="none" x="5762" y="21446" width="1401" height="206"/>
     <path fill="rgb(0,0,0)" stroke="none" d="M 5763,21459 L 5844,21650 7056,21640 7161,21447 5763,21459 Z"/>
     <path fill="none" stroke="rgb(0,0,0)" d="M 5763,21459 L 5844,21650 7056,21640 7161,21447 5763,21459 Z"/>
    </g>
   </g>
   <g class="com.sun.star.drawing.CustomShape">
    <g id="id9">
     <rect class="BoundingBox" stroke="none" fill="none" x="6511" y="21084" width="1237" height="1417"/>
     <path fill="rgb(180,199,220)" stroke="none" d="M 7480,22065 C 7569,21951 7641,21826 7687,21703 7733,21579 7753,21463 7744,21364 7735,21265 7698,21188 7636,21140 7574,21092 7490,21075 7392,21091 7295,21106 7186,21154 7078,21229 6970,21305 6867,21404 6778,21519 6689,21633 6617,21758 6571,21881 6525,22005 6505,22121 6514,22220 6523,22319 6560,22396 6622,22444 6684,22492 6768,22509 6866,22493 6963,22478 7072,22430 7180,22355 7288,22279 7391,22180 7480,22065 L 7480,22065 Z"/>
     <path fill="none" stroke="rgb(52,101,164)" d="M 7480,22065 C 7569,21951 7641,21826 7687,21703 7733,21579 7753,21463 7744,21364 7735,21265 7698,21188 7636,21140 7574,21092 7490,21075 7392,21091 7295,21106 7186,21154 7078,21229 6970,21305 6867,21404 6778,21519 6689,21633 6617,21758 6571,21881 6525,22005 6505,22121 6514,22220 6523,22319 6560,22396 6622,22444 6684,22492 6768,22509 6866,22493 6963,22478 7072,22430 7180,22355 7288,22279 7391,22180 7480,22065 Z"/>
    </g>
   </g>
   <g class="com.sun.star.drawing.CustomShape">
    <g id="id10">
     <rect class="BoundingBox" stroke="none" fill="none" x="5176" y="21084" width="1237" height="1417"/>
     <path fill="rgb(180,199,220)" stroke="none" d="M 5443,22065 C 5354,21951 5282,21826 5236,21703 5190,21579 5170,21463 5179,21364 5188,21265 5225,21188 5287,21140 5349,21092 5433,21075 5531,21091 5628,21106 5737,21154 5845,21229 5953,21305 6056,21404 6145,21519 6234,21633 6306,21758 6352,21881 6398,22005 6418,22121 6409,22220 6400,22319 6363,22396 6301,22444 6239,22492 6155,22509 6057,22493 5960,22478 5851,22430 5743,22355 5635,22279 5532,22180 5443,22065 L 5443,22065 Z"/>
     <path fill="none" stroke="rgb(52,101,164)" d="M 5443,22065 C 5354,21951 5282,21826 5236,21703 5190,21579 5170,21463 5179,21364 5188,21265 5225,21188 5287,21140 5349,21092 5433,21075 5531,21091 5628,21106 5737,21154 5845,21229 5953,21305 6056,21404 6145,21519 6234,21633 6306,21758 6352,21881 6398,22005 6418,22121 6409,22220 6400,22319 6363,22396 6301,22444 6239,22492 6155,22509 6057,22493 5960,22478 5851,22430 5743,22355 5635,22279 5532,22180 5443,22065 Z"/>
    </g>
   </g>
   <g class="com.sun.star.drawing.CustomShape">
    <g id="id11">
     <rect class="BoundingBox" stroke="none" fill="none" x="5889" y="22842" width="512" height="512"/>
     <path fill="rgb(255,255,255)" stroke="none" d="M 6399,23097 C 6399,23053 6387,23009 6365,22970 6343,22932 6310,22899 6272,22877 6233,22855 6189,22843 6144,22843 6100,22843 6056,22855 6017,22877 5979,22899 5946,22932 5924,22970 5902,23009 5890,23053 5890,23097 5890,23142 5902,23186 5924,23225 5946,23263 5979,23296 6017,23318 6056,23340 6100,23352 6144,23352 6189,23352 6233,23340 6272,23318 6310,23296 6343,23263 6365,23225 6387,23186 6399,23142 6399,23097 L 6399,23097 Z"/>
     <path fill="none" stroke="rgb(0,0,0)" d="M 6399,23097 C 6399,23053 6387,23009 6365,22970 6343,22932 6310,22899 6272,22877 6233,22855 6189,22843 6144,22843 6100,22843 6056,22855 6017,22877 5979,22899 5946,22932 5924,22970 5902,23009 5890,23053 5890,23097 5890,23142 5902,23186 5924,23225 5946,23263 5979,23296 6017,23318 6056,23340 6100,23352 6144,23352 6189,23352 6233,23340 6272,23318 6310,23296 6343,23263 6365,23225 6387,23186 6399,23142 6399,23097 Z"/>
    </g>
   </g>
   <g class="com.sun.star.drawing.CustomShape">
    <g id="id12">
     <rect class="BoundingBox" stroke="none" fill="none" x="6058" y="23181" width="174" height="173"/>
     <path fill="rgb(0,0,0)" stroke="none" d="M 6230,23267 C 6230,23252 6226,23237 6219,23225 6211,23212 6200,23201 6187,23193 6174,23186 6160,23182 6144,23182 6129,23182 6115,23186 6102,23193 6089,23201 6078,23212 6070,23225 6063,23237 6059,23252 6059,23267 6059,23282 6063,23297 6070,23310 6078,23322 6089,23333 6102,23341 6115,23348 6129,23352 6144,23352 6160,23352 6174,23348 6187,23341 6200,23333 6211,23322 6219,23310 6226,23297 6230,23282 6230,23267 L 6230,23267 Z"/>
     <path fill="none" stroke="rgb(0,0,0)" d="M 6230,23267 C 6230,23252 6226,23237 6219,23225 6211,23212 6200,23201 6187,23193 6174,23186 6160,23182 6144,23182 6129,23182 6115,23186 6102,23193 6089,23201 6078,23212 6070,23225 6063,23237 6059,23252 6059,23267 6059,23282 6063,23297 6070,23310 6078,23322 6089,23333 6102,23341 6115,23348 6129,23352 6144,23352 6160,23352 6174,23348 6187,23341 6200,23333 6211,23322 6219,23310 6226,23297 6230,23282 6230,23267 Z"/>
    </g>
   </g>
   <g class="com.sun.star.drawing.CustomShape">
    <g id="id13">
     <rect class="BoundingBox" stroke="none" fill="none" x="6524" y="22842" width="512" height="512"/>
     <path fill="rgb(255,255,255)" stroke="none" d="M 7034,23097 C 7034,23053 7022,23009 7000,22970 6978,22932 6945,22899 6907,22877 6868,22855 6824,22843 6780,22843 6735,22843 6691,22855 6652,22877 6614,22899 6581,22932 6559,22970 6537,23009 6525,23053 6525,23097 6525,23142 6537,23186 6559,23225 6581,23263 6614,23296 6652,23318 6691,23340 6735,23352 6779,23352 6824,23352 6868,23340 6907,23318 6945,23296 6978,23263 7000,23225 7022,23186 7034,23142 7034,23097 L 7034,23097 Z"/>
     <path fill="none" stroke="rgb(0,0,0)" d="M 7034,23097 C 7034,23053 7022,23009 7000,22970 6978,22932 6945,22899 6907,22877 6868,22855 6824,22843 6780,22843 6735,22843 6691,22855 6652,22877 6614,22899 6581,22932 6559,22970 6537,23009 6525,23053 6525,23097 6525,23142 6537,23186 6559,23225 6581,23263 6614,23296 6652,23318 6691,23340 6735,23352 6779,23352 6824,23352 6868,23340 6907,23318 6945,23296 6978,23263 7000,23225 7022,23186 7034,23142 7034,23097 Z"/>
    </g>
   </g>
   <g class="com.sun.star.drawing.CustomShape">
    <g id="id14">
     <rect class="BoundingBox" stroke="none" fill="none" x="6693" y="23181" width="174" height="173"/>
     <path fill="rgb(0,0,0)" stroke="none" d="M 6865,23267 C 6865,23252 6861,23237 6854,23225 6846,23212 6835,23201 6822,23193 6809,23186 6795,23182 6779,23182 6764,23182 6750,23186 6737,23193 6724,23201 6713,23212 6705,23225 6698,23237 6694,23252 6694,23267 6694,23282 6698,23297 6705,23310 6713,23322 6724,23333 6737,23341 6750,23348 6764,23352 6779,23352 6795,23352 6809,23348 6822,23341 6835,23333 6846,23322 6854,23310 6861,23297 6865,23282 6865,23267 L 6865,23267 Z"/>
     <path fill="none" stroke="rgb(0,0,0)" d="M 6865,23267 C 6865,23252 6861,23237 6854,23225 6846,23212 6835,23201 6822,23193 6809,23186 6795,23182 6779,23182 6764,23182 6750,23186 6737,23193 6724,23201 6713,23212 6705,23225 6698,23237 6694,23252 6694,23267 6694,23282 6698,23297 6705,23310 6713,23322 6724,23333 6737,23341 6750,23348 6764,23352 6779,23352 6795,23352 6809,23348 6822,23341 6835,23333 6846,23322 6854,23310 6861,23297 6865,23282 6865,23267 Z"/>
    </g>
   </g>
  </g>
 </g>
</svg>