<?xml version="1.0" encoding="UTF-8"?>
<!DOCTYPE svg PUBLIC "-//W3C//DTD SVG 1.1//EN" "http://www.w3.org/Graphics/SVG/1.1/DTD/svg11.dtd">
<svg version="1.2" width="28.16mm" height="25.73mm" viewBox="1379 23972 2816 2573" preserveAspectRatio="xMidYMid" fill-rule="evenodd" stroke-width="28.222" stroke-linejoin="round" xmlns="http://www.w3.org/2000/svg" xmlns:ooo="http://xml.openoffice.org/svg/export" xmlns:xlink="http://www.w3.org/1999/xlink" xmlns:presentation="http://sun.com/xmlns/staroffice/presentation" xmlns:smil="http://www.w3.org/2001/SMIL20/" xmlns:anim="urn:oasis:names:tc:opendocument:xmlns:animation:1.0" xml:space="preserve">
 <defs class="EmbeddedBulletChars">
  <g id="bullet-char-template-57356" transform="scale(0.00048828125,-0.00048828125)">
   <path d="M 580,1141 L 1163,571 580,0 -4,571 580,1141 Z"/>
  </g>
  <g id="bullet-char-template-57354" transform="scale(0.00048828125,-0.00048828125)">
   <path d="M 8,1128 L 1137,1128 1137,0 8,0 8,1128 Z"/>
  </g>
  <g id="bullet-char-template-10146" transform="scale(0.00048828125,-0.00048828125)">
   <path d="M 174,0 L 602,739 174,1481 1456,739 174,0 Z M 1358,739 L 309,1346 659,739 1358,739 Z"/>
  </g>
  <g id="bullet-char-template-10132" transform="scale(0.00048828125,-0.00048828125)">
   <path d="M 2015,739 L 1276,0 717,0 1260,543 174,543 174,936 1260,936 717,1481 1274,1481 2015,739 Z"/>
  </g>
  <g id="bullet-char-template-10007" transform="scale(0.00048828125,-0.00048828125)">
   <path d="M 0,-2 C -7,14 -16,27 -25,37 L 356,567 C 262,823 215,952 215,954 215,979 228,992 255,992 264,992 276,990 289,987 310,991 331,999 354,1012 L 381,999 492,748 772,1049 836,1024 860,1049 C 881,1039 901,1025 922,1006 886,937 835,863 770,784 769,783 710,716 594,584 L 774,223 C 774,196 753,168 711,139 L 727,119 C 717,90 699,76 672,76 641,76 570,178 457,381 L 164,-76 C 142,-110 111,-127 72,-127 30,-127 9,-110 8,-76 1,-67 -2,-52 -2,-32 -2,-23 -1,-13 0,-2 Z"/>
  </g>
  <g id="bullet-char-template-10004" transform="scale(0.00048828125,-0.00048828125)">
   <path d="M 285,-33 C 182,-33 111,30 74,156 52,228 41,333 41,471 41,549 55,616 82,672 116,743 169,778 240,778 293,778 328,747 346,684 L 369,508 C 377,444 397,411 428,410 L 1163,1116 C 1174,1127 1196,1133 1229,1133 1271,1133 1292,1118 1292,1087 L 1292,965 C 1292,929 1282,901 1262,881 L 442,47 C 390,-6 338,-33 285,-33 Z"/>
  </g>
  <g id="bullet-char-template-9679" transform="scale(0.00048828125,-0.00048828125)">
   <path d="M 813,0 C 632,0 489,54 383,161 276,268 223,411 223,592 223,773 276,916 383,1023 489,1130 632,1184 813,1184 992,1184 1136,1130 1245,1023 1353,916 1407,772 1407,592 1407,412 1353,268 1245,161 1136,54 992,0 813,0 Z"/>
  </g>
  <g id="bullet-char-template-8226" transform="scale(0.00048828125,-0.00048828125)">
   <path d="M 346,457 C 273,457 209,483 155,535 101,586 74,649 74,723 74,796 101,859 155,911 209,963 273,989 346,989 419,989 480,963 531,910 582,859 608,796 608,723 608,648 583,586 532,535 482,483 420,457 346,457 Z"/>
  </g>
  <g id="bullet-char-template-8211" transform="scale(0.00048828125,-0.00048828125)">
   <path d="M -4,459 L 1135,459 1135,606 -4,606 -4,459 Z"/>
  </g>
  <g id="bullet-char-template-61548" transform="scale(0.00048828125,-0.00048828125)">
   <path d="M 173,740 C 173,903 231,1043 346,1159 462,1274 601,1332 765,1332 928,1332 1067,1274 1183,1159 1299,1043 1357,903 1357,740 1357,577 1299,437 1183,322 1067,206 928,148 765,148 601,148 462,206 346,322 231,437 173,577 173,740 Z"/>
  </g>
 </defs>
 <g class="Page">
  <g class="Group">
   <g class="com.sun.star.drawing.CustomShape">
    <g id="id3">
     <rect class="BoundingBox" stroke="none" fill="none" x="1617" y="24414" width="2578" height="1689"/>
     <path fill="rgb(255,255,109)" stroke="none" d="M 2906,24432 C 3129,24432 3348,24470 3541,24543 3734,24615 3894,24719 4006,24845 4117,24971 4176,25113 4176,25258 4176,25403 4117,25545 4006,25671 3894,25797 3734,25901 3541,25973 3348,26046 3129,26084 2906,26084 2682,26084 2463,26046 2270,25973 2077,25901 1917,25797 1805,25671 1694,25545 1635,25403 1635,25258 1635,25113 1694,24971 1805,24845 1917,24719 2077,24615 2270,24543 2463,24470 2682,24432 2906,24432 L 2906,24432 Z"/>
     <path fill="none" stroke="rgb(0,0,0)" stroke-width="35" stroke-linejoin="round" d="M 2906,24432 C 3129,24432 3348,24470 3541,24543 3734,24615 3894,24719 4006,24845 4117,24971 4176,25113 4176,25258 4176,25403 4117,25545 4006,25671 3894,25797 3734,25901 3541,25973 3348,26046 3129,26084 2906,26084 2682,26084 2463,26046 2270,25973 2077,25901 1917,25797 1805,25671 1694,25545 1635,25403 1635,25258 1635,25113 1694,24971 1805,24845 1917,24719 2077,24615 2270,24543 2463,24470 2682,24432 2906,24432 Z"/>
    </g>
   </g>
   <g class="com.sun.star.drawing.PolyPolygonShape">
    <g id="id4">
     <rect class="BoundingBox" stroke="none" fill="none" x="2027" y="24557" width="206" height="1401"/>
     <path fill="rgb(0,0,0)" stroke="none" d="M 2219,25956 L 2028,25875 2038,24663 2231,24558 2219,25956 Z"/>
     <path fill="none" stroke="rgb(0,0,0)" d="M 2219,25956 L 2028,25875 2038,24663 2231,24558 2219,25956 Z"/>
    </g>
   </g>
   <g class="com.sun.star.drawing.PolyPolygonShape">
    <g id="id5">
     <rect class="BoundingBox" stroke="none" fill="none" x="2650" y="26083" width="3" height="3"/>
     <path fill="rgb(0,0,0)" stroke="none" d="M 2651,26084 L 2651,26084 2651,26084 2651,26084 2651,26084 Z"/>
     <path fill="none" stroke="rgb(0,0,0)" d="M 2651,26084 L 2651,26084 2651,26084 2651,26084 2651,26084 Z"/>
    </g>
   </g>
   <g class="com.sun.star.drawing.PolyPolygonShape">
    <g id="id6">
     <rect class="BoundingBox" stroke="none" fill="none" x="3602" y="24559" width="194" height="1400"/>
     <path fill="rgb(0,0,0)" stroke="none" d="M 3604,25957 L 3794,25858 3794,24648 3603,24560 3604,25957 Z"/>
     <path fill="none" stroke="rgb(0,0,0)" d="M 3604,25957 L 3794,25858 3794,24648 3603,24560 3604,25957 Z"/>
    </g>
   </g>
   <g class="com.sun.star.drawing.PolyPolygonShape">
    <g id="id7">
     <rect class="BoundingBox" stroke="none" fill="none" x="2574" y="24559" width="206" height="1401"/>
     <path fill="rgb(0,0,0)" stroke="none" d="M 2766,25958 L 2575,25877 2585,24665 2778,24560 2766,25958 Z"/>
     <path fill="none" stroke="rgb(0,0,0)" d="M 2766,25958 L 2575,25877 2585,24665 2778,24560 2766,25958 Z"/>
    </g>
   </g>
   <g class="com.sun.star.drawing.PolyPolygonShape">
    <g id="id8">
     <rect class="BoundingBox" stroke="none" fill="none" x="3082" y="24558" width="206" height="1401"/>
     <path fill="rgb(0,0,0)" stroke="none" d="M 3274,25957 L 3083,25876 3093,24664 3286,24559 3274,25957 Z"/>
     <path fill="none" stroke="rgb(0,0,0)" d="M 3274,25957 L 3083,25876 3093,24664 3286,24559 3274,25957 Z"/>
    </g>
   </g>
   <g class="com.sun.star.drawing.CustomShape">
    <g id="id9">
     <rect class="BoundingBox" stroke="none" fill="none" x="2232" y="23972" width="1417" height="1237"/>
     <path fill="rgb(180,199,220)" stroke="none" d="M 2667,24239 C 2781,24150 2906,24079 3029,24032 3152,23986 3269,23966 3368,23975 3467,23984 3544,24021 3592,24083 3640,24144 3657,24228 3641,24326 3626,24424 3578,24533 3503,24641 3427,24749 3328,24852 3213,24941 3099,25030 2974,25101 2851,25148 2728,25194 2611,25214 2512,25205 2413,25196 2336,25159 2288,25097 2240,25036 2223,24952 2239,24854 2254,24756 2302,24647 2377,24539 2453,24431 2552,24328 2667,24239 L 2667,24239 Z"/>
     <path fill="none" stroke="rgb(52,101,164)" d="M 2667,24239 C 2781,24150 2906,24079 3029,24032 3152,23986 3269,23966 3368,23975 3467,23984 3544,24021 3592,24083 3640,24144 3657,24228 3641,24326 3626,24424 3578,24533 3503,24641 3427,24749 3328,24852 3213,24941 3099,25030 2974,25101 2851,25148 2728,25194 2611,25214 2512,25205 2413,25196 2336,25159 2288,25097 2240,25036 2223,24952 2239,24854 2254,24756 2302,24647 2377,24539 2453,24431 2552,24328 2667,24239 Z"/>
    </g>
   </g>
   <g class="com.sun.star.drawing.CustomShape">
    <g id="id10">
     <rect class="BoundingBox" stroke="none" fill="none" x="2232" y="25308" width="1417" height="1237"/>
     <path fill="rgb(180,199,220)" stroke="none" d="M 2667,26277 C 2781,26366 2906,26437 3029,26484 3152,26530 3269,26550 3368,26541 3467,26532 3544,26495 3592,26433 3640,26372 3657,26288 3641,26190 3626,26092 3578,25983 3503,25875 3427,25767 3328,25664 3213,25575 3099,25486 2974,25415 2851,25368 2728,25322 2611,25302 2512,25311 2413,25320 2336,25357 2288,25419 2240,25480 2223,25564 2239,25662 2254,25760 2302,25869 2377,25977 2453,26085 2552,26188 2667,26277 L 2667,26277 Z"/>
     <path fill="none" stroke="rgb(52,101,164)" d="M 2667,26277 C 2781,26366 2906,26437 3029,26484 3152,26530 3269,26550 3368,26541 3467,26532 3544,26495 3592,26433 3640,26372 3657,26288 3641,26190 3626,26092 3578,25983 3503,25875 3427,25767 3328,25664 3213,25575 3099,25486 2974,25415 2851,25368 2728,25322 2611,25302 2512,25311 2413,25320 2336,25357 2288,25419 2240,25480 2223,25564 2239,25662 2254,25760 2302,25869 2377,25977 2453,26085 2552,26188 2667,26277 Z"/>
    </g>
   </g>
   <g class="com.sun.star.drawing.CustomShape">
    <g id="id11">
     <rect class="BoundingBox" stroke="none" fill="none" x="1380" y="25321" width="512" height="512"/>
     <path fill="rgb(255,255,255)" stroke="none" d="M 1636,25322 C 1680,25322 1724,25334 1763,25356 1801,25378 1834,25411 1856,25449 1878,25488 1890,25532 1890,25576 1890,25621 1878,25665 1856,25704 1834,25742 1801,25775 1763,25797 1724,25819 1680,25831 1636,25831 1591,25831 1547,25819 1508,25797 1470,25775 1437,25742 1415,25704 1393,25665 1381,25621 1381,25576 1381,25532 1393,25488 1415,25449 1437,25411 1470,25378 1508,25356 1547,25334 1591,25322 1636,25322 L 1636,25322 Z"/>
     <path fill="none" stroke="rgb(0,0,0)" d="M 1636,25322 C 1680,25322 1724,25334 1763,25356 1801,25378 1834,25411 1856,25449 1878,25488 1890,25532 1890,25576 1890,25621 1878,25665 1856,25704 1834,25742 1801,25775 1763,25797 1724,25819 1680,25831 1636,25831 1591,25831 1547,25819 1508,25797 1470,25775 1437,25742 1415,25704 1393,25665 1381,25621 1381,25576 1381,25532 1393,25488 1415,25449 1437,25411 1470,25378 1508,25356 1547,25334 1591,25322 1636,25322 Z"/>
    </g>
   </g>
   <g class="com.sun.star.drawing.CustomShape">
    <g id="id12">
     <rect class="BoundingBox" stroke="none" fill="none" x="1379" y="25489" width="173" height="174"/>
     <path fill="rgb(0,0,0)" stroke="none" d="M 1465,25490 C 1480,25490 1495,25494 1508,25501 1520,25509 1531,25520 1539,25533 1546,25546 1550,25560 1550,25576 1550,25591 1546,25605 1539,25618 1531,25631 1520,25642 1508,25650 1495,25657 1480,25661 1465,25661 1450,25661 1435,25657 1423,25650 1410,25642 1399,25631 1391,25618 1384,25605 1380,25591 1380,25576 1380,25560 1384,25546 1391,25533 1399,25520 1410,25509 1423,25501 1435,25494 1450,25490 1465,25490 L 1465,25490 Z"/>
     <path fill="none" stroke="rgb(0,0,0)" d="M 1465,25490 C 1480,25490 1495,25494 1508,25501 1520,25509 1531,25520 1539,25533 1546,25546 1550,25560 1550,25576 1550,25591 1546,25605 1539,25618 1531,25631 1520,25642 1508,25650 1495,25657 1480,25661 1465,25661 1450,25661 1435,25657 1423,25650 1410,25642 1399,25631 1391,25618 1384,25605 1380,25591 1380,25576 1380,25560 1384,25546 1391,25533 1399,25520 1410,25509 1423,25501 1435,25494 1450,25490 1465,25490 Z"/>
    </g>
   </g>
   <g class="com.sun.star.drawing.CustomShape">
    <g id="id13">
     <rect class="BoundingBox" stroke="none" fill="none" x="1380" y="24685" width="512" height="512"/>
     <path fill="rgb(255,255,255)" stroke="none" d="M 1636,24686 C 1680,24686 1724,24698 1763,24720 1801,24742 1834,24775 1856,24813 1878,24852 1890,24896 1890,24941 1890,24985 1878,25029 1856,25068 1834,25106 1801,25139 1763,25161 1724,25183 1680,25195 1636,25195 1591,25195 1547,25183 1508,25161 1470,25139 1437,25106 1415,25068 1393,25029 1381,24985 1381,24941 1381,24896 1393,24852 1415,24813 1437,24775 1470,24742 1508,24720 1547,24698 1591,24686 1636,24686 L 1636,24686 Z"/>
     <path fill="none" stroke="rgb(0,0,0)" d="M 1636,24686 C 1680,24686 1724,24698 1763,24720 1801,24742 1834,24775 1856,24813 1878,24852 1890,24896 1890,24941 1890,24985 1878,25029 1856,25068 1834,25106 1801,25139 1763,25161 1724,25183 1680,25195 1636,25195 1591,25195 1547,25183 1508,25161 1470,25139 1437,25106 1415,25068 1393,25029 1381,24985 1381,24941 1381,24896 1393,24852 1415,24813 1437,24775 1470,24742 1508,24720 1547,24698 1591,24686 1636,24686 Z"/>
    </g>
   </g>
   <g class="com.sun.star.drawing.CustomShape">
    <g id="id14">
     <rect class="BoundingBox" stroke="none" fill="none" x="1379" y="24854" width="173" height="174"/>
     <path fill="rgb(0,0,0)" stroke="none" d="M 1465,24855 C 1480,24855 1495,24859 1508,24866 1520,24874 1531,24885 1539,24898 1546,24911 1550,24925 1550,24941 1550,24956 1546,24970 1539,24983 1531,24996 1520,25007 1508,25015 1495,25022 1480,25026 1465,25026 1450,25026 1435,25022 1423,25015 1410,25007 1399,24996 1391,24983 1384,24970 1380,24956 1380,24941 1380,24925 1384,24911 1391,24898 1399,24885 1410,24874 1423,24866 1435,24859 1450,24855 1465,24855 L 1465,24855 Z"/>
     <path fill="none" stroke="rgb(0,0,0)" d="M 1465,24855 C 1480,24855 1495,24859 1508,24866 1520,24874 1531,24885 1539,24898 1546,24911 1550,24925 1550,24941 1550,24956 1546,24970 1539,24983 1531,24996 1520,25007 1508,25015 1495,25022 1480,25026 1465,25026 1450,25026 1435,25022 1423,25015 1410,25007 1399,24996 1391,24983 1384,24970 1380,24956 1380,24941 1380,24925 1384,24911 1391,24898 1399,24885 1410,24874 1423,24866 1435,24859 1450,24855 1465,24855 Z"/>
    </g>
   </g>
  </g>
 </g>
</svg>