<?xml version="1.0" encoding="UTF-8"?>
<!DOCTYPE svg PUBLIC "-//W3C//DTD SVG 1.1//EN" "http://www.w3.org/Graphics/SVG/1.1/DTD/svg11.dtd">
<svg version="1.2" width="28.15mm" height="25.72mm" viewBox="5172 24097 2815 2572" preserveAspectRatio="xMidYMid" fill-rule="evenodd" stroke-width="28.222" stroke-linejoin="round" xmlns="http://www.w3.org/2000/svg" xmlns:ooo="http://xml.openoffice.org/svg/export" xmlns:xlink="http://www.w3.org/1999/xlink" xmlns:presentation="http://sun.com/xmlns/staroffice/presentation" xmlns:smil="http://www.w3.org/2001/SMIL20/" xmlns:anim="urn:oasis:names:tc:opendocument:xmlns:animation:1.0" xml:space="preserve">
 <defs class="EmbeddedBulletChars">
  <g id="bullet-char-template-57356" transform="scale(0.00048828125,-0.00048828125)">
   <path d="M 580,1141 L 1163,571 580,0 -4,571 580,1141 Z"/>
  </g>
  <g id="bullet-char-template-57354" transform="scale(0.00048828125,-0.00048828125)">
   <path d="M 8,1128 L 1137,1128 1137,0 8,0 8,1128 Z"/>
  </g>
  <g id="bullet-char-template-10146" transform="scale(0.00048828125,-0.00048828125)">
   <path d="M 174,0 L 602,739 174,1481 1456,739 174,0 Z M 1358,739 L 309,1346 659,739 1358,739 Z"/>
  </g>
  <g id="bullet-char-template-10132" transform="scale(0.00048828125,-0.00048828125)">
   <path d="M 2015,739 L 1276,0 717,0 1260,543 174,543 174,936 1260,936 717,1481 1274,1481 2015,739 Z"/>
  </g>
  <g id="bullet-char-template-10007" transform="scale(0.00048828125,-0.00048828125)">
   <path d="M 0,-2 C -7,14 -16,27 -25,37 L 356,567 C 262,823 215,952 215,954 215,979 228,992 255,992 264,992 276,990 289,987 310,991 331,999 354,1012 L 381,999 492,748 772,1049 836,1024 860,1049 C 881,1039 901,1025 922,1006 886,937 835,863 770,784 769,783 710,716 594,584 L 774,223 C 774,196 753,168 711,139 L 727,119 C 717,90 699,76 672,76 641,76 570,178 457,381 L 164,-76 C 142,-110 111,-127 72,-127 30,-127 9,-110 8,-76 1,-67 -2,-52 -2,-32 -2,-23 -1,-13 0,-2 Z"/>
  </g>
  <g id="bullet-char-template-10004" transform="scale(0.00048828125,-0.00048828125)">
   <path d="M 285,-33 C 182,-33 111,30 74,156 52,228 41,333 41,471 41,549 55,616 82,672 116,743 169,778 240,778 293,778 328,747 346,684 L 369,508 C 377,444 397,411 428,410 L 1163,1116 C 1174,1127 1196,1133 1229,1133 1271,1133 1292,1118 1292,1087 L 1292,965 C 1292,929 1282,901 1262,881 L 442,47 C 390,-6 338,-33 285,-33 Z"/>
  </g>
  <g id="bullet-char-template-9679" transform="scale(0.00048828125,-0.00048828125)">
   <path d="M 813,0 C 632,0 489,54 383,161 276,268 223,411 223,592 223,773 276,916 383,1023 489,1130 632,1184 813,1184 992,1184 1136,1130 1245,1023 1353,916 1407,772 1407,592 1407,412 1353,268 1245,161 1136,54 992,0 813,0 Z"/>
  </g>
  <g id="bullet-char-template-8226" transform="scale(0.00048828125,-0.00048828125)">
   <path d="M 346,457 C 273,457 209,483 155,535 101,586 74,649 74,723 74,796 101,859 155,911 209,963 273,989 346,989 419,989 480,963 531,910 582,859 608,796 608,723 608,648 583,586 532,535 482,483 420,457 346,457 Z"/>
  </g>
  <g id="bullet-char-template-8211" transform="scale(0.00048828125,-0.00048828125)">
   <path d="M -4,459 L 1135,459 1135,606 -4,606 -4,459 Z"/>
  </g>
  <g id="bullet-char-template-61548" transform="scale(0.00048828125,-0.00048828125)">
   <path d="M 173,740 C 173,903 231,1043 346,1159 462,1274 601,1332 765,1332 928,1332 1067,1274 1183,1159 1299,1043 1357,903 1357,740 1357,577 1299,437 1183,322 1067,206 928,148 765,148 601,148 462,206 346,322 231,437 173,577 173,740 Z"/>
  </g>
 </defs>
 <g class="Page">
  <g class="Group">
   <g class="com.sun.star.drawing.CustomShape">
    <g id="id3">
     <rect class="BoundingBox" stroke="none" fill="none" x="5172" y="24539" width="2578" height="1689"/>
     <path fill="rgb(255,255,109)" stroke="none" d="M 6461,24557 C 6237,24557 6018,24595 5825,24668 5632,24740 5472,24844 5360,24970 5249,25096 5190,25238 5190,25383 5190,25528 5249,25670 5360,25796 5472,25922 5632,26026 5825,26098 6018,26171 6237,26209 6461,26209 6684,26209 6903,26171 7096,26098 7289,26026 7449,25922 7561,25796 7672,25670 7731,25528 7731,25383 7731,25238 7672,25096 7561,24970 7449,24844 7289,24740 7096,24668 6903,24595 6684,24557 6461,24557 L 6461,24557 Z"/>
     <path fill="none" stroke="rgb(0,0,0)" stroke-width="35" stroke-linejoin="round" d="M 6461,24557 C 6237,24557 6018,24595 5825,24668 5632,24740 5472,24844 5360,24970 5249,25096 5190,25238 5190,25383 5190,25528 5249,25670 5360,25796 5472,25922 5632,26026 5825,26098 6018,26171 6237,26209 6461,26209 6684,26209 6903,26171 7096,26098 7289,26026 7449,25922 7561,25796 7672,25670 7731,25528 7731,25383 7731,25238 7672,25096 7561,24970 7449,24844 7289,24740 7096,24668 6903,24595 6684,24557 6461,24557 Z"/>
    </g>
   </g>
   <g class="com.sun.star.drawing.PolyPolygonShape">
    <g id="id4">
     <rect class="BoundingBox" stroke="none" fill="none" x="7134" y="24682" width="206" height="1401"/>
     <path fill="rgb(0,0,0)" stroke="none" d="M 7147,26081 L 7338,26000 7328,24788 7135,24683 7147,26081 Z"/>
     <path fill="none" stroke="rgb(0,0,0)" d="M 7147,26081 L 7338,26000 7328,24788 7135,24683 7147,26081 Z"/>
    </g>
   </g>
   <g class="com.sun.star.drawing.PolyPolygonShape">
    <g id="id5">
     <rect class="BoundingBox" stroke="none" fill="none" x="6714" y="26208" width="3" height="3"/>
     <path fill="rgb(0,0,0)" stroke="none" d="M 6715,26209 L 6715,26209 6715,26209 6715,26209 6715,26209 Z"/>
     <path fill="none" stroke="rgb(0,0,0)" d="M 6715,26209 L 6715,26209 6715,26209 6715,26209 6715,26209 Z"/>
    </g>
   </g>
   <g class="com.sun.star.drawing.PolyPolygonShape">
    <g id="id6">
     <rect class="BoundingBox" stroke="none" fill="none" x="5571" y="24684" width="194" height="1400"/>
     <path fill="rgb(0,0,0)" stroke="none" d="M 5762,26082 L 5572,25983 5572,24773 5763,24685 5762,26082 Z"/>
     <path fill="none" stroke="rgb(0,0,0)" d="M 5762,26082 L 5572,25983 5572,24773 5763,24685 5762,26082 Z"/>
    </g>
   </g>
   <g class="com.sun.star.drawing.PolyPolygonShape">
    <g id="id7">
     <rect class="BoundingBox" stroke="none" fill="none" x="6587" y="24684" width="206" height="1401"/>
     <path fill="rgb(0,0,0)" stroke="none" d="M 6600,26083 L 6791,26002 6781,24790 6588,24685 6600,26083 Z"/>
     <path fill="none" stroke="rgb(0,0,0)" d="M 6600,26083 L 6791,26002 6781,24790 6588,24685 6600,26083 Z"/>
    </g>
   </g>
   <g class="com.sun.star.drawing.PolyPolygonShape">
    <g id="id8">
     <rect class="BoundingBox" stroke="none" fill="none" x="6079" y="24683" width="206" height="1401"/>
     <path fill="rgb(0,0,0)" stroke="none" d="M 6092,26082 L 6283,26001 6273,24789 6080,24684 6092,26082 Z"/>
     <path fill="none" stroke="rgb(0,0,0)" d="M 6092,26082 L 6283,26001 6273,24789 6080,24684 6092,26082 Z"/>
    </g>
   </g>
   <g class="com.sun.star.drawing.CustomShape">
    <g id="id9">
     <rect class="BoundingBox" stroke="none" fill="none" x="5717" y="24097" width="1417" height="1237"/>
     <path fill="rgb(180,199,220)" stroke="none" d="M 6698,24364 C 6584,24275 6459,24204 6336,24157 6213,24111 6096,24091 5997,24100 5898,24109 5821,24146 5773,24208 5725,24269 5708,24353 5724,24451 5739,24549 5787,24658 5862,24766 5938,24874 6037,24977 6152,25066 6266,25155 6391,25226 6514,25273 6637,25319 6754,25339 6853,25330 6952,25321 7029,25284 7077,25222 7125,25161 7142,25077 7126,24979 7111,24881 7063,24772 6988,24664 6912,24556 6813,24453 6698,24364 L 6698,24364 Z"/>
     <path fill="none" stroke="rgb(52,101,164)" d="M 6698,24364 C 6584,24275 6459,24204 6336,24157 6213,24111 6096,24091 5997,24100 5898,24109 5821,24146 5773,24208 5725,24269 5708,24353 5724,24451 5739,24549 5787,24658 5862,24766 5938,24874 6037,24977 6152,25066 6266,25155 6391,25226 6514,25273 6637,25319 6754,25339 6853,25330 6952,25321 7029,25284 7077,25222 7125,25161 7142,25077 7126,24979 7111,24881 7063,24772 6988,24664 6912,24556 6813,24453 6698,24364 Z"/>
    </g>
   </g>
   <g class="com.sun.star.drawing.CustomShape">
    <g id="id10">
     <rect class="BoundingBox" stroke="none" fill="none" x="5717" y="25432" width="1417" height="1237"/>
     <path fill="rgb(180,199,220)" stroke="none" d="M 6698,26401 C 6584,26490 6459,26561 6336,26608 6213,26654 6096,26674 5997,26665 5898,26656 5821,26619 5773,26557 5725,26496 5708,26412 5724,26314 5739,26216 5787,26107 5862,25999 5938,25891 6037,25788 6152,25699 6266,25610 6391,25539 6514,25492 6637,25446 6754,25426 6853,25435 6952,25444 7029,25481 7077,25543 7125,25604 7142,25688 7126,25786 7111,25884 7063,25993 6988,26101 6912,26209 6813,26312 6698,26401 L 6698,26401 Z"/>
     <path fill="none" stroke="rgb(52,101,164)" d="M 6698,26401 C 6584,26490 6459,26561 6336,26608 6213,26654 6096,26674 5997,26665 5898,26656 5821,26619 5773,26557 5725,26496 5708,26412 5724,26314 5739,26216 5787,26107 5862,25999 5938,25891 6037,25788 6152,25699 6266,25610 6391,25539 6514,25492 6637,25446 6754,25426 6853,25435 6952,25444 7029,25481 7077,25543 7125,25604 7142,25688 7126,25786 7111,25884 7063,25993 6988,26101 6912,26209 6813,26312 6698,26401 Z"/>
    </g>
   </g>
   <g class="com.sun.star.drawing.CustomShape">
    <g id="id11">
     <rect class="BoundingBox" stroke="none" fill="none" x="7475" y="25446" width="512" height="512"/>
     <path fill="rgb(255,255,255)" stroke="none" d="M 7731,25447 C 7686,25447 7642,25459 7603,25481 7565,25503 7532,25536 7510,25574 7488,25613 7476,25657 7476,25702 7476,25746 7488,25790 7510,25829 7532,25867 7565,25900 7603,25922 7642,25944 7686,25956 7731,25956 7775,25956 7819,25944 7858,25922 7896,25900 7929,25867 7951,25829 7973,25790 7985,25746 7985,25702 7985,25657 7973,25613 7951,25574 7929,25536 7896,25503 7858,25481 7819,25459 7775,25447 7731,25447 L 7731,25447 Z"/>
     <path fill="none" stroke="rgb(0,0,0)" d="M 7731,25447 C 7686,25447 7642,25459 7603,25481 7565,25503 7532,25536 7510,25574 7488,25613 7476,25657 7476,25702 7476,25746 7488,25790 7510,25829 7532,25867 7565,25900 7603,25922 7642,25944 7686,25956 7731,25956 7775,25956 7819,25944 7858,25922 7896,25900 7929,25867 7951,25829 7973,25790 7985,25746 7985,25702 7985,25657 7973,25613 7951,25574 7929,25536 7896,25503 7858,25481 7819,25459 7775,25447 7731,25447 Z"/>
    </g>
   </g>
   <g class="com.sun.star.drawing.CustomShape">
    <g id="id12">
     <rect class="BoundingBox" stroke="none" fill="none" x="7814" y="25614" width="173" height="174"/>
     <path fill="rgb(0,0,0)" stroke="none" d="M 7900,25615 C 7885,25615 7870,25619 7858,25626 7845,25634 7834,25645 7826,25658 7819,25671 7815,25685 7815,25701 7815,25716 7819,25730 7826,25743 7834,25756 7845,25767 7858,25775 7870,25782 7885,25786 7900,25786 7915,25786 7930,25782 7943,25775 7955,25767 7966,25756 7974,25743 7981,25730 7985,25716 7985,25701 7985,25685 7981,25671 7974,25658 7966,25645 7955,25634 7943,25626 7930,25619 7915,25615 7900,25615 L 7900,25615 Z"/>
     <path fill="none" stroke="rgb(0,0,0)" d="M 7900,25615 C 7885,25615 7870,25619 7858,25626 7845,25634 7834,25645 7826,25658 7819,25671 7815,25685 7815,25701 7815,25716 7819,25730 7826,25743 7834,25756 7845,25767 7858,25775 7870,25782 7885,25786 7900,25786 7915,25786 7930,25782 7943,25775 7955,25767 7966,25756 7974,25743 7981,25730 7985,25716 7985,25701 7985,25685 7981,25671 7974,25658 7966,25645 7955,25634 7943,25626 7930,25619 7915,25615 7900,25615 Z"/>
    </g>
   </g>
   <g class="com.sun.star.drawing.CustomShape">
    <g id="id13">
     <rect class="BoundingBox" stroke="none" fill="none" x="7475" y="24810" width="512" height="512"/>
     <path fill="rgb(255,255,255)" stroke="none" d="M 7731,24811 C 7686,24811 7642,24823 7603,24845 7565,24867 7532,24900 7510,24938 7488,24977 7476,25021 7476,25065 7476,25110 7488,25154 7510,25193 7532,25231 7565,25264 7603,25286 7642,25308 7686,25320 7731,25320 7775,25320 7819,25308 7858,25286 7896,25264 7929,25231 7951,25193 7973,25154 7985,25110 7985,25065 7985,25021 7973,24977 7951,24938 7929,24900 7896,24867 7858,24845 7819,24823 7775,24811 7731,24811 L 7731,24811 Z"/>
     <path fill="none" stroke="rgb(0,0,0)" d="M 7731,24811 C 7686,24811 7642,24823 7603,24845 7565,24867 7532,24900 7510,24938 7488,24977 7476,25021 7476,25065 7476,25110 7488,25154 7510,25193 7532,25231 7565,25264 7603,25286 7642,25308 7686,25320 7731,25320 7775,25320 7819,25308 7858,25286 7896,25264 7929,25231 7951,25193 7973,25154 7985,25110 7985,25065 7985,25021 7973,24977 7951,24938 7929,24900 7896,24867 7858,24845 7819,24823 7775,24811 7731,24811 Z"/>
    </g>
   </g>
   <g class="com.sun.star.drawing.CustomShape">
    <g id="id14">
     <rect class="BoundingBox" stroke="none" fill="none" x="7814" y="24979" width="173" height="174"/>
     <path fill="rgb(0,0,0)" stroke="none" d="M 7900,24980 C 7885,24980 7870,24984 7858,24991 7845,24999 7834,25010 7826,25023 7819,25036 7815,25050 7815,25065 7815,25081 7819,25095 7826,25108 7834,25121 7845,25132 7858,25140 7870,25147 7885,25151 7900,25151 7915,25151 7930,25147 7943,25140 7955,25132 7966,25121 7974,25108 7981,25095 7985,25081 7985,25065 7985,25050 7981,25036 7974,25023 7966,25010 7955,24999 7943,24991 7930,24984 7915,24980 7900,24980 L 7900,24980 Z"/>
     <path fill="none" stroke="rgb(0,0,0)" d="M 7900,24980 C 7885,24980 7870,24984 7858,24991 7845,24999 7834,25010 7826,25023 7819,25036 7815,25050 7815,25065 7815,25081 7819,25095 7826,25108 7834,25121 7845,25132 7858,25140 7870,25147 7885,25151 7900,25151 7915,25151 7930,25147 7943,25140 7955,25132 7966,25121 7974,25108 7981,25095 7985,25081 7985,25065 7985,25050 7981,25036 7974,25023 7966,25010 7955,24999 7943,24991 7930,24984 7915,24980 7900,24980 Z"/>
    </g>
   </g>
  </g>
 </g>
</svg>