<?xml version="1.0" encoding="UTF-8"?>
<!DOCTYPE svg PUBLIC "-//W3C//DTD SVG 1.1//EN" "http://www.w3.org/Graphics/SVG/1.1/DTD/svg11.dtd">
<svg version="1.2" width="25.71mm" height="28.16mm" viewBox="1367 20556 2571 2816" preserveAspectRatio="xMidYMid" fill-rule="evenodd" stroke-width="28.222" stroke-linejoin="round" xmlns="http://www.w3.org/2000/svg" xmlns:ooo="http://xml.openoffice.org/svg/export" xmlns:xlink="http://www.w3.org/1999/xlink" xmlns:presentation="http://sun.com/xmlns/staroffice/presentation" xmlns:smil="http://www.w3.org/2001/SMIL20/" xmlns:anim="urn:oasis:names:tc:opendocument:xmlns:animation:1.0" xml:space="preserve">
 <defs class="EmbeddedBulletChars">
  <g id="bullet-char-template-57356" transform="scale(0.00048828125,-0.00048828125)">
   <path d="M 580,1141 L 1163,571 580,0 -4,571 580,1141 Z"/>
  </g>
  <g id="bullet-char-template-57354" transform="scale(0.00048828125,-0.00048828125)">
   <path d="M 8,1128 L 1137,1128 1137,0 8,0 8,1128 Z"/>
  </g>
  <g id="bullet-char-template-10146" transform="scale(0.00048828125,-0.00048828125)">
   <path d="M 174,0 L 602,739 174,1481 1456,739 174,0 Z M 1358,739 L 309,1346 659,739 1358,739 Z"/>
  </g>
  <g id="bullet-char-template-10132" transform="scale(0.00048828125,-0.00048828125)">
   <path d="M 2015,739 L 1276,0 717,0 1260,543 174,543 174,936 1260,936 717,1481 1274,1481 2015,739 Z"/>
  </g>
  <g id="bullet-char-template-10007" transform="scale(0.00048828125,-0.00048828125)">
   <path d="M 0,-2 C -7,14 -16,27 -25,37 L 356,567 C 262,823 215,952 215,954 215,979 228,992 255,992 264,992 276,990 289,987 310,991 331,999 354,1012 L 381,999 492,748 772,1049 836,1024 860,1049 C 881,1039 901,1025 922,1006 886,937 835,863 770,784 769,783 710,716 594,584 L 774,223 C 774,196 753,168 711,139 L 727,119 C 717,90 699,76 672,76 641,76 570,178 457,381 L 164,-76 C 142,-110 111,-127 72,-127 30,-127 9,-110 8,-76 1,-67 -2,-52 -2,-32 -2,-23 -1,-13 0,-2 Z"/>
  </g>
  <g id="bullet-char-template-10004" transform="scale(0.00048828125,-0.00048828125)">
   <path d="M 285,-33 C 182,-33 111,30 74,156 52,228 41,333 41,471 41,549 55,616 82,672 116,743 169,778 240,778 293,778 328,747 346,684 L 369,508 C 377,444 397,411 428,410 L 1163,1116 C 1174,1127 1196,1133 1229,1133 1271,1133 1292,1118 1292,1087 L 1292,965 C 1292,929 1282,901 1262,881 L 442,47 C 390,-6 338,-33 285,-33 Z"/>
  </g>
  <g id="bullet-char-template-9679" transform="scale(0.00048828125,-0.00048828125)">
   <path d="M 813,0 C 632,0 489,54 383,161 276,268 223,411 223,592 223,773 276,916 383,1023 489,1130 632,1184 813,1184 992,1184 1136,1130 1245,1023 1353,916 1407,772 1407,592 1407,412 1353,268 1245,161 1136,54 992,0 813,0 Z"/>
  </g>
  <g id="bullet-char-template-8226" transform="scale(0.00048828125,-0.00048828125)">
   <path d="M 346,457 C 273,457 209,483 155,535 101,586 74,649 74,723 74,796 101,859 155,911 209,963 273,989 346,989 419,989 480,963 531,910 582,859 608,796 608,723 608,648 583,586 532,535 482,483 420,457 346,457 Z"/>
  </g>
  <g id="bullet-char-template-8211" transform="scale(0.00048828125,-0.00048828125)">
   <path d="M -4,459 L 1135,459 1135,606 -4,606 -4,459 Z"/>
  </g>
  <g id="bullet-char-template-61548" transform="scale(0.00048828125,-0.00048828125)">
   <path d="M 173,740 C 173,903 231,1043 346,1159 462,1274 601,1332 765,1332 928,1332 1067,1274 1183,1159 1299,1043 1357,903 1357,740 1357,577 1299,437 1183,322 1067,206 928,148 765,148 601,148 462,206 346,322 231,437 173,577 173,740 Z"/>
  </g>
 </defs>
 <g class="Page">
  <g class="Group">
   <g class="com.sun.star.drawing.CustomShape">
    <g id="id3">
     <rect class="BoundingBox" stroke="none" fill="none" x="1808" y="20794" width="1689" height="2578"/>
     <path fill="rgb(255,255,109)" stroke="none" d="M 3478,22083 C 3478,22306 3440,22525 3367,22718 3295,22911 3191,23071 3065,23183 2939,23294 2797,23353 2652,23353 2507,23353 2365,23294 2239,23183 2113,23071 2009,22911 1937,22718 1864,22525 1826,22306 1826,22083 1826,21859 1864,21640 1937,21447 2009,21254 2113,21094 2239,20982 2365,20871 2507,20812 2652,20812 2797,20812 2939,20871 3065,20982 3191,21094 3295,21254 3367,21447 3440,21640 3478,21859 3478,22083 L 3478,22083 Z"/>
     <path fill="none" stroke="rgb(0,0,0)" stroke-width="35" stroke-linejoin="round" d="M 3478,22083 C 3478,22306 3440,22525 3367,22718 3295,22911 3191,23071 3065,23183 2939,23294 2797,23353 2652,23353 2507,23353 2365,23294 2239,23183 2113,23071 2009,22911 1937,22718 1864,22525 1826,22306 1826,22083 1826,21859 1864,21640 1937,21447 2009,21254 2113,21094 2239,20982 2365,20871 2507,20812 2652,20812 2797,20812 2939,20871 3065,20982 3191,21094 3295,21254 3367,21447 3440,21640 3478,21859 3478,22083 Z"/>
    </g>
   </g>
   <g class="com.sun.star.drawing.PolyPolygonShape">
    <g id="id4">
     <rect class="BoundingBox" stroke="none" fill="none" x="1954" y="21204" width="1401" height="206"/>
     <path fill="rgb(0,0,0)" stroke="none" d="M 1955,21396 L 2036,21205 3248,21215 3353,21408 1955,21396 Z"/>
     <path fill="none" stroke="rgb(0,0,0)" d="M 1955,21396 L 2036,21205 3248,21215 3353,21408 1955,21396 Z"/>
    </g>
   </g>
   <g class="com.sun.star.drawing.PolyPolygonShape">
    <g id="id5">
     <rect class="BoundingBox" stroke="none" fill="none" x="1826" y="21827" width="3" height="3"/>
     <path fill="rgb(0,0,0)" stroke="none" d="M 1827,21828 L 1827,21828 1827,21828 1827,21828 1827,21828 Z"/>
     <path fill="none" stroke="rgb(0,0,0)" d="M 1827,21828 L 1827,21828 1827,21828 1827,21828 1827,21828 Z"/>
    </g>
   </g>
   <g class="com.sun.star.drawing.PolyPolygonShape">
    <g id="id6">
     <rect class="BoundingBox" stroke="none" fill="none" x="1953" y="22779" width="1400" height="194"/>
     <path fill="rgb(0,0,0)" stroke="none" d="M 1954,22781 L 2053,22971 3263,22971 3351,22780 1954,22781 Z"/>
     <path fill="none" stroke="rgb(0,0,0)" d="M 1954,22781 L 2053,22971 3263,22971 3351,22780 1954,22781 Z"/>
    </g>
   </g>
   <g class="com.sun.star.drawing.PolyPolygonShape">
    <g id="id7">
     <rect class="BoundingBox" stroke="none" fill="none" x="1952" y="21751" width="1401" height="206"/>
     <path fill="rgb(0,0,0)" stroke="none" d="M 1953,21943 L 2034,21752 3246,21762 3351,21955 1953,21943 Z"/>
     <path fill="none" stroke="rgb(0,0,0)" d="M 1953,21943 L 2034,21752 3246,21762 3351,21955 1953,21943 Z"/>
    </g>
   </g>
   <g class="com.sun.star.drawing.PolyPolygonShape">
    <g id="id8">
     <rect class="BoundingBox" stroke="none" fill="none" x="1953" y="22259" width="1401" height="206"/>
     <path fill="rgb(0,0,0)" stroke="none" d="M 1954,22451 L 2035,22260 3247,22270 3352,22463 1954,22451 Z"/>
     <path fill="none" stroke="rgb(0,0,0)" d="M 1954,22451 L 2035,22260 3247,22270 3352,22463 1954,22451 Z"/>
    </g>
   </g>
   <g class="com.sun.star.drawing.CustomShape">
    <g id="id9">
     <rect class="BoundingBox" stroke="none" fill="none" x="2701" y="21409" width="1237" height="1417"/>
     <path fill="rgb(180,199,220)" stroke="none" d="M 3670,21844 C 3759,21958 3831,22083 3877,22206 3923,22330 3943,22446 3934,22545 3925,22644 3888,22721 3826,22769 3764,22817 3680,22834 3582,22818 3485,22803 3376,22755 3268,22680 3160,22604 3057,22505 2968,22390 2879,22276 2807,22151 2761,22028 2715,21904 2695,21788 2704,21689 2713,21590 2750,21513 2812,21465 2874,21417 2958,21400 3056,21416 3153,21431 3262,21479 3370,21554 3478,21630 3581,21729 3670,21844 L 3670,21844 Z"/>
     <path fill="none" stroke="rgb(52,101,164)" d="M 3670,21844 C 3759,21958 3831,22083 3877,22206 3923,22330 3943,22446 3934,22545 3925,22644 3888,22721 3826,22769 3764,22817 3680,22834 3582,22818 3485,22803 3376,22755 3268,22680 3160,22604 3057,22505 2968,22390 2879,22276 2807,22151 2761,22028 2715,21904 2695,21788 2704,21689 2713,21590 2750,21513 2812,21465 2874,21417 2958,21400 3056,21416 3153,21431 3262,21479 3370,21554 3478,21630 3581,21729 3670,21844 Z"/>
    </g>
   </g>
   <g class="com.sun.star.drawing.CustomShape">
    <g id="id10">
     <rect class="BoundingBox" stroke="none" fill="none" x="1367" y="21409" width="1237" height="1417"/>
     <path fill="rgb(180,199,220)" stroke="none" d="M 1634,21844 C 1545,21958 1473,22083 1427,22206 1381,22330 1361,22446 1370,22545 1379,22644 1416,22721 1478,22769 1540,22817 1624,22834 1722,22818 1819,22803 1928,22755 2036,22680 2144,22604 2247,22505 2336,22390 2425,22276 2497,22151 2543,22028 2589,21904 2609,21788 2600,21689 2591,21590 2554,21513 2492,21465 2430,21417 2346,21400 2248,21416 2151,21431 2042,21479 1934,21554 1826,21630 1723,21729 1634,21844 L 1634,21844 Z"/>
     <path fill="none" stroke="rgb(52,101,164)" d="M 1634,21844 C 1545,21958 1473,22083 1427,22206 1381,22330 1361,22446 1370,22545 1379,22644 1416,22721 1478,22769 1540,22817 1624,22834 1722,22818 1819,22803 1928,22755 2036,22680 2144,22604 2247,22505 2336,22390 2425,22276 2497,22151 2543,22028 2589,21904 2609,21788 2600,21689 2591,21590 2554,21513 2492,21465 2430,21417 2346,21400 2248,21416 2151,21431 2042,21479 1934,21554 1826,21630 1723,21729 1634,21844 Z"/>
    </g>
   </g>
   <g class="com.sun.star.drawing.CustomShape">
    <g id="id11">
     <rect class="BoundingBox" stroke="none" fill="none" x="2080" y="20557" width="512" height="512"/>
     <path fill="rgb(255,255,255)" stroke="none" d="M 2590,20813 C 2590,20857 2578,20901 2556,20940 2534,20978 2501,21011 2463,21033 2424,21055 2380,21067 2336,21067 2291,21067 2247,21055 2208,21033 2170,21011 2137,20978 2115,20940 2093,20901 2081,20857 2081,20813 2081,20768 2093,20724 2115,20685 2137,20647 2170,20614 2208,20592 2247,20570 2291,20558 2336,20558 2380,20558 2424,20570 2463,20592 2501,20614 2534,20647 2556,20685 2578,20724 2590,20768 2590,20813 L 2590,20813 Z"/>
     <path fill="none" stroke="rgb(0,0,0)" d="M 2590,20813 C 2590,20857 2578,20901 2556,20940 2534,20978 2501,21011 2463,21033 2424,21055 2380,21067 2336,21067 2291,21067 2247,21055 2208,21033 2170,21011 2137,20978 2115,20940 2093,20901 2081,20857 2081,20813 2081,20768 2093,20724 2115,20685 2137,20647 2170,20614 2208,20592 2247,20570 2291,20558 2336,20558 2380,20558 2424,20570 2463,20592 2501,20614 2534,20647 2556,20685 2578,20724 2590,20768 2590,20813 Z"/>
    </g>
   </g>
   <g class="com.sun.star.drawing.CustomShape">
    <g id="id12">
     <rect class="BoundingBox" stroke="none" fill="none" x="2249" y="20556" width="174" height="173"/>
     <path fill="rgb(0,0,0)" stroke="none" d="M 2421,20642 C 2421,20657 2417,20672 2410,20685 2402,20697 2391,20708 2378,20716 2365,20723 2351,20727 2336,20727 2320,20727 2306,20723 2293,20716 2280,20708 2269,20697 2261,20685 2254,20672 2250,20657 2250,20642 2250,20627 2254,20612 2261,20600 2269,20587 2280,20576 2293,20568 2306,20561 2320,20557 2336,20557 2351,20557 2365,20561 2378,20568 2391,20576 2402,20587 2410,20600 2417,20612 2421,20627 2421,20642 L 2421,20642 Z"/>
     <path fill="none" stroke="rgb(0,0,0)" d="M 2421,20642 C 2421,20657 2417,20672 2410,20685 2402,20697 2391,20708 2378,20716 2365,20723 2351,20727 2336,20727 2320,20727 2306,20723 2293,20716 2280,20708 2269,20697 2261,20685 2254,20672 2250,20657 2250,20642 2250,20627 2254,20612 2261,20600 2269,20587 2280,20576 2293,20568 2306,20561 2320,20557 2336,20557 2351,20557 2365,20561 2378,20568 2391,20576 2402,20587 2410,20600 2417,20612 2421,20627 2421,20642 Z"/>
    </g>
   </g>
   <g class="com.sun.star.drawing.CustomShape">
    <g id="id13">
     <rect class="BoundingBox" stroke="none" fill="none" x="2715" y="20557" width="512" height="512"/>
     <path fill="rgb(255,255,255)" stroke="none" d="M 3225,20813 C 3225,20857 3213,20901 3191,20940 3169,20978 3136,21011 3098,21033 3059,21055 3015,21067 2971,21067 2926,21067 2882,21055 2843,21033 2805,21011 2772,20978 2750,20940 2728,20901 2716,20857 2716,20813 2716,20768 2728,20724 2750,20685 2772,20647 2805,20614 2843,20592 2882,20570 2926,20558 2971,20558 3015,20558 3059,20570 3098,20592 3136,20614 3169,20647 3191,20685 3213,20724 3225,20768 3225,20813 L 3225,20813 Z"/>
     <path fill="none" stroke="rgb(0,0,0)" d="M 3225,20813 C 3225,20857 3213,20901 3191,20940 3169,20978 3136,21011 3098,21033 3059,21055 3015,21067 2971,21067 2926,21067 2882,21055 2843,21033 2805,21011 2772,20978 2750,20940 2728,20901 2716,20857 2716,20813 2716,20768 2728,20724 2750,20685 2772,20647 2805,20614 2843,20592 2882,20570 2926,20558 2971,20558 3015,20558 3059,20570 3098,20592 3136,20614 3169,20647 3191,20685 3213,20724 3225,20768 3225,20813 Z"/>
    </g>
   </g>
   <g class="com.sun.star.drawing.CustomShape">
    <g id="id14">
     <rect class="BoundingBox" stroke="none" fill="none" x="2884" y="20556" width="174" height="173"/>
     <path fill="rgb(0,0,0)" stroke="none" d="M 3056,20642 C 3056,20657 3052,20672 3045,20685 3037,20697 3026,20708 3013,20716 3000,20723 2986,20727 2971,20727 2955,20727 2941,20723 2928,20716 2915,20708 2904,20697 2896,20685 2889,20672 2885,20657 2885,20642 2885,20627 2889,20612 2896,20600 2904,20587 2915,20576 2928,20568 2941,20561 2955,20557 2971,20557 2986,20557 3000,20561 3013,20568 3026,20576 3037,20587 3045,20600 3052,20612 3056,20627 3056,20642 L 3056,20642 Z"/>
     <path fill="none" stroke="rgb(0,0,0)" d="M 3056,20642 C 3056,20657 3052,20672 3045,20685 3037,20697 3026,20708 3013,20716 3000,20723 2986,20727 2971,20727 2955,20727 2941,20723 2928,20716 2915,20708 2904,20697 2896,20685 2889,20672 2885,20657 2885,20642 2885,20627 2889,20612 2896,20600 2904,20587 2915,20576 2928,20568 2941,20561 2955,20557 2971,20557 2986,20557 3000,20561 3013,20568 3026,20576 3037,20587 3045,20600 3052,20612 3056,20627 3056,20642 Z"/>
    </g>
   </g>
  </g>
 </g>
</svg>