<?xml version="1.0" encoding="UTF-8"?>
<!DOCTYPE svg PUBLIC "-//W3C//DTD SVG 1.1//EN" "http://www.w3.org/Graphics/SVG/1.1/DTD/svg11.dtd">
<svg version="1.2" width="30.47mm" height="37.52mm" viewBox="9599 20556 3047 3752" preserveAspectRatio="xMidYMid" fill-rule="evenodd" stroke-width="28.222" stroke-linejoin="round" xmlns="http://www.w3.org/2000/svg" xmlns:ooo="http://xml.openoffice.org/svg/export" xmlns:xlink="http://www.w3.org/1999/xlink" xmlns:presentation="http://sun.com/xmlns/staroffice/presentation" xmlns:smil="http://www.w3.org/2001/SMIL20/" xmlns:anim="urn:oasis:names:tc:opendocument:xmlns:animation:1.0" xml:space="preserve">
 <defs class="EmbeddedBulletChars">
  <g id="bullet-char-template-57356" transform="scale(0.00048828125,-0.00048828125)">
   <path d="M 580,1141 L 1163,571 580,0 -4,571 580,1141 Z"/>
  </g>
  <g id="bullet-char-template-57354" transform="scale(0.00048828125,-0.00048828125)">
   <path d="M 8,1128 L 1137,1128 1137,0 8,0 8,1128 Z"/>
  </g>
  <g id="bullet-char-template-10146" transform="scale(0.00048828125,-0.00048828125)">
   <path d="M 174,0 L 602,739 174,1481 1456,739 174,0 Z M 1358,739 L 309,1346 659,739 1358,739 Z"/>
  </g>
  <g id="bullet-char-template-10132" transform="scale(0.00048828125,-0.00048828125)">
   <path d="M 2015,739 L 1276,0 717,0 1260,543 174,543 174,936 1260,936 717,1481 1274,1481 2015,739 Z"/>
  </g>
  <g id="bullet-char-template-10007" transform="scale(0.00048828125,-0.00048828125)">
   <path d="M 0,-2 C -7,14 -16,27 -25,37 L 356,567 C 262,823 215,952 215,954 215,979 228,992 255,992 264,992 276,990 289,987 310,991 331,999 354,1012 L 381,999 492,748 772,1049 836,1024 860,1049 C 881,1039 901,1025 922,1006 886,937 835,863 770,784 769,783 710,716 594,584 L 774,223 C 774,196 753,168 711,139 L 727,119 C 717,90 699,76 672,76 641,76 570,178 457,381 L 164,-76 C 142,-110 111,-127 72,-127 30,-127 9,-110 8,-76 1,-67 -2,-52 -2,-32 -2,-23 -1,-13 0,-2 Z"/>
  </g>
  <g id="bullet-char-template-10004" transform="scale(0.00048828125,-0.00048828125)">
   <path d="M 285,-33 C 182,-33 111,30 74,156 52,228 41,333 41,471 41,549 55,616 82,672 116,743 169,778 240,778 293,778 328,747 346,684 L 369,508 C 377,444 397,411 428,410 L 1163,1116 C 1174,1127 1196,1133 1229,1133 1271,1133 1292,1118 1292,1087 L 1292,965 C 1292,929 1282,901 1262,881 L 442,47 C 390,-6 338,-33 285,-33 Z"/>
  </g>
  <g id="bullet-char-template-9679" transform="scale(0.00048828125,-0.00048828125)">
   <path d="M 813,0 C 632,0 489,54 383,161 276,268 223,411 223,592 223,773 276,916 383,1023 489,1130 632,1184 813,1184 992,1184 1136,1130 1245,1023 1353,916 1407,772 1407,592 1407,412 1353,268 1245,161 1136,54 992,0 813,0 Z"/>
  </g>
  <g id="bullet-char-template-8226" transform="scale(0.00048828125,-0.00048828125)">
   <path d="M 346,457 C 273,457 209,483 155,535 101,586 74,649 74,723 74,796 101,859 155,911 209,963 273,989 346,989 419,989 480,963 531,910 582,859 608,796 608,723 608,648 583,586 532,535 482,483 420,457 346,457 Z"/>
  </g>
  <g id="bullet-char-template-8211" transform="scale(0.00048828125,-0.00048828125)">
   <path d="M -4,459 L 1135,459 1135,606 -4,606 -4,459 Z"/>
  </g>
  <g id="bullet-char-template-61548" transform="scale(0.00048828125,-0.00048828125)">
   <path d="M 173,740 C 173,903 231,1043 346,1159 462,1274 601,1332 765,1332 928,1332 1067,1274 1183,1159 1299,1043 1357,903 1357,740 1357,577 1299,437 1183,322 1067,206 928,148 765,148 601,148 462,206 346,322 231,437 173,577 173,740 Z"/>
  </g>
 </defs>
 <g class="Page">
  <g class="Group">
   <g class="com.sun.star.drawing.CustomShape">
    <g id="id3">
     <rect class="BoundingBox" stroke="none" fill="none" x="10198" y="22467" width="1099" height="1757"/>
     <path fill="rgb(18,118,34)" stroke="none" d="M 11295,22468 L 11272,22468 11247,22470 11221,22474 11195,22482 11167,22491 11139,22503 11109,22517 11080,22533 11049,22551 11018,22572 10987,22594 10955,22619 10923,22645 10891,22674 10859,22704 10826,22736 10794,22769 10762,22805 10729,22842 10697,22879 10666,22919 10635,22960 10604,23001 10575,23044 10545,23088 10518,23132 10489,23177 10463,23223 10437,23268 10412,23315 10388,23361 10366,23407 10345,23454 10325,23500 10306,23546 10289,23592 10273,23637 10259,23681 10245,23726 10234,23768 10224,23810 10216,23850 10209,23891 10204,23928 10200,23966 10199,24001 10199,24035 10200,24067 10203,24098 10208,24126 10214,24153 10222,24178 10232,24201 10243,24222 10390,24017 10381,24001 10374,23984 10369,23965 10363,23945 10360,23924 10357,23900 10356,23876 10356,23850 10358,23824 10361,23796 10364,23767 10369,23737 10375,23706 10383,23674 10391,23642 10401,23609 10412,23576 10425,23542 10437,23507 10451,23472 10466,23437 10482,23403 10499,23367 10517,23333 10536,23298 10555,23263 10575,23228 10596,23194 10618,23161 10640,23129 10662,23096 10685,23065 10708,23034 10732,23004 10756,22976 10781,22948 10805,22921 10830,22896 10853,22872 10878,22849 10902,22828 10927,22807 10951,22789 10975,22772 10998,22757 11021,22742 11043,22730 11066,22720 11087,22711 11108,22705 11128,22700 11147,22696 11165,22694 11184,22694 11295,22468 Z"/>
     <path fill="none" stroke="rgb(30,106,57)" d="M 11295,22468 L 11272,22468 11247,22470 11221,22474 11195,22482 11167,22491 11139,22503 11109,22517 11080,22533 11049,22551 11018,22572 10987,22594 10955,22619 10923,22645 10891,22674 10859,22704 10826,22736 10794,22769 10762,22805 10729,22842 10697,22879 10666,22919 10635,22960 10604,23001 10575,23044 10545,23088 10518,23132 10489,23177 10463,23223 10437,23268 10412,23315 10388,23361 10366,23407 10345,23454 10325,23500 10306,23546 10289,23592 10273,23637 10259,23681 10245,23726 10234,23768 10224,23810 10216,23850 10209,23891 10204,23928 10200,23966 10199,24001 10199,24035 10200,24067 10203,24098 10208,24126 10214,24153 10222,24178 10232,24201 10243,24222 10390,24017 10381,24001 10374,23984 10369,23965 10363,23945 10360,23924 10357,23900 10356,23876 10356,23850 10358,23824 10361,23796 10364,23767 10369,23737 10375,23706 10383,23674 10391,23642 10401,23609 10412,23576 10425,23542 10437,23507 10451,23472 10466,23437 10482,23403 10499,23367 10517,23333 10536,23298 10555,23263 10575,23228 10596,23194 10618,23161 10640,23129 10662,23096 10685,23065 10708,23034 10732,23004 10756,22976 10781,22948 10805,22921 10830,22896 10853,22872 10878,22849 10902,22828 10927,22807 10951,22789 10975,22772 10998,22757 11021,22742 11043,22730 11066,22720 11087,22711 11108,22705 11128,22700 11147,22696 11165,22694 11184,22694 11295,22468 Z"/>
    </g>
   </g>
   <g class="com.sun.star.drawing.CustomShape">
    <g id="id4">
     <rect class="BoundingBox" stroke="none" fill="none" x="10586" y="21827" width="1020" height="1020"/>
     <path fill="rgb(255,212,40)" stroke="none" d="M 11604,22337 C 11604,22426 11581,22513 11536,22591 11491,22668 11427,22732 11350,22777 11272,22822 11185,22845 11096,22845 11006,22845 10919,22822 10841,22777 10764,22732 10700,22668 10655,22591 10610,22513 10587,22426 10587,22337 10587,22247 10610,22160 10655,22082 10700,22005 10764,21941 10841,21896 10919,21851 11006,21828 11096,21828 11185,21828 11272,21851 11350,21896 11427,21941 11491,22005 11536,22082 11581,22160 11604,22247 11604,22337 L 11604,22337 Z"/>
     <path fill="none" stroke="rgb(232,162,2)" d="M 11604,22337 C 11604,22426 11581,22513 11536,22591 11491,22668 11427,22732 11350,22777 11272,22822 11185,22845 11096,22845 11006,22845 10919,22822 10841,22777 10764,22732 10700,22668 10655,22591 10610,22513 10587,22426 10587,22337 10587,22247 10610,22160 10655,22082 10700,22005 10764,21941 10841,21896 10919,21851 11006,21828 11096,21828 11185,21828 11272,21851 11350,21896 11427,21941 11491,22005 11536,22082 11581,22160 11604,22247 11604,22337 Z"/>
    </g>
   </g>
   <g class="com.sun.star.drawing.CustomShape">
    <g id="id5">
     <rect class="BoundingBox" stroke="none" fill="none" x="10713" y="20556" width="766" height="1401"/>
     <path fill="rgb(241,13,12)" stroke="none" d="M 11477,21256 C 11477,21379 11459,21499 11426,21606 11392,21712 11344,21800 11286,21861 11228,21923 11162,21955 11096,21955 11029,21955 10963,21923 10905,21861 10847,21800 10799,21712 10765,21606 10732,21499 10714,21379 10714,21256 10714,21133 10732,21013 10765,20907 10799,20800 10847,20712 10905,20651 10963,20589 11029,20557 11096,20557 11162,20557 11228,20589 11286,20651 11344,20712 11392,20800 11426,20907 11459,21013 11477,21133 11477,21256 L 11477,21256 Z"/>
     <path fill="none" stroke="rgb(141,40,30)" d="M 11477,21256 C 11477,21379 11459,21499 11426,21606 11392,21712 11344,21800 11286,21861 11228,21923 11162,21955 11096,21955 11029,21955 10963,21923 10905,21861 10847,21800 10799,21712 10765,21606 10732,21499 10714,21379 10714,21256 10714,21133 10732,21013 10765,20907 10799,20800 10847,20712 10905,20651 10963,20589 11029,20557 11096,20557 11162,20557 11228,20589 11286,20651 11344,20712 11392,20800 11426,20907 11459,21013 11477,21133 11477,21256 Z"/>
    </g>
   </g>
   <g class="com.sun.star.drawing.CustomShape">
    <g id="id6">
     <rect class="BoundingBox" stroke="none" fill="none" x="11274" y="21270" width="1224" height="1026"/>
     <path fill="rgb(241,13,12)" stroke="none" d="M 12107,22093 C 12007,22164 11899,22220 11793,22254 11687,22289 11587,22301 11504,22289 11420,22278 11355,22243 11317,22189 11278,22134 11266,22062 11282,21979 11298,21896 11342,21806 11409,21717 11476,21628 11564,21543 11664,21472 11763,21401 11872,21345 11978,21310 12084,21276 12183,21264 12267,21275 12351,21287 12415,21322 12454,21376 12493,21431 12505,21503 12489,21586 12473,21669 12429,21759 12362,21848 12295,21937 12207,22022 12107,22093 L 12107,22093 Z"/>
     <path fill="none" stroke="rgb(141,40,30)" d="M 12107,22093 C 12007,22164 11899,22220 11793,22254 11687,22289 11587,22301 11504,22289 11420,22278 11355,22243 11317,22189 11278,22134 11266,22062 11282,21979 11298,21896 11342,21806 11409,21717 11476,21628 11564,21543 11664,21472 11763,21401 11872,21345 11978,21310 12084,21276 12183,21264 12267,21275 12351,21287 12415,21322 12454,21376 12493,21431 12505,21503 12489,21586 12473,21669 12429,21759 12362,21848 12295,21937 12207,22022 12107,22093 Z"/>
    </g>
   </g>
   <g class="com.sun.star.drawing.CustomShape">
    <g id="id7">
     <rect class="BoundingBox" stroke="none" fill="none" x="9601" y="21263" width="1276" height="960"/>
     <path fill="rgb(241,13,12)" stroke="none" d="M 10051,22074 C 10157,22135 10271,22179 10380,22202 10489,22225 10589,22227 10671,22207 10753,22187 10814,22145 10847,22087 10880,22029 10884,21956 10859,21875 10835,21794 10782,21709 10706,21627 10630,21546 10534,21471 10427,21411 10320,21350 10207,21306 10098,21283 9989,21259 9888,21258 9806,21278 9724,21298 9664,21340 9631,21398 9598,21456 9593,21529 9618,21610 9643,21691 9696,21776 9772,21858 9848,21939 9944,22014 10051,22074 L 10051,22074 Z"/>
     <path fill="none" stroke="rgb(141,40,30)" d="M 10051,22074 C 10157,22135 10271,22179 10380,22202 10489,22225 10589,22227 10671,22207 10753,22187 10814,22145 10847,22087 10880,22029 10884,21956 10859,21875 10835,21794 10782,21709 10706,21627 10630,21546 10534,21471 10427,21411 10320,21350 10207,21306 10098,21283 9989,21259 9888,21258 9806,21278 9724,21298 9664,21340 9631,21398 9598,21456 9593,21529 9618,21610 9643,21691 9696,21776 9772,21858 9848,21939 9944,22014 10051,22074 Z"/>
    </g>
   </g>
   <g class="com.sun.star.drawing.CustomShape">
    <g id="id8">
     <rect class="BoundingBox" stroke="none" fill="none" x="9599" y="22198" width="1178" height="1078"/>
     <path fill="rgb(241,13,12)" stroke="none" d="M 9941,22445 C 10035,22366 10138,22302 10241,22259 10344,22216 10442,22195 10527,22200 10611,22205 10678,22234 10721,22285 10765,22336 10782,22407 10773,22491 10764,22575 10727,22669 10668,22763 10608,22857 10528,22949 10434,23028 10340,23107 10237,23172 10134,23215 10031,23258 9933,23278 9849,23273 9764,23269 9697,23239 9654,23188 9611,23137 9593,23066 9602,22982 9612,22898 9648,22804 9707,22710 9767,22616 9848,22525 9941,22445 L 9941,22445 Z"/>
     <path fill="none" stroke="rgb(141,40,30)" d="M 9941,22445 C 10035,22366 10138,22302 10241,22259 10344,22216 10442,22195 10527,22200 10611,22205 10678,22234 10721,22285 10765,22336 10782,22407 10773,22491 10764,22575 10727,22669 10668,22763 10608,22857 10528,22949 10434,23028 10340,23107 10237,23172 10134,23215 10031,23258 9933,23278 9849,23273 9764,23269 9697,23239 9654,23188 9611,23137 9593,23066 9602,22982 9612,22898 9648,22804 9707,22710 9767,22616 9848,22525 9941,22445 Z"/>
    </g>
   </g>
   <g class="com.sun.star.drawing.CustomShape">
    <g id="id9">
     <rect class="BoundingBox" stroke="none" fill="none" x="11387" y="22297" width="1259" height="982"/>
     <path fill="rgb(241,13,12)" stroke="none" d="M 12216,22463 C 12112,22398 12000,22350 11892,22323 11784,22296 11683,22291 11601,22308 11518,22325 11456,22364 11421,22421 11386,22478 11379,22551 11401,22633 11423,22714 11473,22802 11545,22886 11618,22970 11712,23048 11816,23113 11921,23177 12033,23225 12141,23252 12249,23279 12349,23284 12432,23267 12515,23250 12577,23211 12612,23154 12647,23097 12654,23024 12632,22942 12610,22861 12560,22774 12487,22689 12414,22605 12321,22527 12216,22463 L 12216,22463 Z"/>
     <path fill="none" stroke="rgb(141,40,30)" d="M 12216,22463 C 12112,22398 12000,22350 11892,22323 11784,22296 11683,22291 11601,22308 11518,22325 11456,22364 11421,22421 11386,22478 11379,22551 11401,22633 11423,22714 11473,22802 11545,22886 11618,22970 11712,23048 11816,23113 11921,23177 12033,23225 12141,23252 12249,23279 12349,23284 12432,23267 12515,23250 12577,23211 12612,23154 12647,23097 12654,23024 12632,22942 12610,22861 12560,22774 12487,22689 12414,22605 12321,22527 12216,22463 Z"/>
    </g>
   </g>
   <g class="com.sun.star.drawing.CustomShape">
    <g id="id10">
     <rect class="BoundingBox" stroke="none" fill="none" x="10960" y="22665" width="806" height="1379"/>
     <path fill="rgb(241,13,12)" stroke="none" d="M 11735,23272 C 11761,23392 11770,23514 11760,23625 11750,23736 11722,23832 11678,23905 11635,23977 11577,24022 11512,24037 11446,24051 11375,24034 11305,23986 11236,23938 11170,23863 11114,23766 11059,23669 11016,23555 10990,23435 10964,23315 10955,23194 10965,23083 10975,22972 11003,22876 11047,22803 11090,22731 11148,22685 11213,22671 11279,22657 11350,22674 11420,22722 11489,22769 11555,22845 11611,22942 11666,23039 11709,23153 11735,23272 L 11735,23272 Z"/>
     <path fill="none" stroke="rgb(141,40,30)" d="M 11735,23272 C 11761,23392 11770,23514 11760,23625 11750,23736 11722,23832 11678,23905 11635,23977 11577,24022 11512,24037 11446,24051 11375,24034 11305,23986 11236,23938 11170,23863 11114,23766 11059,23669 11016,23555 10990,23435 10964,23315 10955,23194 10965,23083 10975,22972 11003,22876 11047,22803 11090,22731 11148,22685 11213,22671 11279,22657 11350,22674 11420,22722 11489,22769 11555,22845 11611,22942 11666,23039 11709,23153 11735,23272 Z"/>
    </g>
   </g>
   <g class="com.sun.star.drawing.CustomShape">
    <g id="id11">
     <rect class="BoundingBox" stroke="none" fill="none" x="9793" y="23675" width="538" height="607"/>
     <path fill="rgb(22,130,83)" stroke="none" d="M 10193,23870 C 10234,23919 10268,23973 10292,24025 10316,24077 10329,24127 10329,24168 10329,24209 10318,24241 10294,24260 10271,24279 10238,24285 10198,24276 10157,24268 10111,24246 10064,24213 10017,24180 9971,24136 9930,24087 9889,24037 9855,23984 9831,23931 9808,23879 9795,23830 9794,23788 9794,23747 9806,23715 9829,23696 9852,23677 9885,23671 9926,23680 9966,23688 10012,23710 10059,23743 10106,23776 10152,23820 10193,23870 L 10193,23870 Z"/>
     <path fill="none" stroke="rgb(30,106,57)" d="M 10193,23870 C 10234,23919 10268,23973 10292,24025 10316,24077 10329,24127 10329,24168 10329,24209 10318,24241 10294,24260 10271,24279 10238,24285 10198,24276 10157,24268 10111,24246 10064,24213 10017,24180 9971,24136 9930,24087 9889,24037 9855,23984 9831,23931 9808,23879 9795,23830 9794,23788 9794,23747 9806,23715 9829,23696 9852,23677 9885,23671 9926,23680 9966,23688 10012,23710 10059,23743 10106,23776 10152,23820 10193,23870 Z"/>
    </g>
   </g>
   <g class="com.sun.star.drawing.CustomShape">
    <g id="id12">
     <rect class="BoundingBox" stroke="none" fill="none" x="10170" y="23644" width="453" height="664"/>
     <path fill="rgb(22,130,83)" stroke="none" d="M 10554,24055 C 10526,24111 10491,24163 10453,24204 10415,24246 10374,24277 10336,24293 10298,24309 10264,24310 10236,24296 10208,24283 10188,24254 10179,24214 10169,24174 10169,24123 10179,24068 10190,24012 10210,23953 10238,23897 10266,23840 10301,23789 10340,23747 10378,23705 10418,23675 10456,23658 10494,23642 10529,23641 10556,23655 10584,23669 10604,23697 10614,23737 10624,23778 10624,23828 10613,23884 10603,23939 10582,23998 10554,24055 L 10554,24055 Z"/>
     <path fill="none" stroke="rgb(30,106,57)" d="M 10554,24055 C 10526,24111 10491,24163 10453,24204 10415,24246 10374,24277 10336,24293 10298,24309 10264,24310 10236,24296 10208,24283 10188,24254 10179,24214 10169,24174 10169,24123 10179,24068 10190,24012 10210,23953 10238,23897 10266,23840 10301,23789 10340,23747 10378,23705 10418,23675 10456,23658 10494,23642 10529,23641 10556,23655 10584,23669 10604,23697 10614,23737 10624,23778 10624,23828 10613,23884 10603,23939 10582,23998 10554,24055 Z"/>
    </g>
   </g>
  </g>
 </g>
</svg>