<?xml version="1.0" encoding="UTF-8"?>
<!DOCTYPE svg PUBLIC "-//W3C//DTD SVG 1.1//EN" "http://www.w3.org/Graphics/SVG/1.1/DTD/svg11.dtd">
<svg version="1.2" width="38.39mm" height="38.39mm" viewBox="15845 24608 3839 3839" preserveAspectRatio="xMidYMid" fill-rule="evenodd" stroke-width="28.222" stroke-linejoin="round" xmlns="http://www.w3.org/2000/svg" xmlns:ooo="http://xml.openoffice.org/svg/export" xmlns:xlink="http://www.w3.org/1999/xlink" xmlns:presentation="http://sun.com/xmlns/staroffice/presentation" xmlns:smil="http://www.w3.org/2001/SMIL20/" xmlns:anim="urn:oasis:names:tc:opendocument:xmlns:animation:1.0" xml:space="preserve">
 <defs class="EmbeddedBulletChars">
  <g id="bullet-char-template-57356" transform="scale(0.00048828125,-0.00048828125)">
   <path d="M 580,1141 L 1163,571 580,0 -4,571 580,1141 Z"/>
  </g>
  <g id="bullet-char-template-57354" transform="scale(0.00048828125,-0.00048828125)">
   <path d="M 8,1128 L 1137,1128 1137,0 8,0 8,1128 Z"/>
  </g>
  <g id="bullet-char-template-10146" transform="scale(0.00048828125,-0.00048828125)">
   <path d="M 174,0 L 602,739 174,1481 1456,739 174,0 Z M 1358,739 L 309,1346 659,739 1358,739 Z"/>
  </g>
  <g id="bullet-char-template-10132" transform="scale(0.00048828125,-0.00048828125)">
   <path d="M 2015,739 L 1276,0 717,0 1260,543 174,543 174,936 1260,936 717,1481 1274,1481 2015,739 Z"/>
  </g>
  <g id="bullet-char-template-10007" transform="scale(0.00048828125,-0.00048828125)">
   <path d="M 0,-2 C -7,14 -16,27 -25,37 L 356,567 C 262,823 215,952 215,954 215,979 228,992 255,992 264,992 276,990 289,987 310,991 331,999 354,1012 L 381,999 492,748 772,1049 836,1024 860,1049 C 881,1039 901,1025 922,1006 886,937 835,863 770,784 769,783 710,716 594,584 L 774,223 C 774,196 753,168 711,139 L 727,119 C 717,90 699,76 672,76 641,76 570,178 457,381 L 164,-76 C 142,-110 111,-127 72,-127 30,-127 9,-110 8,-76 1,-67 -2,-52 -2,-32 -2,-23 -1,-13 0,-2 Z"/>
  </g>
  <g id="bullet-char-template-10004" transform="scale(0.00048828125,-0.00048828125)">
   <path d="M 285,-33 C 182,-33 111,30 74,156 52,228 41,333 41,471 41,549 55,616 82,672 116,743 169,778 240,778 293,778 328,747 346,684 L 369,508 C 377,444 397,411 428,410 L 1163,1116 C 1174,1127 1196,1133 1229,1133 1271,1133 1292,1118 1292,1087 L 1292,965 C 1292,929 1282,901 1262,881 L 442,47 C 390,-6 338,-33 285,-33 Z"/>
  </g>
  <g id="bullet-char-template-9679" transform="scale(0.00048828125,-0.00048828125)">
   <path d="M 813,0 C 632,0 489,54 383,161 276,268 223,411 223,592 223,773 276,916 383,1023 489,1130 632,1184 813,1184 992,1184 1136,1130 1245,1023 1353,916 1407,772 1407,592 1407,412 1353,268 1245,161 1136,54 992,0 813,0 Z"/>
  </g>
  <g id="bullet-char-template-8226" transform="scale(0.00048828125,-0.00048828125)">
   <path d="M 346,457 C 273,457 209,483 155,535 101,586 74,649 74,723 74,796 101,859 155,911 209,963 273,989 346,989 419,989 480,963 531,910 582,859 608,796 608,723 608,648 583,586 532,535 482,483 420,457 346,457 Z"/>
  </g>
  <g id="bullet-char-template-8211" transform="scale(0.00048828125,-0.00048828125)">
   <path d="M -4,459 L 1135,459 1135,606 -4,606 -4,459 Z"/>
  </g>
  <g id="bullet-char-template-61548" transform="scale(0.00048828125,-0.00048828125)">
   <path d="M 173,740 C 173,903 231,1043 346,1159 462,1274 601,1332 765,1332 928,1332 1067,1274 1183,1159 1299,1043 1357,903 1357,740 1357,577 1299,437 1183,322 1067,206 928,148 765,148 601,148 462,206 346,322 231,437 173,577 173,740 Z"/>
  </g>
 </defs>
 <g class="Page">
  <g class="Group">
   <g class="com.sun.star.drawing.CustomShape">
    <g id="id3">
     <rect class="BoundingBox" stroke="none" fill="none" x="15845" y="24608" width="3839" height="3839"/>
     <path fill="rgb(94,185,30)" stroke="none" d="M 17764,28432 L 15859,28432 15859,24622 19669,24622 19669,28432 17764,28432 Z"/>
     <path fill="none" stroke="rgb(0,0,0)" stroke-width="28" stroke-linejoin="round" d="M 17764,28432 L 15859,28432 15859,24622 19669,24622 19669,28432 17764,28432 Z"/>
    </g>
   </g>
   <g class="Group">
    <g class="com.sun.star.drawing.CustomShape">
     <g id="id4">
      <rect class="BoundingBox" stroke="none" fill="none" x="18525" y="27669" width="766" height="766"/>
      <path fill="rgb(70,138,26)" stroke="none" d="M 19289,28052 C 19289,28118 19271,28184 19238,28242 19204,28300 19156,28348 19098,28382 19040,28415 18974,28433 18908,28433 18841,28433 18775,28415 18717,28382 18659,28348 18611,28300 18577,28242 18544,28184 18526,28118 18526,28052 18526,27985 18544,27919 18577,27861 18611,27803 18659,27755 18717,27721 18775,27688 18841,27670 18908,27670 18974,27670 19040,27688 19098,27721 19156,27755 19204,27803 19238,27861 19271,27919 19289,27985 19289,28052 L 19289,28052 Z"/>
      <path fill="none" stroke="rgb(57,85,17)" d="M 19289,28052 C 19289,28118 19271,28184 19238,28242 19204,28300 19156,28348 19098,28382 19040,28415 18974,28433 18908,28433 18841,28433 18775,28415 18717,28382 18659,28348 18611,28300 18577,28242 18544,28184 18526,28118 18526,28052 18526,27985 18544,27919 18577,27861 18611,27803 18659,27755 18717,27721 18775,27688 18841,27670 18908,27670 18974,27670 19040,27688 19098,27721 19156,27755 19204,27803 19238,27861 19271,27919 19289,27985 19289,28052 Z"/>
     </g>
    </g>
    <g class="com.sun.star.drawing.CustomShape">
     <g id="id5">
      <rect class="BoundingBox" stroke="none" fill="none" x="18651" y="27287" width="893" height="893"/>
      <path fill="rgb(6,154,46)" stroke="none" d="M 19542,27733 C 19542,27811 19521,27888 19482,27956 19443,28023 19387,28079 19320,28118 19252,28157 19175,28178 19097,28178 19019,28178 18942,28157 18875,28118 18807,28079 18751,28023 18712,27956 18673,27888 18652,27811 18652,27733 18652,27655 18673,27578 18712,27511 18751,27443 18807,27387 18875,27348 18942,27309 19019,27288 19097,27288 19175,27288 19252,27309 19320,27348 19387,27387 19443,27443 19482,27511 19521,27578 19542,27655 19542,27733 L 19542,27733 Z"/>
      <path fill="none" stroke="rgb(18,118,34)" d="M 19542,27733 C 19542,27811 19521,27888 19482,27956 19443,28023 19387,28079 19320,28118 19252,28157 19175,28178 19097,28178 19019,28178 18942,28157 18875,28118 18807,28079 18751,28023 18712,27956 18673,27888 18652,27811 18652,27733 18652,27655 18673,27578 18712,27511 18751,27443 18807,27387 18875,27348 18942,27309 19019,27288 19097,27288 19175,27288 19252,27309 19320,27348 19387,27387 19443,27443 19482,27511 19521,27578 19542,27655 19542,27733 Z"/>
     </g>
    </g>
    <g class="com.sun.star.drawing.CustomShape">
     <g id="id6">
      <rect class="BoundingBox" stroke="none" fill="none" x="18906" y="27669" width="766" height="766"/>
      <path fill="rgb(70,138,26)" stroke="none" d="M 19670,28052 C 19670,28118 19652,28184 19619,28242 19585,28300 19537,28348 19479,28382 19421,28415 19355,28433 19289,28433 19222,28433 19156,28415 19098,28382 19040,28348 18992,28300 18958,28242 18925,28184 18907,28118 18907,28052 18907,27985 18925,27919 18958,27861 18992,27803 19040,27755 19098,27721 19156,27688 19222,27670 19289,27670 19355,27670 19421,27688 19479,27721 19537,27755 19585,27803 19619,27861 19652,27919 19670,27985 19670,28052 L 19670,28052 Z"/>
      <path fill="none" stroke="rgb(57,85,17)" d="M 19670,28052 C 19670,28118 19652,28184 19619,28242 19585,28300 19537,28348 19479,28382 19421,28415 19355,28433 19289,28433 19222,28433 19156,28415 19098,28382 19040,28348 18992,28300 18958,28242 18925,28184 18907,28118 18907,28052 18907,27985 18925,27919 18958,27861 18992,27803 19040,27755 19098,27721 19156,27688 19222,27670 19289,27670 19355,27670 19421,27688 19479,27721 19537,27755 19585,27803 19619,27861 19652,27919 19670,27985 19670,28052 Z"/>
     </g>
    </g>
   </g>
   <g class="Group">
    <g class="com.sun.star.drawing.CustomShape">
     <g id="id7">
      <rect class="BoundingBox" stroke="none" fill="none" x="16112" y="25002" width="766" height="766"/>
      <path fill="rgb(70,138,26)" stroke="none" d="M 16876,25385 C 16876,25451 16858,25517 16825,25575 16791,25633 16743,25681 16685,25715 16627,25748 16561,25766 16495,25766 16428,25766 16362,25748 16304,25715 16246,25681 16198,25633 16164,25575 16131,25517 16113,25451 16113,25385 16113,25318 16131,25252 16164,25194 16198,25136 16246,25088 16304,25054 16362,25021 16428,25003 16495,25003 16561,25003 16627,25021 16685,25054 16743,25088 16791,25136 16825,25194 16858,25252 16876,25318 16876,25385 L 16876,25385 Z"/>
      <path fill="none" stroke="rgb(57,85,17)" d="M 16876,25385 C 16876,25451 16858,25517 16825,25575 16791,25633 16743,25681 16685,25715 16627,25748 16561,25766 16495,25766 16428,25766 16362,25748 16304,25715 16246,25681 16198,25633 16164,25575 16131,25517 16113,25451 16113,25385 16113,25318 16131,25252 16164,25194 16198,25136 16246,25088 16304,25054 16362,25021 16428,25003 16495,25003 16561,25003 16627,25021 16685,25054 16743,25088 16791,25136 16825,25194 16858,25252 16876,25318 16876,25385 Z"/>
     </g>
    </g>
    <g class="com.sun.star.drawing.CustomShape">
     <g id="id8">
      <rect class="BoundingBox" stroke="none" fill="none" x="16238" y="24620" width="893" height="893"/>
      <path fill="rgb(6,154,46)" stroke="none" d="M 17129,25066 C 17129,25144 17108,25221 17069,25289 17030,25356 16974,25412 16907,25451 16839,25490 16762,25511 16684,25511 16606,25511 16529,25490 16462,25451 16394,25412 16338,25356 16299,25289 16260,25221 16239,25144 16239,25066 16239,24988 16260,24911 16299,24844 16338,24776 16394,24720 16462,24681 16529,24642 16606,24621 16684,24621 16762,24621 16839,24642 16907,24681 16974,24720 17030,24776 17069,24844 17108,24911 17129,24988 17129,25066 L 17129,25066 Z"/>
      <path fill="none" stroke="rgb(18,118,34)" d="M 17129,25066 C 17129,25144 17108,25221 17069,25289 17030,25356 16974,25412 16907,25451 16839,25490 16762,25511 16684,25511 16606,25511 16529,25490 16462,25451 16394,25412 16338,25356 16299,25289 16260,25221 16239,25144 16239,25066 16239,24988 16260,24911 16299,24844 16338,24776 16394,24720 16462,24681 16529,24642 16606,24621 16684,24621 16762,24621 16839,24642 16907,24681 16974,24720 17030,24776 17069,24844 17108,24911 17129,24988 17129,25066 Z"/>
     </g>
    </g>
    <g class="com.sun.star.drawing.CustomShape">
     <g id="id9">
      <rect class="BoundingBox" stroke="none" fill="none" x="16493" y="25002" width="766" height="766"/>
      <path fill="rgb(70,138,26)" stroke="none" d="M 17257,25385 C 17257,25451 17239,25517 17206,25575 17172,25633 17124,25681 17066,25715 17008,25748 16942,25766 16876,25766 16809,25766 16743,25748 16685,25715 16627,25681 16579,25633 16545,25575 16512,25517 16494,25451 16494,25385 16494,25318 16512,25252 16545,25194 16579,25136 16627,25088 16685,25054 16743,25021 16809,25003 16876,25003 16942,25003 17008,25021 17066,25054 17124,25088 17172,25136 17206,25194 17239,25252 17257,25318 17257,25385 L 17257,25385 Z"/>
      <path fill="none" stroke="rgb(57,85,17)" d="M 17257,25385 C 17257,25451 17239,25517 17206,25575 17172,25633 17124,25681 17066,25715 17008,25748 16942,25766 16876,25766 16809,25766 16743,25748 16685,25715 16627,25681 16579,25633 16545,25575 16512,25517 16494,25451 16494,25385 16494,25318 16512,25252 16545,25194 16579,25136 16627,25088 16685,25054 16743,25021 16809,25003 16876,25003 16942,25003 17008,25021 17066,25054 17124,25088 17172,25136 17206,25194 17239,25252 17257,25318 17257,25385 Z"/>
     </g>
    </g>
   </g>
   <g class="Group">
    <g class="com.sun.star.drawing.CustomShape">
     <g id="id10">
      <rect class="BoundingBox" stroke="none" fill="none" x="17127" y="26144" width="893" height="893"/>
      <path fill="rgb(6,154,46)" stroke="none" d="M 18018,26590 C 18018,26668 17997,26745 17958,26813 17919,26880 17863,26936 17796,26975 17728,27014 17651,27035 17573,27035 17495,27035 17418,27014 17351,26975 17283,26936 17227,26880 17188,26813 17149,26745 17128,26668 17128,26590 17128,26512 17149,26435 17188,26368 17227,26300 17283,26244 17351,26205 17418,26166 17495,26145 17573,26145 17651,26145 17728,26166 17796,26205 17863,26244 17919,26300 17958,26368 17997,26435 18018,26512 18018,26590 L 18018,26590 Z"/>
      <path fill="none" stroke="rgb(18,118,34)" d="M 18018,26590 C 18018,26668 17997,26745 17958,26813 17919,26880 17863,26936 17796,26975 17728,27014 17651,27035 17573,27035 17495,27035 17418,27014 17351,26975 17283,26936 17227,26880 17188,26813 17149,26745 17128,26668 17128,26590 17128,26512 17149,26435 17188,26368 17227,26300 17283,26244 17351,26205 17418,26166 17495,26145 17573,26145 17651,26145 17728,26166 17796,26205 17863,26244 17919,26300 17958,26368 17997,26435 18018,26512 18018,26590 Z"/>
     </g>
    </g>
    <g class="com.sun.star.drawing.CustomShape">
     <g id="id11">
      <rect class="BoundingBox" stroke="none" fill="none" x="17382" y="25764" width="766" height="766"/>
      <path fill="rgb(70,138,26)" stroke="none" d="M 18146,26147 C 18146,26213 18128,26279 18095,26337 18061,26395 18013,26443 17955,26477 17897,26510 17831,26528 17765,26528 17698,26528 17632,26510 17574,26477 17516,26443 17468,26395 17434,26337 17401,26279 17383,26213 17383,26147 17383,26080 17401,26014 17434,25956 17468,25898 17516,25850 17574,25816 17632,25783 17698,25765 17765,25765 17831,25765 17897,25783 17955,25816 18013,25850 18061,25898 18095,25956 18128,26014 18146,26080 18146,26147 L 18146,26147 Z"/>
      <path fill="none" stroke="rgb(57,85,17)" d="M 18146,26147 C 18146,26213 18128,26279 18095,26337 18061,26395 18013,26443 17955,26477 17897,26510 17831,26528 17765,26528 17698,26528 17632,26510 17574,26477 17516,26443 17468,26395 17434,26337 17401,26279 17383,26213 17383,26147 17383,26080 17401,26014 17434,25956 17468,25898 17516,25850 17574,25816 17632,25783 17698,25765 17765,25765 17831,25765 17897,25783 17955,25816 18013,25850 18061,25898 18095,25956 18128,26014 18146,26080 18146,26147 Z"/>
     </g>
    </g>
    <g class="com.sun.star.drawing.CustomShape">
     <g id="id12">
      <rect class="BoundingBox" stroke="none" fill="none" x="17635" y="26144" width="893" height="893"/>
      <path fill="rgb(6,154,46)" stroke="none" d="M 18526,26590 C 18526,26668 18505,26745 18466,26813 18427,26880 18371,26936 18304,26975 18236,27014 18159,27035 18081,27035 18003,27035 17926,27014 17859,26975 17791,26936 17735,26880 17696,26813 17657,26745 17636,26668 17636,26590 17636,26512 17657,26435 17696,26368 17735,26300 17791,26244 17859,26205 17926,26166 18003,26145 18081,26145 18159,26145 18236,26166 18304,26205 18371,26244 18427,26300 18466,26368 18505,26435 18526,26512 18526,26590 L 18526,26590 Z"/>
      <path fill="none" stroke="rgb(18,118,34)" d="M 18526,26590 C 18526,26668 18505,26745 18466,26813 18427,26880 18371,26936 18304,26975 18236,27014 18159,27035 18081,27035 18003,27035 17926,27014 17859,26975 17791,26936 17735,26880 17696,26813 17657,26745 17636,26668 17636,26590 17636,26512 17657,26435 17696,26368 17735,26300 17791,26244 17859,26205 17926,26166 18003,26145 18081,26145 18159,26145 18236,26166 18304,26205 18371,26244 18427,26300 18466,26368 18505,26435 18526,26512 18526,26590 Z"/>
     </g>
    </g>
    <g class="com.sun.star.drawing.CustomShape">
     <g id="id13">
      <rect class="BoundingBox" stroke="none" fill="none" x="17508" y="26017" width="131" height="131"/>
      <path fill="rgb(255,0,0)" stroke="none" d="M 17637,26082 C 17637,26093 17634,26104 17628,26114 17623,26124 17615,26132 17605,26137 17595,26143 17584,26146 17573,26146 17562,26146 17551,26143 17541,26137 17531,26132 17523,26124 17518,26114 17512,26104 17509,26093 17509,26082 17509,26071 17512,26060 17518,26050 17523,26040 17531,26032 17541,26027 17551,26021 17562,26018 17573,26018 17584,26018 17595,26021 17605,26027 17615,26032 17623,26040 17628,26050 17634,26060 17637,26071 17637,26082 L 17637,26082 Z"/>
      <path fill="none" stroke="rgb(201,33,30)" d="M 17637,26082 C 17637,26093 17634,26104 17628,26114 17623,26124 17615,26132 17605,26137 17595,26143 17584,26146 17573,26146 17562,26146 17551,26143 17541,26137 17531,26132 17523,26124 17518,26114 17512,26104 17509,26093 17509,26082 17509,26071 17512,26060 17518,26050 17523,26040 17531,26032 17541,26027 17551,26021 17562,26018 17573,26018 17584,26018 17595,26021 17605,26027 17615,26032 17623,26040 17628,26050 17634,26060 17637,26071 17637,26082 Z"/>
     </g>
    </g>
    <g class="com.sun.star.drawing.CustomShape">
     <g id="id14">
      <rect class="BoundingBox" stroke="none" fill="none" x="17889" y="26271" width="131" height="131"/>
      <path fill="rgb(255,0,0)" stroke="none" d="M 18018,26336 C 18018,26347 18015,26358 18009,26368 18004,26378 17996,26386 17986,26391 17976,26397 17965,26400 17954,26400 17943,26400 17932,26397 17922,26391 17912,26386 17904,26378 17899,26368 17893,26358 17890,26347 17890,26336 17890,26325 17893,26314 17899,26304 17904,26294 17912,26286 17922,26281 17932,26275 17943,26272 17954,26272 17965,26272 17976,26275 17986,26281 17996,26286 18004,26294 18009,26304 18015,26314 18018,26325 18018,26336 L 18018,26336 Z"/>
      <path fill="none" stroke="rgb(201,33,30)" d="M 18018,26336 C 18018,26347 18015,26358 18009,26368 18004,26378 17996,26386 17986,26391 17976,26397 17965,26400 17954,26400 17943,26400 17932,26397 17922,26391 17912,26386 17904,26378 17899,26368 17893,26358 17890,26347 17890,26336 17890,26325 17893,26314 17899,26304 17904,26294 17912,26286 17922,26281 17932,26275 17943,26272 17954,26272 17965,26272 17976,26275 17986,26281 17996,26286 18004,26294 18009,26304 18015,26314 18018,26325 18018,26336 Z"/>
     </g>
    </g>
    <g class="com.sun.star.drawing.CustomShape">
     <g id="id15">
      <rect class="BoundingBox" stroke="none" fill="none" x="17381" y="26652" width="131" height="131"/>
      <path fill="rgb(255,0,0)" stroke="none" d="M 17510,26717 C 17510,26728 17507,26739 17501,26749 17496,26759 17488,26767 17478,26772 17468,26778 17457,26781 17446,26781 17435,26781 17424,26778 17414,26772 17404,26767 17396,26759 17391,26749 17385,26739 17382,26728 17382,26717 17382,26706 17385,26695 17391,26685 17396,26675 17404,26667 17414,26662 17424,26656 17435,26653 17446,26653 17457,26653 17468,26656 17478,26662 17488,26667 17496,26675 17501,26685 17507,26695 17510,26706 17510,26717 L 17510,26717 Z"/>
      <path fill="none" stroke="rgb(201,33,30)" d="M 17510,26717 C 17510,26728 17507,26739 17501,26749 17496,26759 17488,26767 17478,26772 17468,26778 17457,26781 17446,26781 17435,26781 17424,26778 17414,26772 17404,26767 17396,26759 17391,26749 17385,26739 17382,26728 17382,26717 17382,26706 17385,26695 17391,26685 17396,26675 17404,26667 17414,26662 17424,26656 17435,26653 17446,26653 17457,26653 17468,26656 17478,26662 17488,26667 17496,26675 17501,26685 17507,26695 17510,26706 17510,26717 Z"/>
     </g>
    </g>
    <g class="com.sun.star.drawing.CustomShape">
     <g id="id16">
      <rect class="BoundingBox" stroke="none" fill="none" x="18270" y="26652" width="131" height="131"/>
      <path fill="rgb(255,0,0)" stroke="none" d="M 18399,26717 C 18399,26728 18396,26739 18390,26749 18385,26759 18377,26767 18367,26772 18357,26778 18346,26781 18335,26781 18324,26781 18313,26778 18303,26772 18293,26767 18285,26759 18280,26749 18274,26739 18271,26728 18271,26717 18271,26706 18274,26695 18280,26685 18285,26675 18293,26667 18303,26662 18313,26656 18324,26653 18335,26653 18346,26653 18357,26656 18367,26662 18377,26667 18385,26675 18390,26685 18396,26695 18399,26706 18399,26717 L 18399,26717 Z"/>
      <path fill="none" stroke="rgb(201,33,30)" d="M 18399,26717 C 18399,26728 18396,26739 18390,26749 18385,26759 18377,26767 18367,26772 18357,26778 18346,26781 18335,26781 18324,26781 18313,26778 18303,26772 18293,26767 18285,26759 18280,26749 18274,26739 18271,26728 18271,26717 18271,26706 18274,26695 18280,26685 18285,26675 18293,26667 18303,26662 18313,26656 18324,26653 18335,26653 18346,26653 18357,26656 18367,26662 18377,26667 18385,26675 18390,26685 18396,26695 18399,26706 18399,26717 Z"/>
     </g>
    </g>
    <g class="com.sun.star.drawing.CustomShape">
     <g id="id17">
      <rect class="BoundingBox" stroke="none" fill="none" x="17889" y="26652" width="131" height="131"/>
      <path fill="rgb(255,0,0)" stroke="none" d="M 18018,26717 C 18018,26728 18015,26739 18009,26749 18004,26759 17996,26767 17986,26772 17976,26778 17965,26781 17954,26781 17943,26781 17932,26778 17922,26772 17912,26767 17904,26759 17899,26749 17893,26739 17890,26728 17890,26717 17890,26706 17893,26695 17899,26685 17904,26675 17912,26667 17922,26662 17932,26656 17943,26653 17954,26653 17965,26653 17976,26656 17986,26662 17996,26667 18004,26675 18009,26685 18015,26695 18018,26706 18018,26717 L 18018,26717 Z"/>
      <path fill="none" stroke="rgb(201,33,30)" d="M 18018,26717 C 18018,26728 18015,26739 18009,26749 18004,26759 17996,26767 17986,26772 17976,26778 17965,26781 17954,26781 17943,26781 17932,26778 17922,26772 17912,26767 17904,26759 17899,26749 17893,26739 17890,26728 17890,26717 17890,26706 17893,26695 17899,26685 17904,26675 17912,26667 17922,26662 17932,26656 17943,26653 17954,26653 17965,26653 17976,26656 17986,26662 17996,26667 18004,26675 18009,26685 18015,26695 18018,26706 18018,26717 Z"/>
     </g>
    </g>
   </g>
   <g class="Group">
    <g class="com.sun.star.drawing.CustomShape">
     <g id="id18">
      <rect class="BoundingBox" stroke="none" fill="none" x="16493" y="26144" width="257" height="1400"/>
      <path fill="rgb(123,61,0)" stroke="none" d="M 16621,27542 L 16494,27542 16494,26145 16748,26145 16748,27542 16621,27542 Z"/>
      <path fill="none" stroke="rgb(123,61,0)" d="M 16621,27542 L 16494,27542 16494,26145 16748,26145 16748,27542 16621,27542 Z"/>
     </g>
    </g>
    <g class="com.sun.star.drawing.CustomShape">
     <g id="id19">
      <rect class="BoundingBox" stroke="none" fill="none" x="15858" y="26018" width="766" height="766"/>
      <path fill="rgb(129,212,26)" stroke="none" d="M 16622,26401 C 16622,26467 16604,26533 16571,26591 16537,26649 16489,26697 16431,26731 16373,26764 16307,26782 16241,26782 16174,26782 16108,26764 16050,26731 15992,26697 15944,26649 15910,26591 15877,26533 15859,26467 15859,26401 15859,26334 15877,26268 15910,26210 15944,26152 15992,26104 16050,26070 16108,26037 16174,26019 16241,26019 16307,26019 16373,26037 16431,26070 16489,26104 16537,26152 16571,26210 16604,26268 16622,26334 16622,26401 L 16622,26401 Z"/>
      <path fill="none" stroke="rgb(94,185,30)" d="M 16622,26401 C 16622,26467 16604,26533 16571,26591 16537,26649 16489,26697 16431,26731 16373,26764 16307,26782 16241,26782 16174,26782 16108,26764 16050,26731 15992,26697 15944,26649 15910,26591 15877,26533 15859,26467 15859,26401 15859,26334 15877,26268 15910,26210 15944,26152 15992,26104 16050,26070 16108,26037 16174,26019 16241,26019 16307,26019 16373,26037 16431,26070 16489,26104 16537,26152 16571,26210 16604,26268 16622,26334 16622,26401 Z"/>
     </g>
    </g>
    <g class="com.sun.star.drawing.CustomShape">
     <g id="id20">
      <rect class="BoundingBox" stroke="none" fill="none" x="15985" y="25256" width="1020" height="1020"/>
      <path fill="rgb(129,212,26)" stroke="none" d="M 17003,25766 C 17003,25855 16980,25942 16935,26020 16890,26097 16826,26161 16749,26206 16671,26251 16584,26274 16495,26274 16405,26274 16318,26251 16240,26206 16163,26161 16099,26097 16054,26020 16009,25942 15986,25855 15986,25766 15986,25676 16009,25589 16054,25511 16099,25434 16163,25370 16240,25325 16318,25280 16405,25257 16495,25257 16584,25257 16671,25280 16749,25325 16826,25370 16890,25434 16935,25511 16980,25589 17003,25676 17003,25766 L 17003,25766 Z"/>
      <path fill="none" stroke="rgb(94,185,30)" d="M 17003,25766 C 17003,25855 16980,25942 16935,26020 16890,26097 16826,26161 16749,26206 16671,26251 16584,26274 16495,26274 16405,26274 16318,26251 16240,26206 16163,26161 16099,26097 16054,26020 16009,25942 15986,25855 15986,25766 15986,25676 16009,25589 16054,25511 16099,25434 16163,25370 16240,25325 16318,25280 16405,25257 16495,25257 16584,25257 16671,25280 16749,25325 16826,25370 16890,25434 16935,25511 16980,25589 17003,25676 17003,25766 Z"/>
     </g>
    </g>
    <g class="com.sun.star.drawing.CustomShape">
     <g id="id21">
      <rect class="BoundingBox" stroke="none" fill="none" x="16366" y="25764" width="1020" height="1020"/>
      <path fill="rgb(129,212,26)" stroke="none" d="M 17384,26274 C 17384,26363 17361,26450 17316,26528 17271,26605 17207,26669 17130,26714 17052,26759 16965,26782 16876,26782 16786,26782 16699,26759 16621,26714 16544,26669 16480,26605 16435,26528 16390,26450 16367,26363 16367,26274 16367,26184 16390,26097 16435,26019 16480,25942 16544,25878 16621,25833 16699,25788 16786,25765 16876,25765 16965,25765 17052,25788 17130,25833 17207,25878 17271,25942 17316,26019 17361,26097 17384,26184 17384,26274 L 17384,26274 Z"/>
      <path fill="none" stroke="rgb(94,185,30)" d="M 17384,26274 C 17384,26363 17361,26450 17316,26528 17271,26605 17207,26669 17130,26714 17052,26759 16965,26782 16876,26782 16786,26782 16699,26759 16621,26714 16544,26669 16480,26605 16435,26528 16390,26450 16367,26363 16367,26274 16367,26184 16390,26097 16435,26019 16480,25942 16544,25878 16621,25833 16699,25788 16786,25765 16876,25765 16965,25765 17052,25788 17130,25833 17207,25878 17271,25942 17316,26019 17361,26097 17384,26184 17384,26274 Z"/>
     </g>
    </g>
   </g>
   <g class="Group">
    <g class="com.sun.star.drawing.CustomShape">
     <g id="id22">
      <rect class="BoundingBox" stroke="none" fill="none" x="15985" y="27542" width="766" height="766"/>
      <path fill="rgb(70,138,26)" stroke="none" d="M 16749,27925 C 16749,27991 16731,28057 16698,28115 16664,28173 16616,28221 16558,28255 16500,28288 16434,28306 16368,28306 16301,28306 16235,28288 16177,28255 16119,28221 16071,28173 16037,28115 16004,28057 15986,27991 15986,27925 15986,27858 16004,27792 16037,27734 16071,27676 16119,27628 16177,27594 16235,27561 16301,27543 16368,27543 16434,27543 16500,27561 16558,27594 16616,27628 16664,27676 16698,27734 16731,27792 16749,27858 16749,27925 L 16749,27925 Z"/>
      <path fill="none" stroke="rgb(57,85,17)" d="M 16749,27925 C 16749,27991 16731,28057 16698,28115 16664,28173 16616,28221 16558,28255 16500,28288 16434,28306 16368,28306 16301,28306 16235,28288 16177,28255 16119,28221 16071,28173 16037,28115 16004,28057 15986,27991 15986,27925 15986,27858 16004,27792 16037,27734 16071,27676 16119,27628 16177,27594 16235,27561 16301,27543 16368,27543 16434,27543 16500,27561 16558,27594 16616,27628 16664,27676 16698,27734 16731,27792 16749,27858 16749,27925 Z"/>
     </g>
    </g>
    <g class="com.sun.star.drawing.CustomShape">
     <g id="id23">
      <rect class="BoundingBox" stroke="none" fill="none" x="16111" y="27160" width="893" height="893"/>
      <path fill="rgb(6,154,46)" stroke="none" d="M 17002,27606 C 17002,27684 16981,27761 16942,27829 16903,27896 16847,27952 16780,27991 16712,28030 16635,28051 16557,28051 16479,28051 16402,28030 16335,27991 16267,27952 16211,27896 16172,27829 16133,27761 16112,27684 16112,27606 16112,27528 16133,27451 16172,27384 16211,27316 16267,27260 16335,27221 16402,27182 16479,27161 16557,27161 16635,27161 16712,27182 16780,27221 16847,27260 16903,27316 16942,27384 16981,27451 17002,27528 17002,27606 L 17002,27606 Z"/>
      <path fill="none" stroke="rgb(18,118,34)" d="M 17002,27606 C 17002,27684 16981,27761 16942,27829 16903,27896 16847,27952 16780,27991 16712,28030 16635,28051 16557,28051 16479,28051 16402,28030 16335,27991 16267,27952 16211,27896 16172,27829 16133,27761 16112,27684 16112,27606 16112,27528 16133,27451 16172,27384 16211,27316 16267,27260 16335,27221 16402,27182 16479,27161 16557,27161 16635,27161 16712,27182 16780,27221 16847,27260 16903,27316 16942,27384 16981,27451 17002,27528 17002,27606 Z"/>
     </g>
    </g>
    <g class="com.sun.star.drawing.CustomShape">
     <g id="id24">
      <rect class="BoundingBox" stroke="none" fill="none" x="16366" y="27542" width="766" height="766"/>
      <path fill="rgb(70,138,26)" stroke="none" d="M 17130,27925 C 17130,27991 17112,28057 17079,28115 17045,28173 16997,28221 16939,28255 16881,28288 16815,28306 16749,28306 16682,28306 16616,28288 16558,28255 16500,28221 16452,28173 16418,28115 16385,28057 16367,27991 16367,27925 16367,27858 16385,27792 16418,27734 16452,27676 16500,27628 16558,27594 16616,27561 16682,27543 16749,27543 16815,27543 16881,27561 16939,27594 16997,27628 17045,27676 17079,27734 17112,27792 17130,27858 17130,27925 L 17130,27925 Z"/>
      <path fill="none" stroke="rgb(57,85,17)" d="M 17130,27925 C 17130,27991 17112,28057 17079,28115 17045,28173 16997,28221 16939,28255 16881,28288 16815,28306 16749,28306 16682,28306 16616,28288 16558,28255 16500,28221 16452,28173 16418,28115 16385,28057 16367,27991 16367,27925 16367,27858 16385,27792 16418,27734 16452,27676 16500,27628 16558,27594 16616,27561 16682,27543 16749,27543 16815,27543 16881,27561 16939,27594 16997,27628 17045,27676 17079,27734 17112,27792 17130,27858 17130,27925 Z"/>
     </g>
    </g>
   </g>
   <g class="Group">
    <g class="com.sun.star.drawing.CustomShape">
     <g id="id25">
      <rect class="BoundingBox" stroke="none" fill="none" x="17001" y="27542" width="766" height="766"/>
      <path fill="rgb(70,138,26)" stroke="none" d="M 17765,27925 C 17765,27991 17747,28057 17714,28115 17680,28173 17632,28221 17574,28255 17516,28288 17450,28306 17384,28306 17317,28306 17251,28288 17193,28255 17135,28221 17087,28173 17053,28115 17020,28057 17002,27991 17002,27925 17002,27858 17020,27792 17053,27734 17087,27676 17135,27628 17193,27594 17251,27561 17317,27543 17384,27543 17450,27543 17516,27561 17574,27594 17632,27628 17680,27676 17714,27734 17747,27792 17765,27858 17765,27925 L 17765,27925 Z"/>
      <path fill="none" stroke="rgb(57,85,17)" d="M 17765,27925 C 17765,27991 17747,28057 17714,28115 17680,28173 17632,28221 17574,28255 17516,28288 17450,28306 17384,28306 17317,28306 17251,28288 17193,28255 17135,28221 17087,28173 17053,28115 17020,28057 17002,27991 17002,27925 17002,27858 17020,27792 17053,27734 17087,27676 17135,27628 17193,27594 17251,27561 17317,27543 17384,27543 17450,27543 17516,27561 17574,27594 17632,27628 17680,27676 17714,27734 17747,27792 17765,27858 17765,27925 Z"/>
     </g>
    </g>
    <g class="com.sun.star.drawing.CustomShape">
     <g id="id26">
      <rect class="BoundingBox" stroke="none" fill="none" x="17127" y="27160" width="893" height="893"/>
      <path fill="rgb(6,154,46)" stroke="none" d="M 18018,27606 C 18018,27684 17997,27761 17958,27829 17919,27896 17863,27952 17796,27991 17728,28030 17651,28051 17573,28051 17495,28051 17418,28030 17351,27991 17283,27952 17227,27896 17188,27829 17149,27761 17128,27684 17128,27606 17128,27528 17149,27451 17188,27384 17227,27316 17283,27260 17351,27221 17418,27182 17495,27161 17573,27161 17651,27161 17728,27182 17796,27221 17863,27260 17919,27316 17958,27384 17997,27451 18018,27528 18018,27606 L 18018,27606 Z"/>
      <path fill="none" stroke="rgb(18,118,34)" d="M 18018,27606 C 18018,27684 17997,27761 17958,27829 17919,27896 17863,27952 17796,27991 17728,28030 17651,28051 17573,28051 17495,28051 17418,28030 17351,27991 17283,27952 17227,27896 17188,27829 17149,27761 17128,27684 17128,27606 17128,27528 17149,27451 17188,27384 17227,27316 17283,27260 17351,27221 17418,27182 17495,27161 17573,27161 17651,27161 17728,27182 17796,27221 17863,27260 17919,27316 17958,27384 17997,27451 18018,27528 18018,27606 Z"/>
     </g>
    </g>
    <g class="com.sun.star.drawing.CustomShape">
     <g id="id27">
      <rect class="BoundingBox" stroke="none" fill="none" x="17382" y="27542" width="766" height="766"/>
      <path fill="rgb(70,138,26)" stroke="none" d="M 18146,27925 C 18146,27991 18128,28057 18095,28115 18061,28173 18013,28221 17955,28255 17897,28288 17831,28306 17765,28306 17698,28306 17632,28288 17574,28255 17516,28221 17468,28173 17434,28115 17401,28057 17383,27991 17383,27925 17383,27858 17401,27792 17434,27734 17468,27676 17516,27628 17574,27594 17632,27561 17698,27543 17765,27543 17831,27543 17897,27561 17955,27594 18013,27628 18061,27676 18095,27734 18128,27792 18146,27858 18146,27925 L 18146,27925 Z"/>
      <path fill="none" stroke="rgb(57,85,17)" d="M 18146,27925 C 18146,27991 18128,28057 18095,28115 18061,28173 18013,28221 17955,28255 17897,28288 17831,28306 17765,28306 17698,28306 17632,28288 17574,28255 17516,28221 17468,28173 17434,28115 17401,28057 17383,27991 17383,27925 17383,27858 17401,27792 17434,27734 17468,27676 17516,27628 17574,27594 17632,27561 17698,27543 17765,27543 17831,27543 17897,27561 17955,27594 18013,27628 18061,27676 18095,27734 18128,27792 18146,27858 18146,27925 Z"/>
     </g>
    </g>
   </g>
   <g class="Group">
    <g class="com.sun.star.drawing.CustomShape">
     <g id="id28">
      <rect class="BoundingBox" stroke="none" fill="none" x="17890" y="27542" width="766" height="766"/>
      <path fill="rgb(70,138,26)" stroke="none" d="M 18654,27925 C 18654,27991 18636,28057 18603,28115 18569,28173 18521,28221 18463,28255 18405,28288 18339,28306 18273,28306 18206,28306 18140,28288 18082,28255 18024,28221 17976,28173 17942,28115 17909,28057 17891,27991 17891,27925 17891,27858 17909,27792 17942,27734 17976,27676 18024,27628 18082,27594 18140,27561 18206,27543 18273,27543 18339,27543 18405,27561 18463,27594 18521,27628 18569,27676 18603,27734 18636,27792 18654,27858 18654,27925 L 18654,27925 Z"/>
      <path fill="none" stroke="rgb(57,85,17)" d="M 18654,27925 C 18654,27991 18636,28057 18603,28115 18569,28173 18521,28221 18463,28255 18405,28288 18339,28306 18273,28306 18206,28306 18140,28288 18082,28255 18024,28221 17976,28173 17942,28115 17909,28057 17891,27991 17891,27925 17891,27858 17909,27792 17942,27734 17976,27676 18024,27628 18082,27594 18140,27561 18206,27543 18273,27543 18339,27543 18405,27561 18463,27594 18521,27628 18569,27676 18603,27734 18636,27792 18654,27858 18654,27925 Z"/>
     </g>
    </g>
    <g class="com.sun.star.drawing.CustomShape">
     <g id="id29">
      <rect class="BoundingBox" stroke="none" fill="none" x="18016" y="27160" width="893" height="893"/>
      <path fill="rgb(6,154,46)" stroke="none" d="M 18907,27606 C 18907,27684 18886,27761 18847,27829 18808,27896 18752,27952 18685,27991 18617,28030 18540,28051 18462,28051 18384,28051 18307,28030 18240,27991 18172,27952 18116,27896 18077,27829 18038,27761 18017,27684 18017,27606 18017,27528 18038,27451 18077,27384 18116,27316 18172,27260 18240,27221 18307,27182 18384,27161 18462,27161 18540,27161 18617,27182 18685,27221 18752,27260 18808,27316 18847,27384 18886,27451 18907,27528 18907,27606 L 18907,27606 Z"/>
      <path fill="none" stroke="rgb(18,118,34)" d="M 18907,27606 C 18907,27684 18886,27761 18847,27829 18808,27896 18752,27952 18685,27991 18617,28030 18540,28051 18462,28051 18384,28051 18307,28030 18240,27991 18172,27952 18116,27896 18077,27829 18038,27761 18017,27684 18017,27606 18017,27528 18038,27451 18077,27384 18116,27316 18172,27260 18240,27221 18307,27182 18384,27161 18462,27161 18540,27161 18617,27182 18685,27221 18752,27260 18808,27316 18847,27384 18886,27451 18907,27528 18907,27606 Z"/>
     </g>
    </g>
    <g class="com.sun.star.drawing.CustomShape">
     <g id="id30">
      <rect class="BoundingBox" stroke="none" fill="none" x="18271" y="27542" width="766" height="766"/>
      <path fill="rgb(70,138,26)" stroke="none" d="M 19035,27925 C 19035,27991 19017,28057 18984,28115 18950,28173 18902,28221 18844,28255 18786,28288 18720,28306 18654,28306 18587,28306 18521,28288 18463,28255 18405,28221 18357,28173 18323,28115 18290,28057 18272,27991 18272,27925 18272,27858 18290,27792 18323,27734 18357,27676 18405,27628 18463,27594 18521,27561 18587,27543 18654,27543 18720,27543 18786,27561 18844,27594 18902,27628 18950,27676 18984,27734 19017,27792 19035,27858 19035,27925 L 19035,27925 Z"/>
      <path fill="none" stroke="rgb(57,85,17)" d="M 19035,27925 C 19035,27991 19017,28057 18984,28115 18950,28173 18902,28221 18844,28255 18786,28288 18720,28306 18654,28306 18587,28306 18521,28288 18463,28255 18405,28221 18357,28173 18323,28115 18290,28057 18272,27991 18272,27925 18272,27858 18290,27792 18323,27734 18357,27676 18405,27628 18463,27594 18521,27561 18587,27543 18654,27543 18720,27543 18786,27561 18844,27594 18902,27628 18950,27676 18984,27734 19017,27792 19035,27858 19035,27925 Z"/>
     </g>
    </g>
   </g>
   <g class="Group">
    <g class="com.sun.star.drawing.CustomShape">
     <g id="id31">
      <rect class="BoundingBox" stroke="none" fill="none" x="18525" y="25002" width="766" height="766"/>
      <path fill="rgb(70,138,26)" stroke="none" d="M 19289,25385 C 19289,25451 19271,25517 19238,25575 19204,25633 19156,25681 19098,25715 19040,25748 18974,25766 18908,25766 18841,25766 18775,25748 18717,25715 18659,25681 18611,25633 18577,25575 18544,25517 18526,25451 18526,25385 18526,25318 18544,25252 18577,25194 18611,25136 18659,25088 18717,25054 18775,25021 18841,25003 18908,25003 18974,25003 19040,25021 19098,25054 19156,25088 19204,25136 19238,25194 19271,25252 19289,25318 19289,25385 L 19289,25385 Z"/>
      <path fill="none" stroke="rgb(57,85,17)" d="M 19289,25385 C 19289,25451 19271,25517 19238,25575 19204,25633 19156,25681 19098,25715 19040,25748 18974,25766 18908,25766 18841,25766 18775,25748 18717,25715 18659,25681 18611,25633 18577,25575 18544,25517 18526,25451 18526,25385 18526,25318 18544,25252 18577,25194 18611,25136 18659,25088 18717,25054 18775,25021 18841,25003 18908,25003 18974,25003 19040,25021 19098,25054 19156,25088 19204,25136 19238,25194 19271,25252 19289,25318 19289,25385 Z"/>
     </g>
    </g>
    <g class="com.sun.star.drawing.CustomShape">
     <g id="id32">
      <rect class="BoundingBox" stroke="none" fill="none" x="18651" y="24620" width="893" height="893"/>
      <path fill="rgb(6,154,46)" stroke="none" d="M 19542,25066 C 19542,25144 19521,25221 19482,25289 19443,25356 19387,25412 19320,25451 19252,25490 19175,25511 19097,25511 19019,25511 18942,25490 18875,25451 18807,25412 18751,25356 18712,25289 18673,25221 18652,25144 18652,25066 18652,24988 18673,24911 18712,24844 18751,24776 18807,24720 18875,24681 18942,24642 19019,24621 19097,24621 19175,24621 19252,24642 19320,24681 19387,24720 19443,24776 19482,24844 19521,24911 19542,24988 19542,25066 L 19542,25066 Z"/>
      <path fill="none" stroke="rgb(18,118,34)" d="M 19542,25066 C 19542,25144 19521,25221 19482,25289 19443,25356 19387,25412 19320,25451 19252,25490 19175,25511 19097,25511 19019,25511 18942,25490 18875,25451 18807,25412 18751,25356 18712,25289 18673,25221 18652,25144 18652,25066 18652,24988 18673,24911 18712,24844 18751,24776 18807,24720 18875,24681 18942,24642 19019,24621 19097,24621 19175,24621 19252,24642 19320,24681 19387,24720 19443,24776 19482,24844 19521,24911 19542,24988 19542,25066 Z"/>
     </g>
    </g>
    <g class="com.sun.star.drawing.CustomShape">
     <g id="id33">
      <rect class="BoundingBox" stroke="none" fill="none" x="18906" y="25002" width="766" height="766"/>
      <path fill="rgb(70,138,26)" stroke="none" d="M 19670,25385 C 19670,25451 19652,25517 19619,25575 19585,25633 19537,25681 19479,25715 19421,25748 19355,25766 19289,25766 19222,25766 19156,25748 19098,25715 19040,25681 18992,25633 18958,25575 18925,25517 18907,25451 18907,25385 18907,25318 18925,25252 18958,25194 18992,25136 19040,25088 19098,25054 19156,25021 19222,25003 19289,25003 19355,25003 19421,25021 19479,25054 19537,25088 19585,25136 19619,25194 19652,25252 19670,25318 19670,25385 L 19670,25385 Z"/>
      <path fill="none" stroke="rgb(57,85,17)" d="M 19670,25385 C 19670,25451 19652,25517 19619,25575 19585,25633 19537,25681 19479,25715 19421,25748 19355,25766 19289,25766 19222,25766 19156,25748 19098,25715 19040,25681 18992,25633 18958,25575 18925,25517 18907,25451 18907,25385 18907,25318 18925,25252 18958,25194 18992,25136 19040,25088 19098,25054 19156,25021 19222,25003 19289,25003 19355,25003 19421,25021 19479,25054 19537,25088 19585,25136 19619,25194 19652,25252 19670,25318 19670,25385 Z"/>
     </g>
    </g>
   </g>
   <g class="Group">
    <g class="com.sun.star.drawing.CustomShape">
     <g id="id34">
      <rect class="BoundingBox" stroke="none" fill="none" x="18525" y="25891" width="766" height="766"/>
      <path fill="rgb(70,138,26)" stroke="none" d="M 19289,26274 C 19289,26340 19271,26406 19238,26464 19204,26522 19156,26570 19098,26604 19040,26637 18974,26655 18908,26655 18841,26655 18775,26637 18717,26604 18659,26570 18611,26522 18577,26464 18544,26406 18526,26340 18526,26274 18526,26207 18544,26141 18577,26083 18611,26025 18659,25977 18717,25943 18775,25910 18841,25892 18908,25892 18974,25892 19040,25910 19098,25943 19156,25977 19204,26025 19238,26083 19271,26141 19289,26207 19289,26274 L 19289,26274 Z"/>
      <path fill="none" stroke="rgb(57,85,17)" d="M 19289,26274 C 19289,26340 19271,26406 19238,26464 19204,26522 19156,26570 19098,26604 19040,26637 18974,26655 18908,26655 18841,26655 18775,26637 18717,26604 18659,26570 18611,26522 18577,26464 18544,26406 18526,26340 18526,26274 18526,26207 18544,26141 18577,26083 18611,26025 18659,25977 18717,25943 18775,25910 18841,25892 18908,25892 18974,25892 19040,25910 19098,25943 19156,25977 19204,26025 19238,26083 19271,26141 19289,26207 19289,26274 Z"/>
     </g>
    </g>
    <g class="com.sun.star.drawing.CustomShape">
     <g id="id35">
      <rect class="BoundingBox" stroke="none" fill="none" x="18651" y="25509" width="893" height="893"/>
      <path fill="rgb(6,154,46)" stroke="none" d="M 19542,25955 C 19542,26033 19521,26110 19482,26178 19443,26245 19387,26301 19320,26340 19252,26379 19175,26400 19097,26400 19019,26400 18942,26379 18875,26340 18807,26301 18751,26245 18712,26178 18673,26110 18652,26033 18652,25955 18652,25877 18673,25800 18712,25733 18751,25665 18807,25609 18875,25570 18942,25531 19019,25510 19097,25510 19175,25510 19252,25531 19320,25570 19387,25609 19443,25665 19482,25733 19521,25800 19542,25877 19542,25955 L 19542,25955 Z"/>
      <path fill="none" stroke="rgb(18,118,34)" d="M 19542,25955 C 19542,26033 19521,26110 19482,26178 19443,26245 19387,26301 19320,26340 19252,26379 19175,26400 19097,26400 19019,26400 18942,26379 18875,26340 18807,26301 18751,26245 18712,26178 18673,26110 18652,26033 18652,25955 18652,25877 18673,25800 18712,25733 18751,25665 18807,25609 18875,25570 18942,25531 19019,25510 19097,25510 19175,25510 19252,25531 19320,25570 19387,25609 19443,25665 19482,25733 19521,25800 19542,25877 19542,25955 Z"/>
     </g>
    </g>
    <g class="com.sun.star.drawing.CustomShape">
     <g id="id36">
      <rect class="BoundingBox" stroke="none" fill="none" x="18906" y="25891" width="766" height="766"/>
      <path fill="rgb(70,138,26)" stroke="none" d="M 19670,26274 C 19670,26340 19652,26406 19619,26464 19585,26522 19537,26570 19479,26604 19421,26637 19355,26655 19289,26655 19222,26655 19156,26637 19098,26604 19040,26570 18992,26522 18958,26464 18925,26406 18907,26340 18907,26274 18907,26207 18925,26141 18958,26083 18992,26025 19040,25977 19098,25943 19156,25910 19222,25892 19289,25892 19355,25892 19421,25910 19479,25943 19537,25977 19585,26025 19619,26083 19652,26141 19670,26207 19670,26274 L 19670,26274 Z"/>
      <path fill="none" stroke="rgb(57,85,17)" d="M 19670,26274 C 19670,26340 19652,26406 19619,26464 19585,26522 19537,26570 19479,26604 19421,26637 19355,26655 19289,26655 19222,26655 19156,26637 19098,26604 19040,26570 18992,26522 18958,26464 18925,26406 18907,26340 18907,26274 18907,26207 18925,26141 18958,26083 18992,26025 19040,25977 19098,25943 19156,25910 19222,25892 19289,25892 19355,25892 19421,25910 19479,25943 19537,25977 19585,26025 19619,26083 19652,26141 19670,26207 19670,26274 Z"/>
     </g>
    </g>
   </g>
   <g class="Group">
    <g class="com.sun.star.drawing.CustomShape">
     <g id="id37">
      <rect class="BoundingBox" stroke="none" fill="none" x="18525" y="26780" width="766" height="766"/>
      <path fill="rgb(70,138,26)" stroke="none" d="M 19289,27163 C 19289,27229 19271,27295 19238,27353 19204,27411 19156,27459 19098,27493 19040,27526 18974,27544 18908,27544 18841,27544 18775,27526 18717,27493 18659,27459 18611,27411 18577,27353 18544,27295 18526,27229 18526,27163 18526,27096 18544,27030 18577,26972 18611,26914 18659,26866 18717,26832 18775,26799 18841,26781 18908,26781 18974,26781 19040,26799 19098,26832 19156,26866 19204,26914 19238,26972 19271,27030 19289,27096 19289,27163 L 19289,27163 Z"/>
      <path fill="none" stroke="rgb(57,85,17)" d="M 19289,27163 C 19289,27229 19271,27295 19238,27353 19204,27411 19156,27459 19098,27493 19040,27526 18974,27544 18908,27544 18841,27544 18775,27526 18717,27493 18659,27459 18611,27411 18577,27353 18544,27295 18526,27229 18526,27163 18526,27096 18544,27030 18577,26972 18611,26914 18659,26866 18717,26832 18775,26799 18841,26781 18908,26781 18974,26781 19040,26799 19098,26832 19156,26866 19204,26914 19238,26972 19271,27030 19289,27096 19289,27163 Z"/>
     </g>
    </g>
    <g class="com.sun.star.drawing.CustomShape">
     <g id="id38">
      <rect class="BoundingBox" stroke="none" fill="none" x="18651" y="26398" width="893" height="893"/>
      <path fill="rgb(6,154,46)" stroke="none" d="M 19542,26844 C 19542,26922 19521,26999 19482,27067 19443,27134 19387,27190 19320,27229 19252,27268 19175,27289 19097,27289 19019,27289 18942,27268 18875,27229 18807,27190 18751,27134 18712,27067 18673,26999 18652,26922 18652,26844 18652,26766 18673,26689 18712,26622 18751,26554 18807,26498 18875,26459 18942,26420 19019,26399 19097,26399 19175,26399 19252,26420 19320,26459 19387,26498 19443,26554 19482,26622 19521,26689 19542,26766 19542,26844 L 19542,26844 Z"/>
      <path fill="none" stroke="rgb(18,118,34)" d="M 19542,26844 C 19542,26922 19521,26999 19482,27067 19443,27134 19387,27190 19320,27229 19252,27268 19175,27289 19097,27289 19019,27289 18942,27268 18875,27229 18807,27190 18751,27134 18712,27067 18673,26999 18652,26922 18652,26844 18652,26766 18673,26689 18712,26622 18751,26554 18807,26498 18875,26459 18942,26420 19019,26399 19097,26399 19175,26399 19252,26420 19320,26459 19387,26498 19443,26554 19482,26622 19521,26689 19542,26766 19542,26844 Z"/>
     </g>
    </g>
    <g class="com.sun.star.drawing.CustomShape">
     <g id="id39">
      <rect class="BoundingBox" stroke="none" fill="none" x="18906" y="26780" width="766" height="766"/>
      <path fill="rgb(70,138,26)" stroke="none" d="M 19670,27163 C 19670,27229 19652,27295 19619,27353 19585,27411 19537,27459 19479,27493 19421,27526 19355,27544 19289,27544 19222,27544 19156,27526 19098,27493 19040,27459 18992,27411 18958,27353 18925,27295 18907,27229 18907,27163 18907,27096 18925,27030 18958,26972 18992,26914 19040,26866 19098,26832 19156,26799 19222,26781 19289,26781 19355,26781 19421,26799 19479,26832 19537,26866 19585,26914 19619,26972 19652,27030 19670,27096 19670,27163 L 19670,27163 Z"/>
      <path fill="none" stroke="rgb(57,85,17)" d="M 19670,27163 C 19670,27229 19652,27295 19619,27353 19585,27411 19537,27459 19479,27493 19421,27526 19355,27544 19289,27544 19222,27544 19156,27526 19098,27493 19040,27459 18992,27411 18958,27353 18925,27295 18907,27229 18907,27163 18907,27096 18925,27030 18958,26972 18992,26914 19040,26866 19098,26832 19156,26799 19222,26781 19289,26781 19355,26781 19421,26799 19479,26832 19537,26866 19585,26914 19619,26972 19652,27030 19670,27096 19670,27163 Z"/>
     </g>
    </g>
   </g>
   <g class="Group">
    <g class="com.sun.star.drawing.CustomShape">
     <g id="id40">
      <rect class="BoundingBox" stroke="none" fill="none" x="18525" y="27669" width="766" height="766"/>
      <path fill="rgb(70,138,26)" stroke="none" d="M 19289,28052 C 19289,28118 19271,28184 19238,28242 19204,28300 19156,28348 19098,28382 19040,28415 18974,28433 18908,28433 18841,28433 18775,28415 18717,28382 18659,28348 18611,28300 18577,28242 18544,28184 18526,28118 18526,28052 18526,27985 18544,27919 18577,27861 18611,27803 18659,27755 18717,27721 18775,27688 18841,27670 18908,27670 18974,27670 19040,27688 19098,27721 19156,27755 19204,27803 19238,27861 19271,27919 19289,27985 19289,28052 L 19289,28052 Z"/>
      <path fill="none" stroke="rgb(57,85,17)" d="M 19289,28052 C 19289,28118 19271,28184 19238,28242 19204,28300 19156,28348 19098,28382 19040,28415 18974,28433 18908,28433 18841,28433 18775,28415 18717,28382 18659,28348 18611,28300 18577,28242 18544,28184 18526,28118 18526,28052 18526,27985 18544,27919 18577,27861 18611,27803 18659,27755 18717,27721 18775,27688 18841,27670 18908,27670 18974,27670 19040,27688 19098,27721 19156,27755 19204,27803 19238,27861 19271,27919 19289,27985 19289,28052 Z"/>
     </g>
    </g>
    <g class="com.sun.star.drawing.CustomShape">
     <g id="id41">
      <rect class="BoundingBox" stroke="none" fill="none" x="18651" y="27287" width="893" height="893"/>
      <path fill="rgb(6,154,46)" stroke="none" d="M 19542,27733 C 19542,27811 19521,27888 19482,27956 19443,28023 19387,28079 19320,28118 19252,28157 19175,28178 19097,28178 19019,28178 18942,28157 18875,28118 18807,28079 18751,28023 18712,27956 18673,27888 18652,27811 18652,27733 18652,27655 18673,27578 18712,27511 18751,27443 18807,27387 18875,27348 18942,27309 19019,27288 19097,27288 19175,27288 19252,27309 19320,27348 19387,27387 19443,27443 19482,27511 19521,27578 19542,27655 19542,27733 L 19542,27733 Z"/>
      <path fill="none" stroke="rgb(18,118,34)" d="M 19542,27733 C 19542,27811 19521,27888 19482,27956 19443,28023 19387,28079 19320,28118 19252,28157 19175,28178 19097,28178 19019,28178 18942,28157 18875,28118 18807,28079 18751,28023 18712,27956 18673,27888 18652,27811 18652,27733 18652,27655 18673,27578 18712,27511 18751,27443 18807,27387 18875,27348 18942,27309 19019,27288 19097,27288 19175,27288 19252,27309 19320,27348 19387,27387 19443,27443 19482,27511 19521,27578 19542,27655 19542,27733 Z"/>
     </g>
    </g>
    <g class="com.sun.star.drawing.CustomShape">
     <g id="id42">
      <rect class="BoundingBox" stroke="none" fill="none" x="18906" y="27669" width="766" height="766"/>
      <path fill="rgb(70,138,26)" stroke="none" d="M 19670,28052 C 19670,28118 19652,28184 19619,28242 19585,28300 19537,28348 19479,28382 19421,28415 19355,28433 19289,28433 19222,28433 19156,28415 19098,28382 19040,28348 18992,28300 18958,28242 18925,28184 18907,28118 18907,28052 18907,27985 18925,27919 18958,27861 18992,27803 19040,27755 19098,27721 19156,27688 19222,27670 19289,27670 19355,27670 19421,27688 19479,27721 19537,27755 19585,27803 19619,27861 19652,27919 19670,27985 19670,28052 L 19670,28052 Z"/>
      <path fill="none" stroke="rgb(57,85,17)" d="M 19670,28052 C 19670,28118 19652,28184 19619,28242 19585,28300 19537,28348 19479,28382 19421,28415 19355,28433 19289,28433 19222,28433 19156,28415 19098,28382 19040,28348 18992,28300 18958,28242 18925,28184 18907,28118 18907,28052 18907,27985 18925,27919 18958,27861 18992,27803 19040,27755 19098,27721 19156,27688 19222,27670 19289,27670 19355,27670 19421,27688 19479,27721 19537,27755 19585,27803 19619,27861 19652,27919 19670,27985 19670,28052 Z"/>
     </g>
    </g>
   </g>
   <g class="Group">
    <g class="com.sun.star.drawing.CustomShape">
     <g id="id43">
      <rect class="BoundingBox" stroke="none" fill="none" x="16874" y="25002" width="766" height="766"/>
      <path fill="rgb(70,138,26)" stroke="none" d="M 17638,25385 C 17638,25451 17620,25517 17587,25575 17553,25633 17505,25681 17447,25715 17389,25748 17323,25766 17257,25766 17190,25766 17124,25748 17066,25715 17008,25681 16960,25633 16926,25575 16893,25517 16875,25451 16875,25385 16875,25318 16893,25252 16926,25194 16960,25136 17008,25088 17066,25054 17124,25021 17190,25003 17257,25003 17323,25003 17389,25021 17447,25054 17505,25088 17553,25136 17587,25194 17620,25252 17638,25318 17638,25385 L 17638,25385 Z"/>
      <path fill="none" stroke="rgb(57,85,17)" d="M 17638,25385 C 17638,25451 17620,25517 17587,25575 17553,25633 17505,25681 17447,25715 17389,25748 17323,25766 17257,25766 17190,25766 17124,25748 17066,25715 17008,25681 16960,25633 16926,25575 16893,25517 16875,25451 16875,25385 16875,25318 16893,25252 16926,25194 16960,25136 17008,25088 17066,25054 17124,25021 17190,25003 17257,25003 17323,25003 17389,25021 17447,25054 17505,25088 17553,25136 17587,25194 17620,25252 17638,25318 17638,25385 Z"/>
     </g>
    </g>
    <g class="com.sun.star.drawing.CustomShape">
     <g id="id44">
      <rect class="BoundingBox" stroke="none" fill="none" x="17000" y="24620" width="893" height="893"/>
      <path fill="rgb(6,154,46)" stroke="none" d="M 17891,25066 C 17891,25144 17870,25221 17831,25289 17792,25356 17736,25412 17669,25451 17601,25490 17524,25511 17446,25511 17368,25511 17291,25490 17224,25451 17156,25412 17100,25356 17061,25289 17022,25221 17001,25144 17001,25066 17001,24988 17022,24911 17061,24844 17100,24776 17156,24720 17224,24681 17291,24642 17368,24621 17446,24621 17524,24621 17601,24642 17669,24681 17736,24720 17792,24776 17831,24844 17870,24911 17891,24988 17891,25066 L 17891,25066 Z"/>
      <path fill="none" stroke="rgb(18,118,34)" d="M 17891,25066 C 17891,25144 17870,25221 17831,25289 17792,25356 17736,25412 17669,25451 17601,25490 17524,25511 17446,25511 17368,25511 17291,25490 17224,25451 17156,25412 17100,25356 17061,25289 17022,25221 17001,25144 17001,25066 17001,24988 17022,24911 17061,24844 17100,24776 17156,24720 17224,24681 17291,24642 17368,24621 17446,24621 17524,24621 17601,24642 17669,24681 17736,24720 17792,24776 17831,24844 17870,24911 17891,24988 17891,25066 Z"/>
     </g>
    </g>
    <g class="com.sun.star.drawing.CustomShape">
     <g id="id45">
      <rect class="BoundingBox" stroke="none" fill="none" x="17255" y="25002" width="766" height="766"/>
      <path fill="rgb(70,138,26)" stroke="none" d="M 18019,25385 C 18019,25451 18001,25517 17968,25575 17934,25633 17886,25681 17828,25715 17770,25748 17704,25766 17638,25766 17571,25766 17505,25748 17447,25715 17389,25681 17341,25633 17307,25575 17274,25517 17256,25451 17256,25385 17256,25318 17274,25252 17307,25194 17341,25136 17389,25088 17447,25054 17505,25021 17571,25003 17638,25003 17704,25003 17770,25021 17828,25054 17886,25088 17934,25136 17968,25194 18001,25252 18019,25318 18019,25385 L 18019,25385 Z"/>
      <path fill="none" stroke="rgb(57,85,17)" d="M 18019,25385 C 18019,25451 18001,25517 17968,25575 17934,25633 17886,25681 17828,25715 17770,25748 17704,25766 17638,25766 17571,25766 17505,25748 17447,25715 17389,25681 17341,25633 17307,25575 17274,25517 17256,25451 17256,25385 17256,25318 17274,25252 17307,25194 17341,25136 17389,25088 17447,25054 17505,25021 17571,25003 17638,25003 17704,25003 17770,25021 17828,25054 17886,25088 17934,25136 17968,25194 18001,25252 18019,25318 18019,25385 Z"/>
     </g>
    </g>
   </g>
   <g class="Group">
    <g class="com.sun.star.drawing.CustomShape">
     <g id="id46">
      <rect class="BoundingBox" stroke="none" fill="none" x="17636" y="25002" width="766" height="766"/>
      <path fill="rgb(70,138,26)" stroke="none" d="M 18400,25385 C 18400,25451 18382,25517 18349,25575 18315,25633 18267,25681 18209,25715 18151,25748 18085,25766 18019,25766 17952,25766 17886,25748 17828,25715 17770,25681 17722,25633 17688,25575 17655,25517 17637,25451 17637,25385 17637,25318 17655,25252 17688,25194 17722,25136 17770,25088 17828,25054 17886,25021 17952,25003 18019,25003 18085,25003 18151,25021 18209,25054 18267,25088 18315,25136 18349,25194 18382,25252 18400,25318 18400,25385 L 18400,25385 Z"/>
      <path fill="none" stroke="rgb(57,85,17)" d="M 18400,25385 C 18400,25451 18382,25517 18349,25575 18315,25633 18267,25681 18209,25715 18151,25748 18085,25766 18019,25766 17952,25766 17886,25748 17828,25715 17770,25681 17722,25633 17688,25575 17655,25517 17637,25451 17637,25385 17637,25318 17655,25252 17688,25194 17722,25136 17770,25088 17828,25054 17886,25021 17952,25003 18019,25003 18085,25003 18151,25021 18209,25054 18267,25088 18315,25136 18349,25194 18382,25252 18400,25318 18400,25385 Z"/>
     </g>
    </g>
    <g class="com.sun.star.drawing.CustomShape">
     <g id="id47">
      <rect class="BoundingBox" stroke="none" fill="none" x="17762" y="24620" width="893" height="893"/>
      <path fill="rgb(6,154,46)" stroke="none" d="M 18653,25066 C 18653,25144 18632,25221 18593,25289 18554,25356 18498,25412 18431,25451 18363,25490 18286,25511 18208,25511 18130,25511 18053,25490 17986,25451 17918,25412 17862,25356 17823,25289 17784,25221 17763,25144 17763,25066 17763,24988 17784,24911 17823,24844 17862,24776 17918,24720 17986,24681 18053,24642 18130,24621 18208,24621 18286,24621 18363,24642 18431,24681 18498,24720 18554,24776 18593,24844 18632,24911 18653,24988 18653,25066 L 18653,25066 Z"/>
      <path fill="none" stroke="rgb(18,118,34)" d="M 18653,25066 C 18653,25144 18632,25221 18593,25289 18554,25356 18498,25412 18431,25451 18363,25490 18286,25511 18208,25511 18130,25511 18053,25490 17986,25451 17918,25412 17862,25356 17823,25289 17784,25221 17763,25144 17763,25066 17763,24988 17784,24911 17823,24844 17862,24776 17918,24720 17986,24681 18053,24642 18130,24621 18208,24621 18286,24621 18363,24642 18431,24681 18498,24720 18554,24776 18593,24844 18632,24911 18653,24988 18653,25066 Z"/>
     </g>
    </g>
    <g class="com.sun.star.drawing.CustomShape">
     <g id="id48">
      <rect class="BoundingBox" stroke="none" fill="none" x="18017" y="25002" width="766" height="766"/>
      <path fill="rgb(70,138,26)" stroke="none" d="M 18781,25385 C 18781,25451 18763,25517 18730,25575 18696,25633 18648,25681 18590,25715 18532,25748 18466,25766 18400,25766 18333,25766 18267,25748 18209,25715 18151,25681 18103,25633 18069,25575 18036,25517 18018,25451 18018,25385 18018,25318 18036,25252 18069,25194 18103,25136 18151,25088 18209,25054 18267,25021 18333,25003 18400,25003 18466,25003 18532,25021 18590,25054 18648,25088 18696,25136 18730,25194 18763,25252 18781,25318 18781,25385 L 18781,25385 Z"/>
      <path fill="none" stroke="rgb(57,85,17)" d="M 18781,25385 C 18781,25451 18763,25517 18730,25575 18696,25633 18648,25681 18590,25715 18532,25748 18466,25766 18400,25766 18333,25766 18267,25748 18209,25715 18151,25681 18103,25633 18069,25575 18036,25517 18018,25451 18018,25385 18018,25318 18036,25252 18069,25194 18103,25136 18151,25088 18209,25054 18267,25021 18333,25003 18400,25003 18466,25003 18532,25021 18590,25054 18648,25088 18696,25136 18730,25194 18763,25252 18781,25318 18781,25385 Z"/>
     </g>
    </g>
   </g>
  </g>
 </g>
</svg>