<?xml version="1.0" encoding="UTF-8"?>
<!DOCTYPE svg PUBLIC "-//W3C//DTD SVG 1.1//EN" "http://www.w3.org/Graphics/SVG/1.1/DTD/svg11.dtd">
<svg version="1.2" width="38.39mm" height="38.39mm" viewBox="11400 24608 3839 3839" preserveAspectRatio="xMidYMid" fill-rule="evenodd" stroke-width="28.222" stroke-linejoin="round" xmlns="http://www.w3.org/2000/svg" xmlns:ooo="http://xml.openoffice.org/svg/export" xmlns:xlink="http://www.w3.org/1999/xlink" xmlns:presentation="http://sun.com/xmlns/staroffice/presentation" xmlns:smil="http://www.w3.org/2001/SMIL20/" xmlns:anim="urn:oasis:names:tc:opendocument:xmlns:animation:1.0" xml:space="preserve">
 <defs class="EmbeddedBulletChars">
  <g id="bullet-char-template-57356" transform="scale(0.00048828125,-0.00048828125)">
   <path d="M 580,1141 L 1163,571 580,0 -4,571 580,1141 Z"/>
  </g>
  <g id="bullet-char-template-57354" transform="scale(0.00048828125,-0.00048828125)">
   <path d="M 8,1128 L 1137,1128 1137,0 8,0 8,1128 Z"/>
  </g>
  <g id="bullet-char-template-10146" transform="scale(0.00048828125,-0.00048828125)">
   <path d="M 174,0 L 602,739 174,1481 1456,739 174,0 Z M 1358,739 L 309,1346 659,739 1358,739 Z"/>
  </g>
  <g id="bullet-char-template-10132" transform="scale(0.00048828125,-0.00048828125)">
   <path d="M 2015,739 L 1276,0 717,0 1260,543 174,543 174,936 1260,936 717,1481 1274,1481 2015,739 Z"/>
  </g>
  <g id="bullet-char-template-10007" transform="scale(0.00048828125,-0.00048828125)">
   <path d="M 0,-2 C -7,14 -16,27 -25,37 L 356,567 C 262,823 215,952 215,954 215,979 228,992 255,992 264,992 276,990 289,987 310,991 331,999 354,1012 L 381,999 492,748 772,1049 836,1024 860,1049 C 881,1039 901,1025 922,1006 886,937 835,863 770,784 769,783 710,716 594,584 L 774,223 C 774,196 753,168 711,139 L 727,119 C 717,90 699,76 672,76 641,76 570,178 457,381 L 164,-76 C 142,-110 111,-127 72,-127 30,-127 9,-110 8,-76 1,-67 -2,-52 -2,-32 -2,-23 -1,-13 0,-2 Z"/>
  </g>
  <g id="bullet-char-template-10004" transform="scale(0.00048828125,-0.00048828125)">
   <path d="M 285,-33 C 182,-33 111,30 74,156 52,228 41,333 41,471 41,549 55,616 82,672 116,743 169,778 240,778 293,778 328,747 346,684 L 369,508 C 377,444 397,411 428,410 L 1163,1116 C 1174,1127 1196,1133 1229,1133 1271,1133 1292,1118 1292,1087 L 1292,965 C 1292,929 1282,901 1262,881 L 442,47 C 390,-6 338,-33 285,-33 Z"/>
  </g>
  <g id="bullet-char-template-9679" transform="scale(0.00048828125,-0.00048828125)">
   <path d="M 813,0 C 632,0 489,54 383,161 276,268 223,411 223,592 223,773 276,916 383,1023 489,1130 632,1184 813,1184 992,1184 1136,1130 1245,1023 1353,916 1407,772 1407,592 1407,412 1353,268 1245,161 1136,54 992,0 813,0 Z"/>
  </g>
  <g id="bullet-char-template-8226" transform="scale(0.00048828125,-0.00048828125)">
   <path d="M 346,457 C 273,457 209,483 155,535 101,586 74,649 74,723 74,796 101,859 155,911 209,963 273,989 346,989 419,989 480,963 531,910 582,859 608,796 608,723 608,648 583,586 532,535 482,483 420,457 346,457 Z"/>
  </g>
  <g id="bullet-char-template-8211" transform="scale(0.00048828125,-0.00048828125)">
   <path d="M -4,459 L 1135,459 1135,606 -4,606 -4,459 Z"/>
  </g>
  <g id="bullet-char-template-61548" transform="scale(0.00048828125,-0.00048828125)">
   <path d="M 173,740 C 173,903 231,1043 346,1159 462,1274 601,1332 765,1332 928,1332 1067,1274 1183,1159 1299,1043 1357,903 1357,740 1357,577 1299,437 1183,322 1067,206 928,148 765,148 601,148 462,206 346,322 231,437 173,577 173,740 Z"/>
  </g>
 </defs>
 <g class="Page">
  <g class="Group">
   <g class="com.sun.star.drawing.CustomShape">
    <g id="id3">
     <rect class="BoundingBox" stroke="none" fill="none" x="11400" y="24608" width="3839" height="3839"/>
     <path fill="rgb(94,185,30)" stroke="none" d="M 13319,28432 L 11414,28432 11414,24622 15224,24622 15224,28432 13319,28432 Z"/>
     <path fill="none" stroke="rgb(0,0,0)" stroke-width="28" stroke-linejoin="round" d="M 13319,28432 L 11414,28432 11414,24622 15224,24622 15224,28432 13319,28432 Z"/>
    </g>
   </g>
   <g class="Group">
    <g class="com.sun.star.drawing.CustomShape">
     <g id="id4">
      <rect class="BoundingBox" stroke="none" fill="none" x="12175" y="25891" width="257" height="765"/>
      <path fill="rgb(123,61,0)" stroke="none" d="M 12303,26654 L 12176,26654 12176,25892 12430,25892 12430,26654 12303,26654 Z"/>
      <path fill="none" stroke="rgb(123,61,0)" d="M 12303,26654 L 12176,26654 12176,25892 12430,25892 12430,26654 12303,26654 Z"/>
     </g>
    </g>
    <g class="com.sun.star.drawing.CustomShape">
     <g id="id5">
      <rect class="BoundingBox" stroke="none" fill="none" x="11666" y="25255" width="893" height="893"/>
      <path fill="rgb(21,132,102)" stroke="none" d="M 12557,25701 C 12557,25779 12536,25856 12497,25924 12458,25991 12402,26047 12335,26086 12267,26125 12190,26146 12112,26146 12034,26146 11957,26125 11890,26086 11822,26047 11766,25991 11727,25924 11688,25856 11667,25779 11667,25701 11667,25623 11688,25546 11727,25479 11766,25411 11822,25355 11890,25316 11957,25277 12034,25256 12112,25256 12190,25256 12267,25277 12335,25316 12402,25355 12458,25411 12497,25479 12536,25546 12557,25623 12557,25701 L 12557,25701 Z"/>
      <path fill="none" stroke="rgb(30,106,57)" d="M 12557,25701 C 12557,25779 12536,25856 12497,25924 12458,25991 12402,26047 12335,26086 12267,26125 12190,26146 12112,26146 12034,26146 11957,26125 11890,26086 11822,26047 11766,25991 11727,25924 11688,25856 11667,25779 11667,25701 11667,25623 11688,25546 11727,25479 11766,25411 11822,25355 11890,25316 11957,25277 12034,25256 12112,25256 12190,25256 12267,25277 12335,25316 12402,25355 12458,25411 12497,25479 12536,25546 12557,25623 12557,25701 Z"/>
     </g>
    </g>
    <g class="com.sun.star.drawing.CustomShape">
     <g id="id6">
      <rect class="BoundingBox" stroke="none" fill="none" x="11539" y="24620" width="1401" height="1147"/>
      <path fill="rgb(0,169,51)" stroke="none" d="M 12938,25193 C 12938,25293 12906,25392 12844,25479 12783,25566 12695,25638 12589,25688 12482,25739 12362,25765 12239,25765 12116,25765 11996,25739 11890,25688 11783,25638 11695,25566 11634,25479 11572,25392 11540,25293 11540,25193 11540,25093 11572,24994 11634,24907 11695,24820 11783,24748 11890,24698 11996,24647 12116,24621 12239,24621 12362,24621 12482,24647 12589,24698 12695,24748 12783,24820 12844,24907 12906,24994 12938,25093 12938,25193 L 12938,25193 Z"/>
      <path fill="none" stroke="rgb(18,118,34)" d="M 12938,25193 C 12938,25293 12906,25392 12844,25479 12783,25566 12695,25638 12589,25688 12482,25739 12362,25765 12239,25765 12116,25765 11996,25739 11890,25688 11783,25638 11695,25566 11634,25479 11572,25392 11540,25293 11540,25193 11540,25093 11572,24994 11634,24907 11695,24820 11783,24748 11890,24698 11996,24647 12116,24621 12239,24621 12362,24621 12482,24647 12589,24698 12695,24748 12783,24820 12844,24907 12906,24994 12938,25093 12938,25193 Z"/>
     </g>
    </g>
    <g class="com.sun.star.drawing.CustomShape">
     <g id="id7">
      <rect class="BoundingBox" stroke="none" fill="none" x="12174" y="25255" width="893" height="893"/>
      <path fill="rgb(21,132,102)" stroke="none" d="M 13065,25701 C 13065,25779 13044,25856 13005,25924 12966,25991 12910,26047 12843,26086 12775,26125 12698,26146 12620,26146 12542,26146 12465,26125 12398,26086 12330,26047 12274,25991 12235,25924 12196,25856 12175,25779 12175,25701 12175,25623 12196,25546 12235,25479 12274,25411 12330,25355 12398,25316 12465,25277 12542,25256 12620,25256 12698,25256 12775,25277 12843,25316 12910,25355 12966,25411 13005,25479 13044,25546 13065,25623 13065,25701 L 13065,25701 Z"/>
      <path fill="none" stroke="rgb(30,106,57)" d="M 13065,25701 C 13065,25779 13044,25856 13005,25924 12966,25991 12910,26047 12843,26086 12775,26125 12698,26146 12620,26146 12542,26146 12465,26125 12398,26086 12330,26047 12274,25991 12235,25924 12196,25856 12175,25779 12175,25701 12175,25623 12196,25546 12235,25479 12274,25411 12330,25355 12398,25316 12465,25277 12542,25256 12620,25256 12698,25256 12775,25277 12843,25316 12910,25355 12966,25411 13005,25479 13044,25546 13065,25623 13065,25701 Z"/>
     </g>
    </g>
   </g>
   <g class="Group">
    <g class="com.sun.star.drawing.CustomShape">
     <g id="id8">
      <rect class="BoundingBox" stroke="none" fill="none" x="13318" y="25509" width="257" height="1400"/>
      <path fill="rgb(123,61,0)" stroke="none" d="M 13446,26907 L 13319,26907 13319,25510 13573,25510 13573,26907 13446,26907 Z"/>
      <path fill="none" stroke="rgb(123,61,0)" d="M 13446,26907 L 13319,26907 13319,25510 13573,25510 13573,26907 13446,26907 Z"/>
     </g>
    </g>
    <g class="com.sun.star.drawing.CustomShape">
     <g id="id9">
      <rect class="BoundingBox" stroke="none" fill="none" x="12683" y="25383" width="766" height="766"/>
      <path fill="rgb(129,212,26)" stroke="none" d="M 13447,25766 C 13447,25832 13429,25898 13396,25956 13362,26014 13314,26062 13256,26096 13198,26129 13132,26147 13066,26147 12999,26147 12933,26129 12875,26096 12817,26062 12769,26014 12735,25956 12702,25898 12684,25832 12684,25766 12684,25699 12702,25633 12735,25575 12769,25517 12817,25469 12875,25435 12933,25402 12999,25384 13066,25384 13132,25384 13198,25402 13256,25435 13314,25469 13362,25517 13396,25575 13429,25633 13447,25699 13447,25766 L 13447,25766 Z"/>
      <path fill="none" stroke="rgb(94,185,30)" d="M 13447,25766 C 13447,25832 13429,25898 13396,25956 13362,26014 13314,26062 13256,26096 13198,26129 13132,26147 13066,26147 12999,26147 12933,26129 12875,26096 12817,26062 12769,26014 12735,25956 12702,25898 12684,25832 12684,25766 12684,25699 12702,25633 12735,25575 12769,25517 12817,25469 12875,25435 12933,25402 12999,25384 13066,25384 13132,25384 13198,25402 13256,25435 13314,25469 13362,25517 13396,25575 13429,25633 13447,25699 13447,25766 Z"/>
     </g>
    </g>
    <g class="com.sun.star.drawing.CustomShape">
     <g id="id10">
      <rect class="BoundingBox" stroke="none" fill="none" x="12810" y="24621" width="1020" height="1020"/>
      <path fill="rgb(129,212,26)" stroke="none" d="M 13828,25131 C 13828,25220 13805,25307 13760,25385 13715,25462 13651,25526 13574,25571 13496,25616 13409,25639 13320,25639 13230,25639 13143,25616 13065,25571 12988,25526 12924,25462 12879,25385 12834,25307 12811,25220 12811,25131 12811,25041 12834,24954 12879,24876 12924,24799 12988,24735 13065,24690 13143,24645 13230,24622 13320,24622 13409,24622 13496,24645 13574,24690 13651,24735 13715,24799 13760,24876 13805,24954 13828,25041 13828,25131 L 13828,25131 Z"/>
      <path fill="none" stroke="rgb(94,185,30)" d="M 13828,25131 C 13828,25220 13805,25307 13760,25385 13715,25462 13651,25526 13574,25571 13496,25616 13409,25639 13320,25639 13230,25639 13143,25616 13065,25571 12988,25526 12924,25462 12879,25385 12834,25307 12811,25220 12811,25131 12811,25041 12834,24954 12879,24876 12924,24799 12988,24735 13065,24690 13143,24645 13230,24622 13320,24622 13409,24622 13496,24645 13574,24690 13651,24735 13715,24799 13760,24876 13805,24954 13828,25041 13828,25131 Z"/>
     </g>
    </g>
    <g class="com.sun.star.drawing.CustomShape">
     <g id="id11">
      <rect class="BoundingBox" stroke="none" fill="none" x="13191" y="25129" width="1020" height="1020"/>
      <path fill="rgb(129,212,26)" stroke="none" d="M 14209,25639 C 14209,25728 14186,25815 14141,25893 14096,25970 14032,26034 13955,26079 13877,26124 13790,26147 13701,26147 13611,26147 13524,26124 13446,26079 13369,26034 13305,25970 13260,25893 13215,25815 13192,25728 13192,25639 13192,25549 13215,25462 13260,25384 13305,25307 13369,25243 13446,25198 13524,25153 13611,25130 13701,25130 13790,25130 13877,25153 13955,25198 14032,25243 14096,25307 14141,25384 14186,25462 14209,25549 14209,25639 L 14209,25639 Z"/>
      <path fill="none" stroke="rgb(94,185,30)" d="M 14209,25639 C 14209,25728 14186,25815 14141,25893 14096,25970 14032,26034 13955,26079 13877,26124 13790,26147 13701,26147 13611,26147 13524,26124 13446,26079 13369,26034 13305,25970 13260,25893 13215,25815 13192,25728 13192,25639 13192,25549 13215,25462 13260,25384 13305,25307 13369,25243 13446,25198 13524,25153 13611,25130 13701,25130 13790,25130 13877,25153 13955,25198 14032,25243 14096,25307 14141,25384 14186,25462 14209,25549 14209,25639 Z"/>
     </g>
    </g>
   </g>
   <g class="Group">
    <g class="com.sun.star.drawing.CustomShape">
     <g id="id12">
      <rect class="BoundingBox" stroke="none" fill="none" x="14207" y="25891" width="257" height="765"/>
      <path fill="rgb(123,61,0)" stroke="none" d="M 14335,26654 L 14208,26654 14208,25892 14462,25892 14462,26654 14335,26654 Z"/>
      <path fill="none" stroke="rgb(123,61,0)" d="M 14335,26654 L 14208,26654 14208,25892 14462,25892 14462,26654 14335,26654 Z"/>
     </g>
    </g>
    <g class="com.sun.star.drawing.CustomShape">
     <g id="id13">
      <rect class="BoundingBox" stroke="none" fill="none" x="13698" y="25255" width="893" height="893"/>
      <path fill="rgb(21,132,102)" stroke="none" d="M 14589,25701 C 14589,25779 14568,25856 14529,25924 14490,25991 14434,26047 14367,26086 14299,26125 14222,26146 14144,26146 14066,26146 13989,26125 13922,26086 13854,26047 13798,25991 13759,25924 13720,25856 13699,25779 13699,25701 13699,25623 13720,25546 13759,25479 13798,25411 13854,25355 13922,25316 13989,25277 14066,25256 14144,25256 14222,25256 14299,25277 14367,25316 14434,25355 14490,25411 14529,25479 14568,25546 14589,25623 14589,25701 L 14589,25701 Z"/>
      <path fill="none" stroke="rgb(30,106,57)" d="M 14589,25701 C 14589,25779 14568,25856 14529,25924 14490,25991 14434,26047 14367,26086 14299,26125 14222,26146 14144,26146 14066,26146 13989,26125 13922,26086 13854,26047 13798,25991 13759,25924 13720,25856 13699,25779 13699,25701 13699,25623 13720,25546 13759,25479 13798,25411 13854,25355 13922,25316 13989,25277 14066,25256 14144,25256 14222,25256 14299,25277 14367,25316 14434,25355 14490,25411 14529,25479 14568,25546 14589,25623 14589,25701 Z"/>
     </g>
    </g>
    <g class="com.sun.star.drawing.CustomShape">
     <g id="id14">
      <rect class="BoundingBox" stroke="none" fill="none" x="13571" y="24620" width="1401" height="1147"/>
      <path fill="rgb(0,169,51)" stroke="none" d="M 14970,25193 C 14970,25293 14938,25392 14876,25479 14815,25566 14727,25638 14621,25688 14514,25739 14394,25765 14271,25765 14148,25765 14028,25739 13922,25688 13815,25638 13727,25566 13666,25479 13604,25392 13572,25293 13572,25193 13572,25093 13604,24994 13666,24907 13727,24820 13815,24748 13922,24698 14028,24647 14148,24621 14271,24621 14394,24621 14514,24647 14621,24698 14727,24748 14815,24820 14876,24907 14938,24994 14970,25093 14970,25193 L 14970,25193 Z"/>
      <path fill="none" stroke="rgb(18,118,34)" d="M 14970,25193 C 14970,25293 14938,25392 14876,25479 14815,25566 14727,25638 14621,25688 14514,25739 14394,25765 14271,25765 14148,25765 14028,25739 13922,25688 13815,25638 13727,25566 13666,25479 13604,25392 13572,25293 13572,25193 13572,25093 13604,24994 13666,24907 13727,24820 13815,24748 13922,24698 14028,24647 14148,24621 14271,24621 14394,24621 14514,24647 14621,24698 14727,24748 14815,24820 14876,24907 14938,24994 14970,25093 14970,25193 Z"/>
     </g>
    </g>
    <g class="com.sun.star.drawing.CustomShape">
     <g id="id15">
      <rect class="BoundingBox" stroke="none" fill="none" x="14206" y="25255" width="893" height="893"/>
      <path fill="rgb(21,132,102)" stroke="none" d="M 15097,25701 C 15097,25779 15076,25856 15037,25924 14998,25991 14942,26047 14875,26086 14807,26125 14730,26146 14652,26146 14574,26146 14497,26125 14430,26086 14362,26047 14306,25991 14267,25924 14228,25856 14207,25779 14207,25701 14207,25623 14228,25546 14267,25479 14306,25411 14362,25355 14430,25316 14497,25277 14574,25256 14652,25256 14730,25256 14807,25277 14875,25316 14942,25355 14998,25411 15037,25479 15076,25546 15097,25623 15097,25701 L 15097,25701 Z"/>
      <path fill="none" stroke="rgb(30,106,57)" d="M 15097,25701 C 15097,25779 15076,25856 15037,25924 14998,25991 14942,26047 14875,26086 14807,26125 14730,26146 14652,26146 14574,26146 14497,26125 14430,26086 14362,26047 14306,25991 14267,25924 14228,25856 14207,25779 14207,25701 14207,25623 14228,25546 14267,25479 14306,25411 14362,25355 14430,25316 14497,25277 14574,25256 14652,25256 14730,25256 14807,25277 14875,25316 14942,25355 14998,25411 15037,25479 15076,25546 15097,25623 15097,25701 Z"/>
     </g>
    </g>
   </g>
   <g class="Group">
    <g class="com.sun.star.drawing.CustomShape">
     <g id="id16">
      <rect class="BoundingBox" stroke="none" fill="none" x="12048" y="26906" width="257" height="1400"/>
      <path fill="rgb(123,61,0)" stroke="none" d="M 12176,28304 L 12049,28304 12049,26907 12303,26907 12303,28304 12176,28304 Z"/>
      <path fill="none" stroke="rgb(123,61,0)" d="M 12176,28304 L 12049,28304 12049,26907 12303,26907 12303,28304 12176,28304 Z"/>
     </g>
    </g>
    <g class="com.sun.star.drawing.CustomShape">
     <g id="id17">
      <rect class="BoundingBox" stroke="none" fill="none" x="11413" y="26780" width="766" height="766"/>
      <path fill="rgb(129,212,26)" stroke="none" d="M 12177,27163 C 12177,27229 12159,27295 12126,27353 12092,27411 12044,27459 11986,27493 11928,27526 11862,27544 11796,27544 11729,27544 11663,27526 11605,27493 11547,27459 11499,27411 11465,27353 11432,27295 11414,27229 11414,27163 11414,27096 11432,27030 11465,26972 11499,26914 11547,26866 11605,26832 11663,26799 11729,26781 11796,26781 11862,26781 11928,26799 11986,26832 12044,26866 12092,26914 12126,26972 12159,27030 12177,27096 12177,27163 L 12177,27163 Z"/>
      <path fill="none" stroke="rgb(94,185,30)" d="M 12177,27163 C 12177,27229 12159,27295 12126,27353 12092,27411 12044,27459 11986,27493 11928,27526 11862,27544 11796,27544 11729,27544 11663,27526 11605,27493 11547,27459 11499,27411 11465,27353 11432,27295 11414,27229 11414,27163 11414,27096 11432,27030 11465,26972 11499,26914 11547,26866 11605,26832 11663,26799 11729,26781 11796,26781 11862,26781 11928,26799 11986,26832 12044,26866 12092,26914 12126,26972 12159,27030 12177,27096 12177,27163 Z"/>
     </g>
    </g>
    <g class="com.sun.star.drawing.CustomShape">
     <g id="id18">
      <rect class="BoundingBox" stroke="none" fill="none" x="11540" y="26018" width="1020" height="1020"/>
      <path fill="rgb(129,212,26)" stroke="none" d="M 12558,26528 C 12558,26617 12535,26704 12490,26782 12445,26859 12381,26923 12304,26968 12226,27013 12139,27036 12050,27036 11960,27036 11873,27013 11795,26968 11718,26923 11654,26859 11609,26782 11564,26704 11541,26617 11541,26528 11541,26438 11564,26351 11609,26273 11654,26196 11718,26132 11795,26087 11873,26042 11960,26019 12050,26019 12139,26019 12226,26042 12304,26087 12381,26132 12445,26196 12490,26273 12535,26351 12558,26438 12558,26528 L 12558,26528 Z"/>
      <path fill="none" stroke="rgb(94,185,30)" d="M 12558,26528 C 12558,26617 12535,26704 12490,26782 12445,26859 12381,26923 12304,26968 12226,27013 12139,27036 12050,27036 11960,27036 11873,27013 11795,26968 11718,26923 11654,26859 11609,26782 11564,26704 11541,26617 11541,26528 11541,26438 11564,26351 11609,26273 11654,26196 11718,26132 11795,26087 11873,26042 11960,26019 12050,26019 12139,26019 12226,26042 12304,26087 12381,26132 12445,26196 12490,26273 12535,26351 12558,26438 12558,26528 Z"/>
     </g>
    </g>
    <g class="com.sun.star.drawing.CustomShape">
     <g id="id19">
      <rect class="BoundingBox" stroke="none" fill="none" x="11921" y="26526" width="1020" height="1020"/>
      <path fill="rgb(129,212,26)" stroke="none" d="M 12939,27036 C 12939,27125 12916,27212 12871,27290 12826,27367 12762,27431 12685,27476 12607,27521 12520,27544 12431,27544 12341,27544 12254,27521 12176,27476 12099,27431 12035,27367 11990,27290 11945,27212 11922,27125 11922,27036 11922,26946 11945,26859 11990,26781 12035,26704 12099,26640 12176,26595 12254,26550 12341,26527 12431,26527 12520,26527 12607,26550 12685,26595 12762,26640 12826,26704 12871,26781 12916,26859 12939,26946 12939,27036 L 12939,27036 Z"/>
      <path fill="none" stroke="rgb(94,185,30)" d="M 12939,27036 C 12939,27125 12916,27212 12871,27290 12826,27367 12762,27431 12685,27476 12607,27521 12520,27544 12431,27544 12341,27544 12254,27521 12176,27476 12099,27431 12035,27367 11990,27290 11945,27212 11922,27125 11922,27036 11922,26946 11945,26859 11990,26781 12035,26704 12099,26640 12176,26595 12254,26550 12341,26527 12431,26527 12520,26527 12607,26550 12685,26595 12762,26640 12826,26704 12871,26781 12916,26859 12939,26946 12939,27036 Z"/>
     </g>
    </g>
   </g>
   <g class="Group">
    <g class="com.sun.star.drawing.CustomShape">
     <g id="id20">
      <rect class="BoundingBox" stroke="none" fill="none" x="13191" y="27542" width="257" height="765"/>
      <path fill="rgb(123,61,0)" stroke="none" d="M 13319,28305 L 13192,28305 13192,27543 13446,27543 13446,28305 13319,28305 Z"/>
      <path fill="none" stroke="rgb(123,61,0)" d="M 13319,28305 L 13192,28305 13192,27543 13446,27543 13446,28305 13319,28305 Z"/>
     </g>
    </g>
    <g class="com.sun.star.drawing.CustomShape">
     <g id="id21">
      <rect class="BoundingBox" stroke="none" fill="none" x="12682" y="26906" width="893" height="893"/>
      <path fill="rgb(21,132,102)" stroke="none" d="M 13573,27352 C 13573,27430 13552,27507 13513,27575 13474,27642 13418,27698 13351,27737 13283,27776 13206,27797 13128,27797 13050,27797 12973,27776 12906,27737 12838,27698 12782,27642 12743,27575 12704,27507 12683,27430 12683,27352 12683,27274 12704,27197 12743,27130 12782,27062 12838,27006 12906,26967 12973,26928 13050,26907 13128,26907 13206,26907 13283,26928 13351,26967 13418,27006 13474,27062 13513,27130 13552,27197 13573,27274 13573,27352 L 13573,27352 Z"/>
      <path fill="none" stroke="rgb(30,106,57)" d="M 13573,27352 C 13573,27430 13552,27507 13513,27575 13474,27642 13418,27698 13351,27737 13283,27776 13206,27797 13128,27797 13050,27797 12973,27776 12906,27737 12838,27698 12782,27642 12743,27575 12704,27507 12683,27430 12683,27352 12683,27274 12704,27197 12743,27130 12782,27062 12838,27006 12906,26967 12973,26928 13050,26907 13128,26907 13206,26907 13283,26928 13351,26967 13418,27006 13474,27062 13513,27130 13552,27197 13573,27274 13573,27352 Z"/>
     </g>
    </g>
    <g class="com.sun.star.drawing.CustomShape">
     <g id="id22">
      <rect class="BoundingBox" stroke="none" fill="none" x="12555" y="26271" width="1401" height="1147"/>
      <path fill="rgb(0,169,51)" stroke="none" d="M 13954,26844 C 13954,26944 13922,27043 13860,27130 13799,27217 13711,27289 13605,27339 13498,27390 13378,27416 13255,27416 13132,27416 13012,27390 12906,27339 12799,27289 12711,27217 12650,27130 12588,27043 12556,26944 12556,26844 12556,26744 12588,26645 12650,26558 12711,26471 12799,26399 12906,26349 13012,26298 13132,26272 13255,26272 13378,26272 13498,26298 13605,26349 13711,26399 13799,26471 13860,26558 13922,26645 13954,26744 13954,26844 L 13954,26844 Z"/>
      <path fill="none" stroke="rgb(18,118,34)" d="M 13954,26844 C 13954,26944 13922,27043 13860,27130 13799,27217 13711,27289 13605,27339 13498,27390 13378,27416 13255,27416 13132,27416 13012,27390 12906,27339 12799,27289 12711,27217 12650,27130 12588,27043 12556,26944 12556,26844 12556,26744 12588,26645 12650,26558 12711,26471 12799,26399 12906,26349 13012,26298 13132,26272 13255,26272 13378,26272 13498,26298 13605,26349 13711,26399 13799,26471 13860,26558 13922,26645 13954,26744 13954,26844 Z"/>
     </g>
    </g>
    <g class="com.sun.star.drawing.CustomShape">
     <g id="id23">
      <rect class="BoundingBox" stroke="none" fill="none" x="13190" y="26906" width="893" height="893"/>
      <path fill="rgb(21,132,102)" stroke="none" d="M 14081,27352 C 14081,27430 14060,27507 14021,27575 13982,27642 13926,27698 13859,27737 13791,27776 13714,27797 13636,27797 13558,27797 13481,27776 13414,27737 13346,27698 13290,27642 13251,27575 13212,27507 13191,27430 13191,27352 13191,27274 13212,27197 13251,27130 13290,27062 13346,27006 13414,26967 13481,26928 13558,26907 13636,26907 13714,26907 13791,26928 13859,26967 13926,27006 13982,27062 14021,27130 14060,27197 14081,27274 14081,27352 L 14081,27352 Z"/>
      <path fill="none" stroke="rgb(30,106,57)" d="M 14081,27352 C 14081,27430 14060,27507 14021,27575 13982,27642 13926,27698 13859,27737 13791,27776 13714,27797 13636,27797 13558,27797 13481,27776 13414,27737 13346,27698 13290,27642 13251,27575 13212,27507 13191,27430 13191,27352 13191,27274 13212,27197 13251,27130 13290,27062 13346,27006 13414,26967 13481,26928 13558,26907 13636,26907 13714,26907 13791,26928 13859,26967 13926,27006 13982,27062 14021,27130 14060,27197 14081,27274 14081,27352 Z"/>
     </g>
    </g>
   </g>
   <g class="Group">
    <g class="com.sun.star.drawing.CustomShape">
     <g id="id24">
      <rect class="BoundingBox" stroke="none" fill="none" x="14207" y="26906" width="257" height="1400"/>
      <path fill="rgb(123,61,0)" stroke="none" d="M 14335,28304 L 14208,28304 14208,26907 14462,26907 14462,28304 14335,28304 Z"/>
      <path fill="none" stroke="rgb(123,61,0)" d="M 14335,28304 L 14208,28304 14208,26907 14462,26907 14462,28304 14335,28304 Z"/>
     </g>
    </g>
    <g class="com.sun.star.drawing.CustomShape">
     <g id="id25">
      <rect class="BoundingBox" stroke="none" fill="none" x="13572" y="26780" width="766" height="766"/>
      <path fill="rgb(129,212,26)" stroke="none" d="M 14336,27163 C 14336,27229 14318,27295 14285,27353 14251,27411 14203,27459 14145,27493 14087,27526 14021,27544 13955,27544 13888,27544 13822,27526 13764,27493 13706,27459 13658,27411 13624,27353 13591,27295 13573,27229 13573,27163 13573,27096 13591,27030 13624,26972 13658,26914 13706,26866 13764,26832 13822,26799 13888,26781 13955,26781 14021,26781 14087,26799 14145,26832 14203,26866 14251,26914 14285,26972 14318,27030 14336,27096 14336,27163 L 14336,27163 Z"/>
      <path fill="none" stroke="rgb(94,185,30)" d="M 14336,27163 C 14336,27229 14318,27295 14285,27353 14251,27411 14203,27459 14145,27493 14087,27526 14021,27544 13955,27544 13888,27544 13822,27526 13764,27493 13706,27459 13658,27411 13624,27353 13591,27295 13573,27229 13573,27163 13573,27096 13591,27030 13624,26972 13658,26914 13706,26866 13764,26832 13822,26799 13888,26781 13955,26781 14021,26781 14087,26799 14145,26832 14203,26866 14251,26914 14285,26972 14318,27030 14336,27096 14336,27163 Z"/>
     </g>
    </g>
    <g class="com.sun.star.drawing.CustomShape">
     <g id="id26">
      <rect class="BoundingBox" stroke="none" fill="none" x="13699" y="26018" width="1020" height="1020"/>
      <path fill="rgb(129,212,26)" stroke="none" d="M 14717,26528 C 14717,26617 14694,26704 14649,26782 14604,26859 14540,26923 14463,26968 14385,27013 14298,27036 14209,27036 14119,27036 14032,27013 13954,26968 13877,26923 13813,26859 13768,26782 13723,26704 13700,26617 13700,26528 13700,26438 13723,26351 13768,26273 13813,26196 13877,26132 13954,26087 14032,26042 14119,26019 14209,26019 14298,26019 14385,26042 14463,26087 14540,26132 14604,26196 14649,26273 14694,26351 14717,26438 14717,26528 L 14717,26528 Z"/>
      <path fill="none" stroke="rgb(94,185,30)" d="M 14717,26528 C 14717,26617 14694,26704 14649,26782 14604,26859 14540,26923 14463,26968 14385,27013 14298,27036 14209,27036 14119,27036 14032,27013 13954,26968 13877,26923 13813,26859 13768,26782 13723,26704 13700,26617 13700,26528 13700,26438 13723,26351 13768,26273 13813,26196 13877,26132 13954,26087 14032,26042 14119,26019 14209,26019 14298,26019 14385,26042 14463,26087 14540,26132 14604,26196 14649,26273 14694,26351 14717,26438 14717,26528 Z"/>
     </g>
    </g>
    <g class="com.sun.star.drawing.CustomShape">
     <g id="id27">
      <rect class="BoundingBox" stroke="none" fill="none" x="14080" y="26526" width="1020" height="1020"/>
      <path fill="rgb(129,212,26)" stroke="none" d="M 15098,27036 C 15098,27125 15075,27212 15030,27290 14985,27367 14921,27431 14844,27476 14766,27521 14679,27544 14590,27544 14500,27544 14413,27521 14335,27476 14258,27431 14194,27367 14149,27290 14104,27212 14081,27125 14081,27036 14081,26946 14104,26859 14149,26781 14194,26704 14258,26640 14335,26595 14413,26550 14500,26527 14590,26527 14679,26527 14766,26550 14844,26595 14921,26640 14985,26704 15030,26781 15075,26859 15098,26946 15098,27036 L 15098,27036 Z"/>
      <path fill="none" stroke="rgb(94,185,30)" d="M 15098,27036 C 15098,27125 15075,27212 15030,27290 14985,27367 14921,27431 14844,27476 14766,27521 14679,27544 14590,27544 14500,27544 14413,27521 14335,27476 14258,27431 14194,27367 14149,27290 14104,27212 14081,27125 14081,27036 14081,26946 14104,26859 14149,26781 14194,26704 14258,26640 14335,26595 14413,26550 14500,26527 14590,26527 14679,26527 14766,26550 14844,26595 14921,26640 14985,26704 15030,26781 15075,26859 15098,26946 15098,27036 Z"/>
     </g>
    </g>
   </g>
  </g>
 </g>
</svg>