<?xml version="1.0" encoding="UTF-8"?>
<!DOCTYPE svg PUBLIC "-//W3C//DTD SVG 1.1//EN" "http://www.w3.org/Graphics/SVG/1.1/DTD/svg11.dtd">
<svg version="1.2" width="38.39mm" height="38.39mm" viewBox="15718 20544 3839 3839" preserveAspectRatio="xMidYMid" fill-rule="evenodd" stroke-width="28.222" stroke-linejoin="round" xmlns="http://www.w3.org/2000/svg" xmlns:ooo="http://xml.openoffice.org/svg/export" xmlns:xlink="http://www.w3.org/1999/xlink" xmlns:presentation="http://sun.com/xmlns/staroffice/presentation" xmlns:smil="http://www.w3.org/2001/SMIL20/" xmlns:anim="urn:oasis:names:tc:opendocument:xmlns:animation:1.0" xml:space="preserve">
 <defs class="EmbeddedBulletChars">
  <g id="bullet-char-template-57356" transform="scale(0.00048828125,-0.00048828125)">
   <path d="M 580,1141 L 1163,571 580,0 -4,571 580,1141 Z"/>
  </g>
  <g id="bullet-char-template-57354" transform="scale(0.00048828125,-0.00048828125)">
   <path d="M 8,1128 L 1137,1128 1137,0 8,0 8,1128 Z"/>
  </g>
  <g id="bullet-char-template-10146" transform="scale(0.00048828125,-0.00048828125)">
   <path d="M 174,0 L 602,739 174,1481 1456,739 174,0 Z M 1358,739 L 309,1346 659,739 1358,739 Z"/>
  </g>
  <g id="bullet-char-template-10132" transform="scale(0.00048828125,-0.00048828125)">
   <path d="M 2015,739 L 1276,0 717,0 1260,543 174,543 174,936 1260,936 717,1481 1274,1481 2015,739 Z"/>
  </g>
  <g id="bullet-char-template-10007" transform="scale(0.00048828125,-0.00048828125)">
   <path d="M 0,-2 C -7,14 -16,27 -25,37 L 356,567 C 262,823 215,952 215,954 215,979 228,992 255,992 264,992 276,990 289,987 310,991 331,999 354,1012 L 381,999 492,748 772,1049 836,1024 860,1049 C 881,1039 901,1025 922,1006 886,937 835,863 770,784 769,783 710,716 594,584 L 774,223 C 774,196 753,168 711,139 L 727,119 C 717,90 699,76 672,76 641,76 570,178 457,381 L 164,-76 C 142,-110 111,-127 72,-127 30,-127 9,-110 8,-76 1,-67 -2,-52 -2,-32 -2,-23 -1,-13 0,-2 Z"/>
  </g>
  <g id="bullet-char-template-10004" transform="scale(0.00048828125,-0.00048828125)">
   <path d="M 285,-33 C 182,-33 111,30 74,156 52,228 41,333 41,471 41,549 55,616 82,672 116,743 169,778 240,778 293,778 328,747 346,684 L 369,508 C 377,444 397,411 428,410 L 1163,1116 C 1174,1127 1196,1133 1229,1133 1271,1133 1292,1118 1292,1087 L 1292,965 C 1292,929 1282,901 1262,881 L 442,47 C 390,-6 338,-33 285,-33 Z"/>
  </g>
  <g id="bullet-char-template-9679" transform="scale(0.00048828125,-0.00048828125)">
   <path d="M 813,0 C 632,0 489,54 383,161 276,268 223,411 223,592 223,773 276,916 383,1023 489,1130 632,1184 813,1184 992,1184 1136,1130 1245,1023 1353,916 1407,772 1407,592 1407,412 1353,268 1245,161 1136,54 992,0 813,0 Z"/>
  </g>
  <g id="bullet-char-template-8226" transform="scale(0.00048828125,-0.00048828125)">
   <path d="M 346,457 C 273,457 209,483 155,535 101,586 74,649 74,723 74,796 101,859 155,911 209,963 273,989 346,989 419,989 480,963 531,910 582,859 608,796 608,723 608,648 583,586 532,535 482,483 420,457 346,457 Z"/>
  </g>
  <g id="bullet-char-template-8211" transform="scale(0.00048828125,-0.00048828125)">
   <path d="M -4,459 L 1135,459 1135,606 -4,606 -4,459 Z"/>
  </g>
  <g id="bullet-char-template-61548" transform="scale(0.00048828125,-0.00048828125)">
   <path d="M 173,740 C 173,903 231,1043 346,1159 462,1274 601,1332 765,1332 928,1332 1067,1274 1183,1159 1299,1043 1357,903 1357,740 1357,577 1299,437 1183,322 1067,206 928,148 765,148 601,148 462,206 346,322 231,437 173,577 173,740 Z"/>
  </g>
 </defs>
 <g class="Page">
  <g class="Group">
   <g class="com.sun.star.drawing.CustomShape">
    <g id="id3">
     <rect class="BoundingBox" stroke="none" fill="none" x="15718" y="20544" width="3839" height="3839"/>
     <path fill="rgb(94,185,30)" stroke="none" d="M 17637,24368 L 15732,24368 15732,20558 19542,20558 19542,24368 17637,24368 Z"/>
     <path fill="none" stroke="rgb(0,0,0)" stroke-width="28" stroke-linejoin="round" d="M 17637,24368 L 15732,24368 15732,20558 19542,20558 19542,24368 17637,24368 Z"/>
    </g>
   </g>
   <g class="Group">
    <g class="com.sun.star.drawing.CustomShape">
     <g id="id4">
      <rect class="BoundingBox" stroke="none" fill="none" x="18525" y="21827" width="257" height="765"/>
      <path fill="rgb(123,61,0)" stroke="none" d="M 18653,22590 L 18526,22590 18526,21828 18780,21828 18780,22590 18653,22590 Z"/>
      <path fill="none" stroke="rgb(123,61,0)" d="M 18653,22590 L 18526,22590 18526,21828 18780,21828 18780,22590 18653,22590 Z"/>
     </g>
    </g>
    <g class="com.sun.star.drawing.CustomShape">
     <g id="id5">
      <rect class="BoundingBox" stroke="none" fill="none" x="18016" y="21191" width="893" height="893"/>
      <path fill="rgb(21,132,102)" stroke="none" d="M 18907,21637 C 18907,21715 18886,21792 18847,21860 18808,21927 18752,21983 18685,22022 18617,22061 18540,22082 18462,22082 18384,22082 18307,22061 18240,22022 18172,21983 18116,21927 18077,21860 18038,21792 18017,21715 18017,21637 18017,21559 18038,21482 18077,21415 18116,21347 18172,21291 18240,21252 18307,21213 18384,21192 18462,21192 18540,21192 18617,21213 18685,21252 18752,21291 18808,21347 18847,21415 18886,21482 18907,21559 18907,21637 L 18907,21637 Z"/>
      <path fill="none" stroke="rgb(30,106,57)" d="M 18907,21637 C 18907,21715 18886,21792 18847,21860 18808,21927 18752,21983 18685,22022 18617,22061 18540,22082 18462,22082 18384,22082 18307,22061 18240,22022 18172,21983 18116,21927 18077,21860 18038,21792 18017,21715 18017,21637 18017,21559 18038,21482 18077,21415 18116,21347 18172,21291 18240,21252 18307,21213 18384,21192 18462,21192 18540,21192 18617,21213 18685,21252 18752,21291 18808,21347 18847,21415 18886,21482 18907,21559 18907,21637 Z"/>
     </g>
    </g>
    <g class="com.sun.star.drawing.CustomShape">
     <g id="id6">
      <rect class="BoundingBox" stroke="none" fill="none" x="17889" y="20556" width="1401" height="1147"/>
      <path fill="rgb(0,169,51)" stroke="none" d="M 19288,21129 C 19288,21229 19256,21328 19194,21415 19133,21502 19045,21574 18939,21624 18832,21675 18712,21701 18589,21701 18466,21701 18346,21675 18240,21624 18133,21574 18045,21502 17984,21415 17922,21328 17890,21229 17890,21129 17890,21029 17922,20930 17984,20843 18045,20756 18133,20684 18240,20634 18346,20583 18466,20557 18589,20557 18712,20557 18832,20583 18939,20634 19045,20684 19133,20756 19194,20843 19256,20930 19288,21029 19288,21129 L 19288,21129 Z"/>
      <path fill="none" stroke="rgb(18,118,34)" d="M 19288,21129 C 19288,21229 19256,21328 19194,21415 19133,21502 19045,21574 18939,21624 18832,21675 18712,21701 18589,21701 18466,21701 18346,21675 18240,21624 18133,21574 18045,21502 17984,21415 17922,21328 17890,21229 17890,21129 17890,21029 17922,20930 17984,20843 18045,20756 18133,20684 18240,20634 18346,20583 18466,20557 18589,20557 18712,20557 18832,20583 18939,20634 19045,20684 19133,20756 19194,20843 19256,20930 19288,21029 19288,21129 Z"/>
     </g>
    </g>
    <g class="com.sun.star.drawing.CustomShape">
     <g id="id7">
      <rect class="BoundingBox" stroke="none" fill="none" x="18524" y="21191" width="893" height="893"/>
      <path fill="rgb(21,132,102)" stroke="none" d="M 19415,21637 C 19415,21715 19394,21792 19355,21860 19316,21927 19260,21983 19193,22022 19125,22061 19048,22082 18970,22082 18892,22082 18815,22061 18748,22022 18680,21983 18624,21927 18585,21860 18546,21792 18525,21715 18525,21637 18525,21559 18546,21482 18585,21415 18624,21347 18680,21291 18748,21252 18815,21213 18892,21192 18970,21192 19048,21192 19125,21213 19193,21252 19260,21291 19316,21347 19355,21415 19394,21482 19415,21559 19415,21637 L 19415,21637 Z"/>
      <path fill="none" stroke="rgb(30,106,57)" d="M 19415,21637 C 19415,21715 19394,21792 19355,21860 19316,21927 19260,21983 19193,22022 19125,22061 19048,22082 18970,22082 18892,22082 18815,22061 18748,22022 18680,21983 18624,21927 18585,21860 18546,21792 18525,21715 18525,21637 18525,21559 18546,21482 18585,21415 18624,21347 18680,21291 18748,21252 18815,21213 18892,21192 18970,21192 19048,21192 19125,21213 19193,21252 19260,21291 19316,21347 19355,21415 19394,21482 19415,21559 19415,21637 Z"/>
     </g>
    </g>
   </g>
   <g class="Group">
    <g class="com.sun.star.drawing.CustomShape">
     <g id="id8">
      <rect class="BoundingBox" stroke="none" fill="none" x="18017" y="22334" width="257" height="1400"/>
      <path fill="rgb(123,61,0)" stroke="none" d="M 18145,23732 L 18018,23732 18018,22335 18272,22335 18272,23732 18145,23732 Z"/>
      <path fill="none" stroke="rgb(123,61,0)" d="M 18145,23732 L 18018,23732 18018,22335 18272,22335 18272,23732 18145,23732 Z"/>
     </g>
    </g>
    <g class="com.sun.star.drawing.CustomShape">
     <g id="id9">
      <rect class="BoundingBox" stroke="none" fill="none" x="17382" y="22208" width="766" height="766"/>
      <path fill="rgb(129,212,26)" stroke="none" d="M 18146,22591 C 18146,22657 18128,22723 18095,22781 18061,22839 18013,22887 17955,22921 17897,22954 17831,22972 17765,22972 17698,22972 17632,22954 17574,22921 17516,22887 17468,22839 17434,22781 17401,22723 17383,22657 17383,22591 17383,22524 17401,22458 17434,22400 17468,22342 17516,22294 17574,22260 17632,22227 17698,22209 17765,22209 17831,22209 17897,22227 17955,22260 18013,22294 18061,22342 18095,22400 18128,22458 18146,22524 18146,22591 L 18146,22591 Z"/>
      <path fill="none" stroke="rgb(94,185,30)" d="M 18146,22591 C 18146,22657 18128,22723 18095,22781 18061,22839 18013,22887 17955,22921 17897,22954 17831,22972 17765,22972 17698,22972 17632,22954 17574,22921 17516,22887 17468,22839 17434,22781 17401,22723 17383,22657 17383,22591 17383,22524 17401,22458 17434,22400 17468,22342 17516,22294 17574,22260 17632,22227 17698,22209 17765,22209 17831,22209 17897,22227 17955,22260 18013,22294 18061,22342 18095,22400 18128,22458 18146,22524 18146,22591 Z"/>
     </g>
    </g>
    <g class="com.sun.star.drawing.CustomShape">
     <g id="id10">
      <rect class="BoundingBox" stroke="none" fill="none" x="17509" y="21446" width="1020" height="1020"/>
      <path fill="rgb(129,212,26)" stroke="none" d="M 18527,21956 C 18527,22045 18504,22132 18459,22210 18414,22287 18350,22351 18273,22396 18195,22441 18108,22464 18019,22464 17929,22464 17842,22441 17764,22396 17687,22351 17623,22287 17578,22210 17533,22132 17510,22045 17510,21956 17510,21866 17533,21779 17578,21701 17623,21624 17687,21560 17764,21515 17842,21470 17929,21447 18019,21447 18108,21447 18195,21470 18273,21515 18350,21560 18414,21624 18459,21701 18504,21779 18527,21866 18527,21956 L 18527,21956 Z"/>
      <path fill="none" stroke="rgb(94,185,30)" d="M 18527,21956 C 18527,22045 18504,22132 18459,22210 18414,22287 18350,22351 18273,22396 18195,22441 18108,22464 18019,22464 17929,22464 17842,22441 17764,22396 17687,22351 17623,22287 17578,22210 17533,22132 17510,22045 17510,21956 17510,21866 17533,21779 17578,21701 17623,21624 17687,21560 17764,21515 17842,21470 17929,21447 18019,21447 18108,21447 18195,21470 18273,21515 18350,21560 18414,21624 18459,21701 18504,21779 18527,21866 18527,21956 Z"/>
     </g>
    </g>
    <g class="com.sun.star.drawing.CustomShape">
     <g id="id11">
      <rect class="BoundingBox" stroke="none" fill="none" x="17890" y="21954" width="1020" height="1020"/>
      <path fill="rgb(129,212,26)" stroke="none" d="M 18908,22464 C 18908,22553 18885,22640 18840,22718 18795,22795 18731,22859 18654,22904 18576,22949 18489,22972 18400,22972 18310,22972 18223,22949 18145,22904 18068,22859 18004,22795 17959,22718 17914,22640 17891,22553 17891,22464 17891,22374 17914,22287 17959,22209 18004,22132 18068,22068 18145,22023 18223,21978 18310,21955 18400,21955 18489,21955 18576,21978 18654,22023 18731,22068 18795,22132 18840,22209 18885,22287 18908,22374 18908,22464 L 18908,22464 Z"/>
      <path fill="none" stroke="rgb(94,185,30)" d="M 18908,22464 C 18908,22553 18885,22640 18840,22718 18795,22795 18731,22859 18654,22904 18576,22949 18489,22972 18400,22972 18310,22972 18223,22949 18145,22904 18068,22859 18004,22795 17959,22718 17914,22640 17891,22553 17891,22464 17891,22374 17914,22287 17959,22209 18004,22132 18068,22068 18145,22023 18223,21978 18310,21955 18400,21955 18489,21955 18576,21978 18654,22023 18731,22068 18795,22132 18840,22209 18885,22287 18908,22374 18908,22464 Z"/>
     </g>
    </g>
   </g>
   <g class="Group">
    <g class="com.sun.star.drawing.CustomShape">
     <g id="id12">
      <rect class="BoundingBox" stroke="none" fill="none" x="16493" y="21954" width="257" height="765"/>
      <path fill="rgb(123,61,0)" stroke="none" d="M 16621,22717 L 16494,22717 16494,21955 16748,21955 16748,22717 16621,22717 Z"/>
      <path fill="none" stroke="rgb(123,61,0)" d="M 16621,22717 L 16494,22717 16494,21955 16748,21955 16748,22717 16621,22717 Z"/>
     </g>
    </g>
    <g class="com.sun.star.drawing.CustomShape">
     <g id="id13">
      <rect class="BoundingBox" stroke="none" fill="none" x="15984" y="21318" width="893" height="893"/>
      <path fill="rgb(21,132,102)" stroke="none" d="M 16875,21764 C 16875,21842 16854,21919 16815,21987 16776,22054 16720,22110 16653,22149 16585,22188 16508,22209 16430,22209 16352,22209 16275,22188 16208,22149 16140,22110 16084,22054 16045,21987 16006,21919 15985,21842 15985,21764 15985,21686 16006,21609 16045,21542 16084,21474 16140,21418 16208,21379 16275,21340 16352,21319 16430,21319 16508,21319 16585,21340 16653,21379 16720,21418 16776,21474 16815,21542 16854,21609 16875,21686 16875,21764 L 16875,21764 Z"/>
      <path fill="none" stroke="rgb(30,106,57)" d="M 16875,21764 C 16875,21842 16854,21919 16815,21987 16776,22054 16720,22110 16653,22149 16585,22188 16508,22209 16430,22209 16352,22209 16275,22188 16208,22149 16140,22110 16084,22054 16045,21987 16006,21919 15985,21842 15985,21764 15985,21686 16006,21609 16045,21542 16084,21474 16140,21418 16208,21379 16275,21340 16352,21319 16430,21319 16508,21319 16585,21340 16653,21379 16720,21418 16776,21474 16815,21542 16854,21609 16875,21686 16875,21764 Z"/>
     </g>
    </g>
    <g class="com.sun.star.drawing.CustomShape">
     <g id="id14">
      <rect class="BoundingBox" stroke="none" fill="none" x="15857" y="20683" width="1401" height="1147"/>
      <path fill="rgb(0,169,51)" stroke="none" d="M 17256,21256 C 17256,21356 17224,21455 17162,21542 17101,21629 17013,21701 16907,21751 16800,21802 16680,21828 16557,21828 16434,21828 16314,21802 16208,21751 16101,21701 16013,21629 15952,21542 15890,21455 15858,21356 15858,21256 15858,21156 15890,21057 15952,20970 16013,20883 16101,20811 16208,20761 16314,20710 16434,20684 16557,20684 16680,20684 16800,20710 16907,20761 17013,20811 17101,20883 17162,20970 17224,21057 17256,21156 17256,21256 L 17256,21256 Z"/>
      <path fill="none" stroke="rgb(18,118,34)" d="M 17256,21256 C 17256,21356 17224,21455 17162,21542 17101,21629 17013,21701 16907,21751 16800,21802 16680,21828 16557,21828 16434,21828 16314,21802 16208,21751 16101,21701 16013,21629 15952,21542 15890,21455 15858,21356 15858,21256 15858,21156 15890,21057 15952,20970 16013,20883 16101,20811 16208,20761 16314,20710 16434,20684 16557,20684 16680,20684 16800,20710 16907,20761 17013,20811 17101,20883 17162,20970 17224,21057 17256,21156 17256,21256 Z"/>
     </g>
    </g>
    <g class="com.sun.star.drawing.CustomShape">
     <g id="id15">
      <rect class="BoundingBox" stroke="none" fill="none" x="16492" y="21318" width="893" height="893"/>
      <path fill="rgb(21,132,102)" stroke="none" d="M 17383,21764 C 17383,21842 17362,21919 17323,21987 17284,22054 17228,22110 17161,22149 17093,22188 17016,22209 16938,22209 16860,22209 16783,22188 16716,22149 16648,22110 16592,22054 16553,21987 16514,21919 16493,21842 16493,21764 16493,21686 16514,21609 16553,21542 16592,21474 16648,21418 16716,21379 16783,21340 16860,21319 16938,21319 17016,21319 17093,21340 17161,21379 17228,21418 17284,21474 17323,21542 17362,21609 17383,21686 17383,21764 L 17383,21764 Z"/>
      <path fill="none" stroke="rgb(30,106,57)" d="M 17383,21764 C 17383,21842 17362,21919 17323,21987 17284,22054 17228,22110 17161,22149 17093,22188 17016,22209 16938,22209 16860,22209 16783,22188 16716,22149 16648,22110 16592,22054 16553,21987 16514,21919 16493,21842 16493,21764 16493,21686 16514,21609 16553,21542 16592,21474 16648,21418 16716,21379 16783,21340 16860,21319 16938,21319 17016,21319 17093,21340 17161,21379 17228,21418 17284,21474 17323,21542 17362,21609 17383,21686 17383,21764 Z"/>
     </g>
    </g>
   </g>
   <g class="Group">
    <g class="com.sun.star.drawing.CustomShape">
     <g id="id16">
      <rect class="BoundingBox" stroke="none" fill="none" x="17255" y="21826" width="257" height="1400"/>
      <path fill="rgb(123,61,0)" stroke="none" d="M 17383,23224 L 17256,23224 17256,21827 17510,21827 17510,23224 17383,23224 Z"/>
      <path fill="none" stroke="rgb(123,61,0)" d="M 17383,23224 L 17256,23224 17256,21827 17510,21827 17510,23224 17383,23224 Z"/>
     </g>
    </g>
    <g class="com.sun.star.drawing.CustomShape">
     <g id="id17">
      <rect class="BoundingBox" stroke="none" fill="none" x="16620" y="21700" width="766" height="766"/>
      <path fill="rgb(129,212,26)" stroke="none" d="M 17384,22083 C 17384,22149 17366,22215 17333,22273 17299,22331 17251,22379 17193,22413 17135,22446 17069,22464 17003,22464 16936,22464 16870,22446 16812,22413 16754,22379 16706,22331 16672,22273 16639,22215 16621,22149 16621,22083 16621,22016 16639,21950 16672,21892 16706,21834 16754,21786 16812,21752 16870,21719 16936,21701 17003,21701 17069,21701 17135,21719 17193,21752 17251,21786 17299,21834 17333,21892 17366,21950 17384,22016 17384,22083 L 17384,22083 Z"/>
      <path fill="none" stroke="rgb(94,185,30)" d="M 17384,22083 C 17384,22149 17366,22215 17333,22273 17299,22331 17251,22379 17193,22413 17135,22446 17069,22464 17003,22464 16936,22464 16870,22446 16812,22413 16754,22379 16706,22331 16672,22273 16639,22215 16621,22149 16621,22083 16621,22016 16639,21950 16672,21892 16706,21834 16754,21786 16812,21752 16870,21719 16936,21701 17003,21701 17069,21701 17135,21719 17193,21752 17251,21786 17299,21834 17333,21892 17366,21950 17384,22016 17384,22083 Z"/>
     </g>
    </g>
    <g class="com.sun.star.drawing.CustomShape">
     <g id="id18">
      <rect class="BoundingBox" stroke="none" fill="none" x="16747" y="20938" width="1020" height="1020"/>
      <path fill="rgb(129,212,26)" stroke="none" d="M 17765,21448 C 17765,21537 17742,21624 17697,21702 17652,21779 17588,21843 17511,21888 17433,21933 17346,21956 17257,21956 17167,21956 17080,21933 17002,21888 16925,21843 16861,21779 16816,21702 16771,21624 16748,21537 16748,21448 16748,21358 16771,21271 16816,21193 16861,21116 16925,21052 17002,21007 17080,20962 17167,20939 17257,20939 17346,20939 17433,20962 17511,21007 17588,21052 17652,21116 17697,21193 17742,21271 17765,21358 17765,21448 L 17765,21448 Z"/>
      <path fill="none" stroke="rgb(94,185,30)" d="M 17765,21448 C 17765,21537 17742,21624 17697,21702 17652,21779 17588,21843 17511,21888 17433,21933 17346,21956 17257,21956 17167,21956 17080,21933 17002,21888 16925,21843 16861,21779 16816,21702 16771,21624 16748,21537 16748,21448 16748,21358 16771,21271 16816,21193 16861,21116 16925,21052 17002,21007 17080,20962 17167,20939 17257,20939 17346,20939 17433,20962 17511,21007 17588,21052 17652,21116 17697,21193 17742,21271 17765,21358 17765,21448 Z"/>
     </g>
    </g>
    <g class="com.sun.star.drawing.CustomShape">
     <g id="id19">
      <rect class="BoundingBox" stroke="none" fill="none" x="17128" y="21446" width="1020" height="1020"/>
      <path fill="rgb(129,212,26)" stroke="none" d="M 18146,21956 C 18146,22045 18123,22132 18078,22210 18033,22287 17969,22351 17892,22396 17814,22441 17727,22464 17638,22464 17548,22464 17461,22441 17383,22396 17306,22351 17242,22287 17197,22210 17152,22132 17129,22045 17129,21956 17129,21866 17152,21779 17197,21701 17242,21624 17306,21560 17383,21515 17461,21470 17548,21447 17638,21447 17727,21447 17814,21470 17892,21515 17969,21560 18033,21624 18078,21701 18123,21779 18146,21866 18146,21956 L 18146,21956 Z"/>
      <path fill="none" stroke="rgb(94,185,30)" d="M 18146,21956 C 18146,22045 18123,22132 18078,22210 18033,22287 17969,22351 17892,22396 17814,22441 17727,22464 17638,22464 17548,22464 17461,22441 17383,22396 17306,22351 17242,22287 17197,22210 17152,22132 17129,22045 17129,21956 17129,21866 17152,21779 17197,21701 17242,21624 17306,21560 17383,21515 17461,21470 17548,21447 17638,21447 17727,21447 17814,21470 17892,21515 17969,21560 18033,21624 18078,21701 18123,21779 18146,21866 18146,21956 Z"/>
     </g>
    </g>
   </g>
   <g class="Group">
    <g class="com.sun.star.drawing.CustomShape">
     <g id="id20">
      <rect class="BoundingBox" stroke="none" fill="none" x="16493" y="23224" width="257" height="765"/>
      <path fill="rgb(123,61,0)" stroke="none" d="M 16621,23987 L 16494,23987 16494,23225 16748,23225 16748,23987 16621,23987 Z"/>
      <path fill="none" stroke="rgb(123,61,0)" d="M 16621,23987 L 16494,23987 16494,23225 16748,23225 16748,23987 16621,23987 Z"/>
     </g>
    </g>
    <g class="com.sun.star.drawing.CustomShape">
     <g id="id21">
      <rect class="BoundingBox" stroke="none" fill="none" x="15984" y="22588" width="893" height="893"/>
      <path fill="rgb(21,132,102)" stroke="none" d="M 16875,23034 C 16875,23112 16854,23189 16815,23257 16776,23324 16720,23380 16653,23419 16585,23458 16508,23479 16430,23479 16352,23479 16275,23458 16208,23419 16140,23380 16084,23324 16045,23257 16006,23189 15985,23112 15985,23034 15985,22956 16006,22879 16045,22812 16084,22744 16140,22688 16208,22649 16275,22610 16352,22589 16430,22589 16508,22589 16585,22610 16653,22649 16720,22688 16776,22744 16815,22812 16854,22879 16875,22956 16875,23034 L 16875,23034 Z"/>
      <path fill="none" stroke="rgb(30,106,57)" d="M 16875,23034 C 16875,23112 16854,23189 16815,23257 16776,23324 16720,23380 16653,23419 16585,23458 16508,23479 16430,23479 16352,23479 16275,23458 16208,23419 16140,23380 16084,23324 16045,23257 16006,23189 15985,23112 15985,23034 15985,22956 16006,22879 16045,22812 16084,22744 16140,22688 16208,22649 16275,22610 16352,22589 16430,22589 16508,22589 16585,22610 16653,22649 16720,22688 16776,22744 16815,22812 16854,22879 16875,22956 16875,23034 Z"/>
     </g>
    </g>
    <g class="com.sun.star.drawing.CustomShape">
     <g id="id22">
      <rect class="BoundingBox" stroke="none" fill="none" x="15857" y="21953" width="1401" height="1147"/>
      <path fill="rgb(0,169,51)" stroke="none" d="M 17256,22526 C 17256,22626 17224,22725 17162,22812 17101,22899 17013,22971 16907,23021 16800,23072 16680,23098 16557,23098 16434,23098 16314,23072 16208,23021 16101,22971 16013,22899 15952,22812 15890,22725 15858,22626 15858,22526 15858,22426 15890,22327 15952,22240 16013,22153 16101,22081 16208,22031 16314,21980 16434,21954 16557,21954 16680,21954 16800,21980 16907,22031 17013,22081 17101,22153 17162,22240 17224,22327 17256,22426 17256,22526 L 17256,22526 Z"/>
      <path fill="none" stroke="rgb(18,118,34)" d="M 17256,22526 C 17256,22626 17224,22725 17162,22812 17101,22899 17013,22971 16907,23021 16800,23072 16680,23098 16557,23098 16434,23098 16314,23072 16208,23021 16101,22971 16013,22899 15952,22812 15890,22725 15858,22626 15858,22526 15858,22426 15890,22327 15952,22240 16013,22153 16101,22081 16208,22031 16314,21980 16434,21954 16557,21954 16680,21954 16800,21980 16907,22031 17013,22081 17101,22153 17162,22240 17224,22327 17256,22426 17256,22526 Z"/>
     </g>
    </g>
    <g class="com.sun.star.drawing.CustomShape">
     <g id="id23">
      <rect class="BoundingBox" stroke="none" fill="none" x="16492" y="22588" width="893" height="893"/>
      <path fill="rgb(21,132,102)" stroke="none" d="M 17383,23034 C 17383,23112 17362,23189 17323,23257 17284,23324 17228,23380 17161,23419 17093,23458 17016,23479 16938,23479 16860,23479 16783,23458 16716,23419 16648,23380 16592,23324 16553,23257 16514,23189 16493,23112 16493,23034 16493,22956 16514,22879 16553,22812 16592,22744 16648,22688 16716,22649 16783,22610 16860,22589 16938,22589 17016,22589 17093,22610 17161,22649 17228,22688 17284,22744 17323,22812 17362,22879 17383,22956 17383,23034 L 17383,23034 Z"/>
      <path fill="none" stroke="rgb(30,106,57)" d="M 17383,23034 C 17383,23112 17362,23189 17323,23257 17284,23324 17228,23380 17161,23419 17093,23458 17016,23479 16938,23479 16860,23479 16783,23458 16716,23419 16648,23380 16592,23324 16553,23257 16514,23189 16493,23112 16493,23034 16493,22956 16514,22879 16553,22812 16592,22744 16648,22688 16716,22649 16783,22610 16860,22589 16938,22589 17016,22589 17093,22610 17161,22649 17228,22688 17284,22744 17323,22812 17362,22879 17383,22956 17383,23034 Z"/>
     </g>
    </g>
   </g>
   <g class="Group">
    <g class="com.sun.star.drawing.CustomShape">
     <g id="id24">
      <rect class="BoundingBox" stroke="none" fill="none" x="16873" y="23477" width="893" height="893"/>
      <path fill="rgb(6,154,46)" stroke="none" d="M 17764,23923 C 17764,24001 17743,24078 17704,24146 17665,24213 17609,24269 17542,24308 17474,24347 17397,24368 17319,24368 17241,24368 17164,24347 17097,24308 17029,24269 16973,24213 16934,24146 16895,24078 16874,24001 16874,23923 16874,23845 16895,23768 16934,23701 16973,23633 17029,23577 17097,23538 17164,23499 17241,23478 17319,23478 17397,23478 17474,23499 17542,23538 17609,23577 17665,23633 17704,23701 17743,23768 17764,23845 17764,23923 L 17764,23923 Z"/>
      <path fill="none" stroke="rgb(18,118,34)" d="M 17764,23923 C 17764,24001 17743,24078 17704,24146 17665,24213 17609,24269 17542,24308 17474,24347 17397,24368 17319,24368 17241,24368 17164,24347 17097,24308 17029,24269 16973,24213 16934,24146 16895,24078 16874,24001 16874,23923 16874,23845 16895,23768 16934,23701 16973,23633 17029,23577 17097,23538 17164,23499 17241,23478 17319,23478 17397,23478 17474,23499 17542,23538 17609,23577 17665,23633 17704,23701 17743,23768 17764,23845 17764,23923 Z"/>
     </g>
    </g>
    <g class="com.sun.star.drawing.CustomShape">
     <g id="id25">
      <rect class="BoundingBox" stroke="none" fill="none" x="17128" y="23097" width="766" height="766"/>
      <path fill="rgb(70,138,26)" stroke="none" d="M 17892,23480 C 17892,23546 17874,23612 17841,23670 17807,23728 17759,23776 17701,23810 17643,23843 17577,23861 17511,23861 17444,23861 17378,23843 17320,23810 17262,23776 17214,23728 17180,23670 17147,23612 17129,23546 17129,23480 17129,23413 17147,23347 17180,23289 17214,23231 17262,23183 17320,23149 17378,23116 17444,23098 17511,23098 17577,23098 17643,23116 17701,23149 17759,23183 17807,23231 17841,23289 17874,23347 17892,23413 17892,23480 L 17892,23480 Z"/>
      <path fill="none" stroke="rgb(57,85,17)" d="M 17892,23480 C 17892,23546 17874,23612 17841,23670 17807,23728 17759,23776 17701,23810 17643,23843 17577,23861 17511,23861 17444,23861 17378,23843 17320,23810 17262,23776 17214,23728 17180,23670 17147,23612 17129,23546 17129,23480 17129,23413 17147,23347 17180,23289 17214,23231 17262,23183 17320,23149 17378,23116 17444,23098 17511,23098 17577,23098 17643,23116 17701,23149 17759,23183 17807,23231 17841,23289 17874,23347 17892,23413 17892,23480 Z"/>
     </g>
    </g>
    <g class="com.sun.star.drawing.CustomShape">
     <g id="id26">
      <rect class="BoundingBox" stroke="none" fill="none" x="17381" y="23477" width="893" height="893"/>
      <path fill="rgb(6,154,46)" stroke="none" d="M 18272,23923 C 18272,24001 18251,24078 18212,24146 18173,24213 18117,24269 18050,24308 17982,24347 17905,24368 17827,24368 17749,24368 17672,24347 17605,24308 17537,24269 17481,24213 17442,24146 17403,24078 17382,24001 17382,23923 17382,23845 17403,23768 17442,23701 17481,23633 17537,23577 17605,23538 17672,23499 17749,23478 17827,23478 17905,23478 17982,23499 18050,23538 18117,23577 18173,23633 18212,23701 18251,23768 18272,23845 18272,23923 L 18272,23923 Z"/>
      <path fill="none" stroke="rgb(18,118,34)" d="M 18272,23923 C 18272,24001 18251,24078 18212,24146 18173,24213 18117,24269 18050,24308 17982,24347 17905,24368 17827,24368 17749,24368 17672,24347 17605,24308 17537,24269 17481,24213 17442,24146 17403,24078 17382,24001 17382,23923 17382,23845 17403,23768 17442,23701 17481,23633 17537,23577 17605,23538 17672,23499 17749,23478 17827,23478 17905,23478 17982,23499 18050,23538 18117,23577 18173,23633 18212,23701 18251,23768 18272,23845 18272,23923 Z"/>
     </g>
    </g>
    <g class="com.sun.star.drawing.CustomShape">
     <g id="id27">
      <rect class="BoundingBox" stroke="none" fill="none" x="17254" y="23350" width="131" height="131"/>
      <path fill="rgb(255,0,0)" stroke="none" d="M 17383,23415 C 17383,23426 17380,23437 17374,23447 17369,23457 17361,23465 17351,23470 17341,23476 17330,23479 17319,23479 17308,23479 17297,23476 17287,23470 17277,23465 17269,23457 17264,23447 17258,23437 17255,23426 17255,23415 17255,23404 17258,23393 17264,23383 17269,23373 17277,23365 17287,23360 17297,23354 17308,23351 17319,23351 17330,23351 17341,23354 17351,23360 17361,23365 17369,23373 17374,23383 17380,23393 17383,23404 17383,23415 L 17383,23415 Z"/>
      <path fill="none" stroke="rgb(201,33,30)" d="M 17383,23415 C 17383,23426 17380,23437 17374,23447 17369,23457 17361,23465 17351,23470 17341,23476 17330,23479 17319,23479 17308,23479 17297,23476 17287,23470 17277,23465 17269,23457 17264,23447 17258,23437 17255,23426 17255,23415 17255,23404 17258,23393 17264,23383 17269,23373 17277,23365 17287,23360 17297,23354 17308,23351 17319,23351 17330,23351 17341,23354 17351,23360 17361,23365 17369,23373 17374,23383 17380,23393 17383,23404 17383,23415 Z"/>
     </g>
    </g>
    <g class="com.sun.star.drawing.CustomShape">
     <g id="id28">
      <rect class="BoundingBox" stroke="none" fill="none" x="17635" y="23604" width="131" height="131"/>
      <path fill="rgb(255,0,0)" stroke="none" d="M 17764,23669 C 17764,23680 17761,23691 17755,23701 17750,23711 17742,23719 17732,23724 17722,23730 17711,23733 17700,23733 17689,23733 17678,23730 17668,23724 17658,23719 17650,23711 17645,23701 17639,23691 17636,23680 17636,23669 17636,23658 17639,23647 17645,23637 17650,23627 17658,23619 17668,23614 17678,23608 17689,23605 17700,23605 17711,23605 17722,23608 17732,23614 17742,23619 17750,23627 17755,23637 17761,23647 17764,23658 17764,23669 L 17764,23669 Z"/>
      <path fill="none" stroke="rgb(201,33,30)" d="M 17764,23669 C 17764,23680 17761,23691 17755,23701 17750,23711 17742,23719 17732,23724 17722,23730 17711,23733 17700,23733 17689,23733 17678,23730 17668,23724 17658,23719 17650,23711 17645,23701 17639,23691 17636,23680 17636,23669 17636,23658 17639,23647 17645,23637 17650,23627 17658,23619 17668,23614 17678,23608 17689,23605 17700,23605 17711,23605 17722,23608 17732,23614 17742,23619 17750,23627 17755,23637 17761,23647 17764,23658 17764,23669 Z"/>
     </g>
    </g>
    <g class="com.sun.star.drawing.CustomShape">
     <g id="id29">
      <rect class="BoundingBox" stroke="none" fill="none" x="17127" y="23985" width="131" height="131"/>
      <path fill="rgb(255,0,0)" stroke="none" d="M 17256,24050 C 17256,24061 17253,24072 17247,24082 17242,24092 17234,24100 17224,24105 17214,24111 17203,24114 17192,24114 17181,24114 17170,24111 17160,24105 17150,24100 17142,24092 17137,24082 17131,24072 17128,24061 17128,24050 17128,24039 17131,24028 17137,24018 17142,24008 17150,24000 17160,23995 17170,23989 17181,23986 17192,23986 17203,23986 17214,23989 17224,23995 17234,24000 17242,24008 17247,24018 17253,24028 17256,24039 17256,24050 L 17256,24050 Z"/>
      <path fill="none" stroke="rgb(201,33,30)" d="M 17256,24050 C 17256,24061 17253,24072 17247,24082 17242,24092 17234,24100 17224,24105 17214,24111 17203,24114 17192,24114 17181,24114 17170,24111 17160,24105 17150,24100 17142,24092 17137,24082 17131,24072 17128,24061 17128,24050 17128,24039 17131,24028 17137,24018 17142,24008 17150,24000 17160,23995 17170,23989 17181,23986 17192,23986 17203,23986 17214,23989 17224,23995 17234,24000 17242,24008 17247,24018 17253,24028 17256,24039 17256,24050 Z"/>
     </g>
    </g>
    <g class="com.sun.star.drawing.CustomShape">
     <g id="id30">
      <rect class="BoundingBox" stroke="none" fill="none" x="18016" y="23985" width="131" height="131"/>
      <path fill="rgb(255,0,0)" stroke="none" d="M 18145,24050 C 18145,24061 18142,24072 18136,24082 18131,24092 18123,24100 18113,24105 18103,24111 18092,24114 18081,24114 18070,24114 18059,24111 18049,24105 18039,24100 18031,24092 18026,24082 18020,24072 18017,24061 18017,24050 18017,24039 18020,24028 18026,24018 18031,24008 18039,24000 18049,23995 18059,23989 18070,23986 18081,23986 18092,23986 18103,23989 18113,23995 18123,24000 18131,24008 18136,24018 18142,24028 18145,24039 18145,24050 L 18145,24050 Z"/>
      <path fill="none" stroke="rgb(201,33,30)" d="M 18145,24050 C 18145,24061 18142,24072 18136,24082 18131,24092 18123,24100 18113,24105 18103,24111 18092,24114 18081,24114 18070,24114 18059,24111 18049,24105 18039,24100 18031,24092 18026,24082 18020,24072 18017,24061 18017,24050 18017,24039 18020,24028 18026,24018 18031,24008 18039,24000 18049,23995 18059,23989 18070,23986 18081,23986 18092,23986 18103,23989 18113,23995 18123,24000 18131,24008 18136,24018 18142,24028 18145,24039 18145,24050 Z"/>
     </g>
    </g>
    <g class="com.sun.star.drawing.CustomShape">
     <g id="id31">
      <rect class="BoundingBox" stroke="none" fill="none" x="17635" y="23985" width="131" height="131"/>
      <path fill="rgb(255,0,0)" stroke="none" d="M 17764,24050 C 17764,24061 17761,24072 17755,24082 17750,24092 17742,24100 17732,24105 17722,24111 17711,24114 17700,24114 17689,24114 17678,24111 17668,24105 17658,24100 17650,24092 17645,24082 17639,24072 17636,24061 17636,24050 17636,24039 17639,24028 17645,24018 17650,24008 17658,24000 17668,23995 17678,23989 17689,23986 17700,23986 17711,23986 17722,23989 17732,23995 17742,24000 17750,24008 17755,24018 17761,24028 17764,24039 17764,24050 L 17764,24050 Z"/>
      <path fill="none" stroke="rgb(201,33,30)" d="M 17764,24050 C 17764,24061 17761,24072 17755,24082 17750,24092 17742,24100 17732,24105 17722,24111 17711,24114 17700,24114 17689,24114 17678,24111 17668,24105 17658,24100 17650,24092 17645,24082 17639,24072 17636,24061 17636,24050 17636,24039 17639,24028 17645,24018 17650,24008 17658,24000 17668,23995 17678,23989 17689,23986 17700,23986 17711,23986 17722,23989 17732,23995 17742,24000 17750,24008 17755,24018 17761,24028 17764,24039 17764,24050 Z"/>
     </g>
    </g>
   </g>
   <g class="Group">
    <g class="com.sun.star.drawing.CustomShape">
     <g id="id32">
      <rect class="BoundingBox" stroke="none" fill="none" x="18398" y="23097" width="766" height="766"/>
      <path fill="rgb(70,138,26)" stroke="none" d="M 19162,23480 C 19162,23546 19144,23612 19111,23670 19077,23728 19029,23776 18971,23810 18913,23843 18847,23861 18781,23861 18714,23861 18648,23843 18590,23810 18532,23776 18484,23728 18450,23670 18417,23612 18399,23546 18399,23480 18399,23413 18417,23347 18450,23289 18484,23231 18532,23183 18590,23149 18648,23116 18714,23098 18781,23098 18847,23098 18913,23116 18971,23149 19029,23183 19077,23231 19111,23289 19144,23347 19162,23413 19162,23480 L 19162,23480 Z"/>
      <path fill="none" stroke="rgb(57,85,17)" d="M 19162,23480 C 19162,23546 19144,23612 19111,23670 19077,23728 19029,23776 18971,23810 18913,23843 18847,23861 18781,23861 18714,23861 18648,23843 18590,23810 18532,23776 18484,23728 18450,23670 18417,23612 18399,23546 18399,23480 18399,23413 18417,23347 18450,23289 18484,23231 18532,23183 18590,23149 18648,23116 18714,23098 18781,23098 18847,23098 18913,23116 18971,23149 19029,23183 19077,23231 19111,23289 19144,23347 19162,23413 19162,23480 Z"/>
     </g>
    </g>
    <g class="com.sun.star.drawing.CustomShape">
     <g id="id33">
      <rect class="BoundingBox" stroke="none" fill="none" x="18524" y="22715" width="893" height="893"/>
      <path fill="rgb(6,154,46)" stroke="none" d="M 19415,23161 C 19415,23239 19394,23316 19355,23384 19316,23451 19260,23507 19193,23546 19125,23585 19048,23606 18970,23606 18892,23606 18815,23585 18748,23546 18680,23507 18624,23451 18585,23384 18546,23316 18525,23239 18525,23161 18525,23083 18546,23006 18585,22939 18624,22871 18680,22815 18748,22776 18815,22737 18892,22716 18970,22716 19048,22716 19125,22737 19193,22776 19260,22815 19316,22871 19355,22939 19394,23006 19415,23083 19415,23161 L 19415,23161 Z"/>
      <path fill="none" stroke="rgb(18,118,34)" d="M 19415,23161 C 19415,23239 19394,23316 19355,23384 19316,23451 19260,23507 19193,23546 19125,23585 19048,23606 18970,23606 18892,23606 18815,23585 18748,23546 18680,23507 18624,23451 18585,23384 18546,23316 18525,23239 18525,23161 18525,23083 18546,23006 18585,22939 18624,22871 18680,22815 18748,22776 18815,22737 18892,22716 18970,22716 19048,22716 19125,22737 19193,22776 19260,22815 19316,22871 19355,22939 19394,23006 19415,23083 19415,23161 Z"/>
     </g>
    </g>
    <g class="com.sun.star.drawing.CustomShape">
     <g id="id34">
      <rect class="BoundingBox" stroke="none" fill="none" x="18779" y="23097" width="766" height="766"/>
      <path fill="rgb(70,138,26)" stroke="none" d="M 19543,23480 C 19543,23546 19525,23612 19492,23670 19458,23728 19410,23776 19352,23810 19294,23843 19228,23861 19162,23861 19095,23861 19029,23843 18971,23810 18913,23776 18865,23728 18831,23670 18798,23612 18780,23546 18780,23480 18780,23413 18798,23347 18831,23289 18865,23231 18913,23183 18971,23149 19029,23116 19095,23098 19162,23098 19228,23098 19294,23116 19352,23149 19410,23183 19458,23231 19492,23289 19525,23347 19543,23413 19543,23480 L 19543,23480 Z"/>
      <path fill="none" stroke="rgb(57,85,17)" d="M 19543,23480 C 19543,23546 19525,23612 19492,23670 19458,23728 19410,23776 19352,23810 19294,23843 19228,23861 19162,23861 19095,23861 19029,23843 18971,23810 18913,23776 18865,23728 18831,23670 18798,23612 18780,23546 18780,23480 18780,23413 18798,23347 18831,23289 18865,23231 18913,23183 18971,23149 19029,23116 19095,23098 19162,23098 19228,23098 19294,23116 19352,23149 19410,23183 19458,23231 19492,23289 19525,23347 19543,23413 19543,23480 Z"/>
     </g>
    </g>
   </g>
   <g class="Group">
    <g class="com.sun.star.drawing.CustomShape">
     <g id="id35">
      <rect class="BoundingBox" stroke="none" fill="none" x="17890" y="23605" width="766" height="766"/>
      <path fill="rgb(70,138,26)" stroke="none" d="M 18654,23988 C 18654,24054 18636,24120 18603,24178 18569,24236 18521,24284 18463,24318 18405,24351 18339,24369 18273,24369 18206,24369 18140,24351 18082,24318 18024,24284 17976,24236 17942,24178 17909,24120 17891,24054 17891,23988 17891,23921 17909,23855 17942,23797 17976,23739 18024,23691 18082,23657 18140,23624 18206,23606 18273,23606 18339,23606 18405,23624 18463,23657 18521,23691 18569,23739 18603,23797 18636,23855 18654,23921 18654,23988 L 18654,23988 Z"/>
      <path fill="none" stroke="rgb(57,85,17)" d="M 18654,23988 C 18654,24054 18636,24120 18603,24178 18569,24236 18521,24284 18463,24318 18405,24351 18339,24369 18273,24369 18206,24369 18140,24351 18082,24318 18024,24284 17976,24236 17942,24178 17909,24120 17891,24054 17891,23988 17891,23921 17909,23855 17942,23797 17976,23739 18024,23691 18082,23657 18140,23624 18206,23606 18273,23606 18339,23606 18405,23624 18463,23657 18521,23691 18569,23739 18603,23797 18636,23855 18654,23921 18654,23988 Z"/>
     </g>
    </g>
    <g class="com.sun.star.drawing.CustomShape">
     <g id="id36">
      <rect class="BoundingBox" stroke="none" fill="none" x="18016" y="23223" width="893" height="893"/>
      <path fill="rgb(6,154,46)" stroke="none" d="M 18907,23669 C 18907,23747 18886,23824 18847,23892 18808,23959 18752,24015 18685,24054 18617,24093 18540,24114 18462,24114 18384,24114 18307,24093 18240,24054 18172,24015 18116,23959 18077,23892 18038,23824 18017,23747 18017,23669 18017,23591 18038,23514 18077,23447 18116,23379 18172,23323 18240,23284 18307,23245 18384,23224 18462,23224 18540,23224 18617,23245 18685,23284 18752,23323 18808,23379 18847,23447 18886,23514 18907,23591 18907,23669 L 18907,23669 Z"/>
      <path fill="none" stroke="rgb(18,118,34)" d="M 18907,23669 C 18907,23747 18886,23824 18847,23892 18808,23959 18752,24015 18685,24054 18617,24093 18540,24114 18462,24114 18384,24114 18307,24093 18240,24054 18172,24015 18116,23959 18077,23892 18038,23824 18017,23747 18017,23669 18017,23591 18038,23514 18077,23447 18116,23379 18172,23323 18240,23284 18307,23245 18384,23224 18462,23224 18540,23224 18617,23245 18685,23284 18752,23323 18808,23379 18847,23447 18886,23514 18907,23591 18907,23669 Z"/>
     </g>
    </g>
    <g class="com.sun.star.drawing.CustomShape">
     <g id="id37">
      <rect class="BoundingBox" stroke="none" fill="none" x="18271" y="23605" width="766" height="766"/>
      <path fill="rgb(70,138,26)" stroke="none" d="M 19035,23988 C 19035,24054 19017,24120 18984,24178 18950,24236 18902,24284 18844,24318 18786,24351 18720,24369 18654,24369 18587,24369 18521,24351 18463,24318 18405,24284 18357,24236 18323,24178 18290,24120 18272,24054 18272,23988 18272,23921 18290,23855 18323,23797 18357,23739 18405,23691 18463,23657 18521,23624 18587,23606 18654,23606 18720,23606 18786,23624 18844,23657 18902,23691 18950,23739 18984,23797 19017,23855 19035,23921 19035,23988 L 19035,23988 Z"/>
      <path fill="none" stroke="rgb(57,85,17)" d="M 19035,23988 C 19035,24054 19017,24120 18984,24178 18950,24236 18902,24284 18844,24318 18786,24351 18720,24369 18654,24369 18587,24369 18521,24351 18463,24318 18405,24284 18357,24236 18323,24178 18290,24120 18272,24054 18272,23988 18272,23921 18290,23855 18323,23797 18357,23739 18405,23691 18463,23657 18521,23624 18587,23606 18654,23606 18720,23606 18786,23624 18844,23657 18902,23691 18950,23739 18984,23797 19017,23855 19035,23921 19035,23988 Z"/>
     </g>
    </g>
   </g>
   <g class="Group">
    <g class="com.sun.star.drawing.CustomShape">
     <g id="id38">
      <rect class="BoundingBox" stroke="none" fill="none" x="16111" y="23477" width="893" height="893"/>
      <path fill="rgb(6,154,46)" stroke="none" d="M 17002,23923 C 17002,24001 16981,24078 16942,24146 16903,24213 16847,24269 16780,24308 16712,24347 16635,24368 16557,24368 16479,24368 16402,24347 16335,24308 16267,24269 16211,24213 16172,24146 16133,24078 16112,24001 16112,23923 16112,23845 16133,23768 16172,23701 16211,23633 16267,23577 16335,23538 16402,23499 16479,23478 16557,23478 16635,23478 16712,23499 16780,23538 16847,23577 16903,23633 16942,23701 16981,23768 17002,23845 17002,23923 L 17002,23923 Z"/>
      <path fill="none" stroke="rgb(18,118,34)" d="M 17002,23923 C 17002,24001 16981,24078 16942,24146 16903,24213 16847,24269 16780,24308 16712,24347 16635,24368 16557,24368 16479,24368 16402,24347 16335,24308 16267,24269 16211,24213 16172,24146 16133,24078 16112,24001 16112,23923 16112,23845 16133,23768 16172,23701 16211,23633 16267,23577 16335,23538 16402,23499 16479,23478 16557,23478 16635,23478 16712,23499 16780,23538 16847,23577 16903,23633 16942,23701 16981,23768 17002,23845 17002,23923 Z"/>
     </g>
    </g>
    <g class="com.sun.star.drawing.CustomShape">
     <g id="id39">
      <rect class="BoundingBox" stroke="none" fill="none" x="16366" y="23097" width="766" height="766"/>
      <path fill="rgb(70,138,26)" stroke="none" d="M 17130,23480 C 17130,23546 17112,23612 17079,23670 17045,23728 16997,23776 16939,23810 16881,23843 16815,23861 16749,23861 16682,23861 16616,23843 16558,23810 16500,23776 16452,23728 16418,23670 16385,23612 16367,23546 16367,23480 16367,23413 16385,23347 16418,23289 16452,23231 16500,23183 16558,23149 16616,23116 16682,23098 16749,23098 16815,23098 16881,23116 16939,23149 16997,23183 17045,23231 17079,23289 17112,23347 17130,23413 17130,23480 L 17130,23480 Z"/>
      <path fill="none" stroke="rgb(57,85,17)" d="M 17130,23480 C 17130,23546 17112,23612 17079,23670 17045,23728 16997,23776 16939,23810 16881,23843 16815,23861 16749,23861 16682,23861 16616,23843 16558,23810 16500,23776 16452,23728 16418,23670 16385,23612 16367,23546 16367,23480 16367,23413 16385,23347 16418,23289 16452,23231 16500,23183 16558,23149 16616,23116 16682,23098 16749,23098 16815,23098 16881,23116 16939,23149 16997,23183 17045,23231 17079,23289 17112,23347 17130,23413 17130,23480 Z"/>
     </g>
    </g>
    <g class="com.sun.star.drawing.CustomShape">
     <g id="id40">
      <rect class="BoundingBox" stroke="none" fill="none" x="16619" y="23477" width="893" height="893"/>
      <path fill="rgb(6,154,46)" stroke="none" d="M 17510,23923 C 17510,24001 17489,24078 17450,24146 17411,24213 17355,24269 17288,24308 17220,24347 17143,24368 17065,24368 16987,24368 16910,24347 16843,24308 16775,24269 16719,24213 16680,24146 16641,24078 16620,24001 16620,23923 16620,23845 16641,23768 16680,23701 16719,23633 16775,23577 16843,23538 16910,23499 16987,23478 17065,23478 17143,23478 17220,23499 17288,23538 17355,23577 17411,23633 17450,23701 17489,23768 17510,23845 17510,23923 L 17510,23923 Z"/>
      <path fill="none" stroke="rgb(18,118,34)" d="M 17510,23923 C 17510,24001 17489,24078 17450,24146 17411,24213 17355,24269 17288,24308 17220,24347 17143,24368 17065,24368 16987,24368 16910,24347 16843,24308 16775,24269 16719,24213 16680,24146 16641,24078 16620,24001 16620,23923 16620,23845 16641,23768 16680,23701 16719,23633 16775,23577 16843,23538 16910,23499 16987,23478 17065,23478 17143,23478 17220,23499 17288,23538 17355,23577 17411,23633 17450,23701 17489,23768 17510,23845 17510,23923 Z"/>
     </g>
    </g>
    <g class="com.sun.star.drawing.CustomShape">
     <g id="id41">
      <rect class="BoundingBox" stroke="none" fill="none" x="16492" y="23350" width="131" height="131"/>
      <path fill="rgb(255,0,0)" stroke="none" d="M 16621,23415 C 16621,23426 16618,23437 16612,23447 16607,23457 16599,23465 16589,23470 16579,23476 16568,23479 16557,23479 16546,23479 16535,23476 16525,23470 16515,23465 16507,23457 16502,23447 16496,23437 16493,23426 16493,23415 16493,23404 16496,23393 16502,23383 16507,23373 16515,23365 16525,23360 16535,23354 16546,23351 16557,23351 16568,23351 16579,23354 16589,23360 16599,23365 16607,23373 16612,23383 16618,23393 16621,23404 16621,23415 L 16621,23415 Z"/>
      <path fill="none" stroke="rgb(201,33,30)" d="M 16621,23415 C 16621,23426 16618,23437 16612,23447 16607,23457 16599,23465 16589,23470 16579,23476 16568,23479 16557,23479 16546,23479 16535,23476 16525,23470 16515,23465 16507,23457 16502,23447 16496,23437 16493,23426 16493,23415 16493,23404 16496,23393 16502,23383 16507,23373 16515,23365 16525,23360 16535,23354 16546,23351 16557,23351 16568,23351 16579,23354 16589,23360 16599,23365 16607,23373 16612,23383 16618,23393 16621,23404 16621,23415 Z"/>
     </g>
    </g>
    <g class="com.sun.star.drawing.CustomShape">
     <g id="id42">
      <rect class="BoundingBox" stroke="none" fill="none" x="16873" y="23604" width="131" height="131"/>
      <path fill="rgb(255,0,0)" stroke="none" d="M 17002,23669 C 17002,23680 16999,23691 16993,23701 16988,23711 16980,23719 16970,23724 16960,23730 16949,23733 16938,23733 16927,23733 16916,23730 16906,23724 16896,23719 16888,23711 16883,23701 16877,23691 16874,23680 16874,23669 16874,23658 16877,23647 16883,23637 16888,23627 16896,23619 16906,23614 16916,23608 16927,23605 16938,23605 16949,23605 16960,23608 16970,23614 16980,23619 16988,23627 16993,23637 16999,23647 17002,23658 17002,23669 L 17002,23669 Z"/>
      <path fill="none" stroke="rgb(201,33,30)" d="M 17002,23669 C 17002,23680 16999,23691 16993,23701 16988,23711 16980,23719 16970,23724 16960,23730 16949,23733 16938,23733 16927,23733 16916,23730 16906,23724 16896,23719 16888,23711 16883,23701 16877,23691 16874,23680 16874,23669 16874,23658 16877,23647 16883,23637 16888,23627 16896,23619 16906,23614 16916,23608 16927,23605 16938,23605 16949,23605 16960,23608 16970,23614 16980,23619 16988,23627 16993,23637 16999,23647 17002,23658 17002,23669 Z"/>
     </g>
    </g>
    <g class="com.sun.star.drawing.CustomShape">
     <g id="id43">
      <rect class="BoundingBox" stroke="none" fill="none" x="16365" y="23985" width="131" height="131"/>
      <path fill="rgb(255,0,0)" stroke="none" d="M 16494,24050 C 16494,24061 16491,24072 16485,24082 16480,24092 16472,24100 16462,24105 16452,24111 16441,24114 16430,24114 16419,24114 16408,24111 16398,24105 16388,24100 16380,24092 16375,24082 16369,24072 16366,24061 16366,24050 16366,24039 16369,24028 16375,24018 16380,24008 16388,24000 16398,23995 16408,23989 16419,23986 16430,23986 16441,23986 16452,23989 16462,23995 16472,24000 16480,24008 16485,24018 16491,24028 16494,24039 16494,24050 L 16494,24050 Z"/>
      <path fill="none" stroke="rgb(201,33,30)" d="M 16494,24050 C 16494,24061 16491,24072 16485,24082 16480,24092 16472,24100 16462,24105 16452,24111 16441,24114 16430,24114 16419,24114 16408,24111 16398,24105 16388,24100 16380,24092 16375,24082 16369,24072 16366,24061 16366,24050 16366,24039 16369,24028 16375,24018 16380,24008 16388,24000 16398,23995 16408,23989 16419,23986 16430,23986 16441,23986 16452,23989 16462,23995 16472,24000 16480,24008 16485,24018 16491,24028 16494,24039 16494,24050 Z"/>
     </g>
    </g>
    <g class="com.sun.star.drawing.CustomShape">
     <g id="id44">
      <rect class="BoundingBox" stroke="none" fill="none" x="17254" y="23985" width="131" height="131"/>
      <path fill="rgb(255,0,0)" stroke="none" d="M 17383,24050 C 17383,24061 17380,24072 17374,24082 17369,24092 17361,24100 17351,24105 17341,24111 17330,24114 17319,24114 17308,24114 17297,24111 17287,24105 17277,24100 17269,24092 17264,24082 17258,24072 17255,24061 17255,24050 17255,24039 17258,24028 17264,24018 17269,24008 17277,24000 17287,23995 17297,23989 17308,23986 17319,23986 17330,23986 17341,23989 17351,23995 17361,24000 17369,24008 17374,24018 17380,24028 17383,24039 17383,24050 L 17383,24050 Z"/>
      <path fill="none" stroke="rgb(201,33,30)" d="M 17383,24050 C 17383,24061 17380,24072 17374,24082 17369,24092 17361,24100 17351,24105 17341,24111 17330,24114 17319,24114 17308,24114 17297,24111 17287,24105 17277,24100 17269,24092 17264,24082 17258,24072 17255,24061 17255,24050 17255,24039 17258,24028 17264,24018 17269,24008 17277,24000 17287,23995 17297,23989 17308,23986 17319,23986 17330,23986 17341,23989 17351,23995 17361,24000 17369,24008 17374,24018 17380,24028 17383,24039 17383,24050 Z"/>
     </g>
    </g>
    <g class="com.sun.star.drawing.CustomShape">
     <g id="id45">
      <rect class="BoundingBox" stroke="none" fill="none" x="16873" y="23985" width="131" height="131"/>
      <path fill="rgb(255,0,0)" stroke="none" d="M 17002,24050 C 17002,24061 16999,24072 16993,24082 16988,24092 16980,24100 16970,24105 16960,24111 16949,24114 16938,24114 16927,24114 16916,24111 16906,24105 16896,24100 16888,24092 16883,24082 16877,24072 16874,24061 16874,24050 16874,24039 16877,24028 16883,24018 16888,24008 16896,24000 16906,23995 16916,23989 16927,23986 16938,23986 16949,23986 16960,23989 16970,23995 16980,24000 16988,24008 16993,24018 16999,24028 17002,24039 17002,24050 L 17002,24050 Z"/>
      <path fill="none" stroke="rgb(201,33,30)" d="M 17002,24050 C 17002,24061 16999,24072 16993,24082 16988,24092 16980,24100 16970,24105 16960,24111 16949,24114 16938,24114 16927,24114 16916,24111 16906,24105 16896,24100 16888,24092 16883,24082 16877,24072 16874,24061 16874,24050 16874,24039 16877,24028 16883,24018 16888,24008 16896,24000 16906,23995 16916,23989 16927,23986 16938,23986 16949,23986 16960,23989 16970,23995 16980,24000 16988,24008 16993,24018 16999,24028 17002,24039 17002,24050 Z"/>
     </g>
    </g>
   </g>
  </g>
 </g>
</svg>